<svg width="153" height="468" viewBox="0 0 153 468" fill="none" xmlns="http://www.w3.org/2000/svg">
<path d="M27.3722 90.9C22.6322 90.9 18.6422 89.49 15.4022 86.67C12.1622 83.85 9.70215 80.01 8.02215 75.15C6.40215 70.23 5.59215 64.68 5.59215 58.5C5.59215 52.26 6.40215 46.71 8.02215 41.85C9.64215 36.99 12.0722 33.15 15.3122 30.33C18.6122 27.51 22.6322 26.1 27.3722 26.1C32.1122 26.1 36.1022 27.51 39.3422 30.33C42.6422 33.09 45.1022 36.93 46.7222 41.85C48.4022 46.71 49.2422 52.26 49.2422 58.5C49.2422 64.68 48.4022 70.23 46.7222 75.15C45.1022 80.01 42.6422 83.85 39.3422 86.67C36.1022 89.49 32.1122 90.9 27.3722 90.9ZM27.3722 85.32C32.5322 85.32 36.4922 82.92 39.2522 78.12C42.0722 73.26 43.4822 66.72 43.4822 58.5C43.4822 50.22 42.0722 43.68 39.2522 38.88C36.4922 34.02 32.5322 31.59 27.3722 31.59C22.2722 31.59 18.3122 34.02 15.4922 38.88C12.7322 43.68 11.3522 50.22 11.3522 58.5C11.3522 66.72 12.7322 73.26 15.4922 78.12C18.3122 82.92 22.2722 85.32 27.3722 85.32ZM73.4275 27C74.0875 27.06 74.6275 27.36 75.0475 27.9C75.5275 28.38 75.7675 28.98 75.7675 29.7V87.3C75.7675 88.08 75.4675 88.74 74.8675 89.28C74.3275 89.76 73.6375 90 72.7975 90C72.0175 90 71.3575 89.76 70.8175 89.28C70.2775 88.74 70.0075 88.08 70.0075 87.3V34.65L58.7575 41.31C58.3375 41.55 57.9175 41.67 57.4975 41.67C56.7175 41.67 56.0275 41.37 55.4275 40.77C54.8875 40.17 54.6175 39.51 54.6175 38.79C54.6175 38.37 54.7375 37.95 54.9775 37.53C55.2775 37.11 55.6375 36.78 56.0575 36.54L71.2675 27.36C71.8675 27 72.5875 26.88 73.4275 27Z" fill="black"/>
<path d="M48.6559 150.782C47.0759 150.782 45.7458 150.312 44.6658 149.372C43.5858 148.432 42.7658 147.152 42.2058 145.532C41.6658 143.892 41.3958 142.042 41.3958 139.982C41.3958 137.902 41.6658 136.052 42.2058 134.432C42.7458 132.812 43.5558 131.532 44.6358 130.592C45.7358 129.652 47.0759 129.182 48.6559 129.182C50.2359 129.182 51.5659 129.652 52.6458 130.592C53.7458 131.512 54.5659 132.792 55.1059 134.432C55.6659 136.052 55.9459 137.902 55.9459 139.982C55.9459 142.042 55.6659 143.892 55.1059 145.532C54.5659 147.152 53.7458 148.432 52.6458 149.372C51.5659 150.312 50.2359 150.782 48.6559 150.782ZM48.6559 148.922C50.3759 148.922 51.6959 148.122 52.6159 146.522C53.5559 144.902 54.0258 142.722 54.0258 139.982C54.0258 137.222 53.5559 135.042 52.6159 133.442C51.6959 131.822 50.3759 131.012 48.6559 131.012C46.9559 131.012 45.6358 131.822 44.6958 133.442C43.7758 135.042 43.3158 137.222 43.3158 139.982C43.3158 142.722 43.7758 144.902 44.6958 146.522C45.6358 148.122 46.9559 148.922 48.6559 148.922ZM72.3776 148.742C72.6176 148.742 72.8176 148.832 72.9776 149.012C73.1576 149.172 73.2476 149.372 73.2476 149.612C73.2476 149.872 73.1576 150.082 72.9776 150.242C72.8176 150.402 72.6176 150.482 72.3776 150.482H61.1276C60.8476 150.482 60.6176 150.402 60.4376 150.242C60.2576 150.082 60.1676 149.862 60.1676 149.582C60.1676 149.362 60.2476 149.152 60.4076 148.952L67.3376 141.302C68.4576 140.102 69.2876 139.032 69.8276 138.092C70.3676 137.132 70.6376 136.192 70.6376 135.272C70.6376 133.912 70.2276 132.842 69.4076 132.062C68.5876 131.282 67.4476 130.892 65.9876 130.892C65.0076 130.892 64.1276 131.132 63.3476 131.612C62.5876 132.072 62.0176 132.782 61.6376 133.742C61.4176 134.102 61.1576 134.282 60.8576 134.282C60.6376 134.282 60.4276 134.202 60.2276 134.042C60.0276 133.882 59.9276 133.702 59.9276 133.502C59.9276 133.382 59.9676 133.242 60.0476 133.082C60.1276 132.922 60.2276 132.762 60.3476 132.602C60.8676 131.522 61.6476 130.682 62.6876 130.082C63.7276 129.482 64.8676 129.182 66.1076 129.182C68.1276 129.182 69.7076 129.732 70.8476 130.832C71.9876 131.932 72.5576 133.372 72.5576 135.152C72.5576 136.252 72.2576 137.382 71.6576 138.542C71.0576 139.682 70.0676 141.012 68.6876 142.532L63.1676 148.742H72.3776Z" fill="black"/>
<path d="M48.6559 218.42C47.0759 218.42 45.7458 217.95 44.6658 217.01C43.5858 216.07 42.7658 214.79 42.2058 213.17C41.6658 211.53 41.3958 209.68 41.3958 207.62C41.3958 205.54 41.6658 203.69 42.2058 202.07C42.7458 200.45 43.5558 199.17 44.6358 198.23C45.7358 197.29 47.0759 196.82 48.6559 196.82C50.2359 196.82 51.5659 197.29 52.6458 198.23C53.7458 199.15 54.5659 200.43 55.1059 202.07C55.6659 203.69 55.9459 205.54 55.9459 207.62C55.9459 209.68 55.6659 211.53 55.1059 213.17C54.5659 214.79 53.7458 216.07 52.6458 217.01C51.5659 217.95 50.2359 218.42 48.6559 218.42ZM48.6559 216.56C50.3759 216.56 51.6959 215.76 52.6159 214.16C53.5559 212.54 54.0258 210.36 54.0258 207.62C54.0258 204.86 53.5559 202.68 52.6159 201.08C51.6959 199.46 50.3759 198.65 48.6559 198.65C46.9559 198.65 45.6358 199.46 44.6958 201.08C43.7758 202.68 43.3158 204.86 43.3158 207.62C43.3158 210.36 43.7758 212.54 44.6958 214.16C45.6358 215.76 46.9559 216.56 48.6559 216.56ZM65.2076 204.83C66.3276 204.83 67.3676 205.09 68.3276 205.61C69.3076 206.13 70.0876 206.89 70.6676 207.89C71.2676 208.89 71.5676 210.07 71.5676 211.43C71.5676 212.79 71.2376 214 70.5776 215.06C69.9376 216.12 69.0576 216.95 67.9376 217.55C66.8176 218.13 65.5776 218.42 64.2176 218.42C63.3576 218.42 62.5276 218.28 61.7276 218C60.9276 217.72 60.2476 217.3 59.6876 216.74C59.4076 216.54 59.2676 216.3 59.2676 216.02C59.2676 215.78 59.3576 215.56 59.5376 215.36C59.7176 215.14 59.9276 215.03 60.1676 215.03C60.4076 215.03 60.6576 215.14 60.9176 215.36C61.7576 216.26 62.9176 216.71 64.3976 216.71C65.3576 216.71 66.2476 216.49 67.0676 216.05C67.8876 215.61 68.5376 214.99 69.0176 214.19C69.4976 213.39 69.7376 212.49 69.7376 211.49C69.7376 210.39 69.4876 209.47 68.9876 208.73C68.5076 207.99 67.8676 207.45 67.0676 207.11C66.2876 206.75 65.4576 206.57 64.5776 206.57C64.3376 206.57 64.0276 206.61 63.6476 206.69C63.2676 206.75 63.0276 206.78 62.9276 206.78C62.6876 206.78 62.4876 206.7 62.3276 206.54C62.1876 206.36 62.1176 206.14 62.1176 205.88C62.1176 205.62 62.2176 205.39 62.4176 205.19L68.1476 198.83H59.8076C59.5676 198.83 59.3576 198.75 59.1776 198.59C59.0176 198.43 58.9376 198.22 58.9376 197.96C58.9376 197.72 59.0176 197.52 59.1776 197.36C59.3576 197.2 59.5676 197.12 59.8076 197.12H69.8876C70.2076 197.12 70.4376 197.22 70.5776 197.42C70.7376 197.6 70.8176 197.81 70.8176 198.05C70.8176 198.29 70.7176 198.51 70.5176 198.71L65.0276 204.83H65.2076Z" fill="black"/>
<path d="M48.6559 287.116C47.0759 287.116 45.7458 286.646 44.6658 285.706C43.5858 284.766 42.7658 283.486 42.2058 281.866C41.6658 280.226 41.3958 278.376 41.3958 276.316C41.3958 274.236 41.6658 272.386 42.2058 270.766C42.7458 269.146 43.5558 267.866 44.6358 266.926C45.7358 265.986 47.0759 265.516 48.6559 265.516C50.2359 265.516 51.5659 265.986 52.6458 266.926C53.7458 267.846 54.5659 269.126 55.1059 270.766C55.6659 272.386 55.9459 274.236 55.9459 276.316C55.9459 278.376 55.6659 280.226 55.1059 281.866C54.5659 283.486 53.7458 284.766 52.6458 285.706C51.5659 286.646 50.2359 287.116 48.6559 287.116ZM48.6559 285.256C50.3759 285.256 51.6959 284.456 52.6159 282.856C53.5559 281.236 54.0258 279.056 54.0258 276.316C54.0258 273.556 53.5559 271.376 52.6159 269.776C51.6959 268.156 50.3759 267.346 48.6559 267.346C46.9559 267.346 45.6358 268.156 44.6958 269.776C43.7758 271.376 43.3158 273.556 43.3158 276.316C43.3158 279.056 43.7758 281.236 44.6958 282.856C45.6358 284.456 46.9559 285.256 48.6559 285.256ZM72.1376 278.656C72.3776 278.656 72.5776 278.736 72.7376 278.896C72.9176 279.056 73.0076 279.256 73.0076 279.496C73.0076 279.736 72.9176 279.936 72.7376 280.096C72.5776 280.256 72.3776 280.336 72.1376 280.336H70.1276V285.916C70.1276 286.176 70.0376 286.396 69.8576 286.576C69.6776 286.736 69.4576 286.816 69.1976 286.816C68.9376 286.816 68.7276 286.736 68.5676 286.576C68.4076 286.396 68.3276 286.176 68.3276 285.916V280.336H59.5076C59.2676 280.336 59.0576 280.246 58.8776 280.066C58.6976 279.866 58.6076 279.646 58.6076 279.406C58.6076 279.166 58.6776 278.966 58.8176 278.806L68.4776 266.176C68.6376 265.936 68.8876 265.816 69.2276 265.816C69.4876 265.816 69.6976 265.906 69.8576 266.086C70.0376 266.246 70.1276 266.456 70.1276 266.716V278.656H72.1376ZM68.3276 278.656V269.056L61.0676 278.656H68.3276Z" fill="black"/>
<path d="M48.6559 423.451C47.0759 423.451 45.7458 422.981 44.6658 422.041C43.5858 421.101 42.7658 419.821 42.2058 418.201C41.6658 416.561 41.3958 414.711 41.3958 412.651C41.3958 410.571 41.6658 408.721 42.2058 407.101C42.7458 405.481 43.5558 404.201 44.6358 403.261C45.7358 402.321 47.0759 401.851 48.6559 401.851C50.2359 401.851 51.5659 402.321 52.6458 403.261C53.7458 404.181 54.5659 405.461 55.1059 407.101C55.6659 408.721 55.9459 410.571 55.9459 412.651C55.9459 414.711 55.6659 416.561 55.1059 418.201C54.5659 419.821 53.7458 421.101 52.6458 422.041C51.5659 422.981 50.2359 423.451 48.6559 423.451ZM48.6559 421.591C50.3759 421.591 51.6959 420.791 52.6159 419.191C53.5559 417.571 54.0258 415.391 54.0258 412.651C54.0258 409.891 53.5559 407.711 52.6159 406.111C51.6959 404.491 50.3759 403.681 48.6559 403.681C46.9559 403.681 45.6358 404.491 44.6958 406.111C43.7758 407.711 43.3158 409.891 43.3158 412.651C43.3158 415.391 43.7758 417.571 44.6958 419.191C45.6358 420.791 46.9559 421.591 48.6559 421.591ZM66.4976 409.861C67.6776 409.861 68.7376 410.181 69.6776 410.821C70.6376 411.461 71.3776 412.311 71.8976 413.371C72.4376 414.431 72.7076 415.551 72.7076 416.731C72.7076 417.911 72.4176 419.021 71.8376 420.061C71.2776 421.081 70.4976 421.901 69.4976 422.521C68.4976 423.141 67.3776 423.451 66.1376 423.451C64.6376 423.451 63.3676 423.101 62.3276 422.401C61.2876 421.701 60.5076 420.781 59.9876 419.641C59.4876 418.501 59.2376 417.271 59.2376 415.951C59.2376 414.251 59.5976 412.431 60.3176 410.491C61.0376 408.531 62.0876 406.741 63.4676 405.121C64.8476 403.481 66.4876 402.301 68.3876 401.581C68.5476 401.541 68.6776 401.521 68.7776 401.521C69.0376 401.521 69.2576 401.601 69.4376 401.761C69.6176 401.921 69.7076 402.151 69.7076 402.451C69.7076 402.871 69.4676 403.161 68.9876 403.321C67.3876 403.981 65.8776 405.151 64.4576 406.831C63.0576 408.491 62.0976 410.261 61.5776 412.141C62.1776 411.441 62.8976 410.891 63.7376 410.491C64.5976 410.071 65.5176 409.861 66.4976 409.861ZM66.0776 421.711C67.4776 421.711 68.6276 421.251 69.5276 420.331C70.4276 419.391 70.8776 418.191 70.8776 416.731C70.8776 415.831 70.6876 414.991 70.3076 414.211C69.9476 413.431 69.4176 412.801 68.7176 412.321C68.0176 411.841 67.1876 411.601 66.2276 411.601C65.1876 411.601 64.2776 411.841 63.4976 412.321C62.7176 412.781 62.1176 413.411 61.6976 414.211C61.2776 414.991 61.0676 415.861 61.0676 416.821C61.0676 417.701 61.2676 418.511 61.6676 419.251C62.0676 419.991 62.6476 420.591 63.4076 421.051C64.1676 421.491 65.0576 421.711 66.0776 421.711Z" fill="black"/>
<path d="M48.6559 355.812C47.0759 355.812 45.7458 355.342 44.6658 354.402C43.5858 353.462 42.7658 352.182 42.2058 350.562C41.6658 348.922 41.3958 347.072 41.3958 345.012C41.3958 342.932 41.6658 341.082 42.2058 339.462C42.7458 337.842 43.5558 336.562 44.6358 335.622C45.7358 334.682 47.0759 334.212 48.6559 334.212C50.2359 334.212 51.5659 334.682 52.6458 335.622C53.7458 336.542 54.5659 337.822 55.1059 339.462C55.6659 341.082 55.9459 342.932 55.9459 345.012C55.9459 347.072 55.6659 348.922 55.1059 350.562C54.5659 352.182 53.7458 353.462 52.6458 354.402C51.5659 355.342 50.2359 355.812 48.6559 355.812ZM48.6559 353.952C50.3759 353.952 51.6959 353.152 52.6159 351.552C53.5559 349.932 54.0258 347.752 54.0258 345.012C54.0258 342.252 53.5559 340.072 52.6159 338.472C51.6959 336.852 50.3759 336.042 48.6559 336.042C46.9559 336.042 45.6358 336.852 44.6958 338.472C43.7758 340.072 43.3158 342.252 43.3158 345.012C43.3158 347.752 43.7758 349.932 44.6958 351.552C45.6358 353.152 46.9559 353.952 48.6559 353.952ZM65.1776 341.562C66.4576 341.562 67.6076 341.852 68.6276 342.432C69.6676 342.992 70.4776 343.792 71.0576 344.832C71.6576 345.852 71.9576 347.002 71.9576 348.282C71.9576 349.682 71.6276 350.942 70.9676 352.062C70.3276 353.162 69.4276 354.022 68.2676 354.642C67.1076 355.262 65.7876 355.572 64.3076 355.572C63.4676 355.572 62.6276 355.432 61.7876 355.152C60.9676 354.872 60.2476 354.472 59.6276 353.952C59.5076 353.872 59.4076 353.762 59.3276 353.622C59.2676 353.462 59.2376 353.312 59.2376 353.172C59.2376 352.972 59.3176 352.782 59.4776 352.602C59.6576 352.402 59.8676 352.302 60.1076 352.302C60.3276 352.302 60.5476 352.392 60.7676 352.572C61.2876 352.972 61.8476 353.282 62.4476 353.502C63.0676 353.722 63.6876 353.832 64.3076 353.832C65.4476 353.832 66.4576 353.602 67.3376 353.142C68.2376 352.682 68.9276 352.032 69.4076 351.192C69.9076 350.352 70.1576 349.402 70.1576 348.342C70.1576 346.822 69.6676 345.602 68.6876 344.682C67.7076 343.742 66.3976 343.272 64.7576 343.272C64.1376 343.272 63.5576 343.362 63.0176 343.542C62.4976 343.722 61.9076 343.962 61.2476 344.262C60.7676 344.502 60.4576 344.622 60.3176 344.622C60.0176 344.622 59.7676 344.532 59.5676 344.352C59.3876 344.152 59.2976 343.922 59.2976 343.662C59.2976 343.562 59.3076 343.482 59.3276 343.422L60.6176 335.262C60.6576 335.062 60.7576 334.892 60.9176 334.752C61.0976 334.592 61.3076 334.512 61.5476 334.512H70.5776C70.8176 334.512 71.0176 334.602 71.1776 334.782C71.3576 334.942 71.4476 335.152 71.4476 335.412C71.4476 335.652 71.3576 335.862 71.1776 336.042C71.0176 336.202 70.8176 336.282 70.5776 336.282H62.1776L61.1576 342.492C61.6776 342.232 62.2876 342.012 62.9876 341.832C63.7076 341.652 64.4376 341.562 65.1776 341.562Z" fill="black"/>
</svg>
