<svg width="153" height="433" viewBox="0 0 153 433" fill="none" xmlns="http://www.w3.org/2000/svg">
<path d="M27.0879 119.435C22.3479 119.435 18.3578 118.025 15.1178 115.205C11.8778 112.385 9.41785 108.545 7.73785 103.685C6.11785 98.7652 5.30785 93.2152 5.30785 87.0352C5.30785 80.7952 6.11785 75.2452 7.73785 70.3852C9.35785 65.5252 11.7878 61.6852 15.0278 58.8652C18.3278 56.0452 22.3479 54.6352 27.0879 54.6352C31.8279 54.6352 35.8179 56.0452 39.0578 58.8652C42.3579 61.6252 44.8179 65.4652 46.4379 70.3852C48.1179 75.2452 48.9579 80.7952 48.9579 87.0352C48.9579 93.2152 48.1179 98.7652 46.4379 103.685C44.8179 108.545 42.3579 112.385 39.0578 115.205C35.8179 118.025 31.8279 119.435 27.0879 119.435ZM27.0879 113.855C32.2479 113.855 36.2079 111.455 38.9679 106.655C41.7879 101.795 43.1979 95.2552 43.1979 87.0352C43.1979 78.7552 41.7879 72.2152 38.9679 67.4152C36.2079 62.5552 32.2479 60.1252 27.0879 60.1252C21.9879 60.1252 18.0279 62.5552 15.2078 67.4152C12.4478 72.2152 11.0678 78.7552 11.0678 87.0352C11.0678 95.2552 12.4478 101.795 15.2078 106.655C18.0279 111.455 21.9879 113.855 27.0879 113.855ZM98.2532 113.315C98.9732 113.315 99.5732 113.585 100.053 114.125C100.593 114.605 100.863 115.205 100.863 115.925C100.863 116.705 100.593 117.335 100.053 117.815C99.5732 118.295 98.9732 118.535 98.2532 118.535H64.5032C63.6632 118.535 62.9732 118.295 62.4332 117.815C61.8932 117.335 61.6232 116.675 61.6232 115.835C61.6232 115.175 61.8632 114.545 62.3432 113.945L83.1332 90.9952C86.4932 87.3952 88.9832 84.1852 90.6032 81.3652C92.2232 78.4852 93.0332 75.6652 93.0332 72.9052C93.0332 68.8252 91.8032 65.6152 89.3432 63.2752C86.8832 60.9352 83.4632 59.7652 79.0832 59.7652C76.1432 59.7652 73.5032 60.4852 71.1632 61.9252C68.8832 63.3052 67.1732 65.4352 66.0332 68.3152C65.3732 69.3952 64.5932 69.9352 63.6932 69.9352C63.0332 69.9352 62.4032 69.6952 61.8032 69.2152C61.2032 68.7352 60.9032 68.1952 60.9032 67.5952C60.9032 67.2352 61.0232 66.8152 61.2632 66.3352C61.5032 65.8552 61.8032 65.3752 62.1632 64.8952C63.7232 61.6552 66.0632 59.1352 69.1832 57.3352C72.3032 55.5352 75.7232 54.6352 79.4432 54.6352C85.5032 54.6352 90.2432 56.2852 93.6632 59.5852C97.0832 62.8852 98.7932 67.2052 98.7932 72.5452C98.7932 75.8452 97.8932 79.2352 96.0932 82.7152C94.2932 86.1352 91.3232 90.1252 87.1832 94.6852L70.6232 113.315H98.2532Z" fill="black"/>
<path d="M49.4284 30.3C47.8484 30.3 46.5184 29.83 45.4384 28.89C44.3584 27.95 43.5384 26.67 42.9784 25.05C42.4384 23.41 42.1684 21.56 42.1684 19.5C42.1684 17.42 42.4384 15.57 42.9784 13.95C43.5184 12.33 44.3284 11.05 45.4084 10.11C46.5084 9.17 47.8484 8.7 49.4284 8.7C51.0084 8.7 52.3384 9.17 53.4184 10.11C54.5184 11.03 55.3384 12.31 55.8784 13.95C56.4384 15.57 56.7184 17.42 56.7184 19.5C56.7184 21.56 56.4384 23.41 55.8784 25.05C55.3384 26.67 54.5184 27.95 53.4184 28.89C52.3384 29.83 51.0084 30.3 49.4284 30.3ZM49.4284 28.44C51.1484 28.44 52.4684 27.64 53.3884 26.04C54.3284 24.42 54.7984 22.24 54.7984 19.5C54.7984 16.74 54.3284 14.56 53.3884 12.96C52.4684 11.34 51.1484 10.53 49.4284 10.53C47.7284 10.53 46.4084 11.34 45.4684 12.96C44.5484 14.56 44.0884 16.74 44.0884 19.5C44.0884 22.24 44.5484 24.42 45.4684 26.04C46.4084 27.64 47.7284 28.44 49.4284 28.44ZM64.7802 9C65.0002 9.02 65.1802 9.12 65.3202 9.3C65.4802 9.46 65.5602 9.66 65.5602 9.9V29.1C65.5602 29.36 65.4602 29.58 65.2602 29.76C65.0802 29.92 64.8502 30 64.5702 30C64.3102 30 64.0902 29.92 63.9102 29.76C63.7302 29.58 63.6402 29.36 63.6402 29.1V11.55L59.8902 13.77C59.7502 13.85 59.6102 13.89 59.4702 13.89C59.2102 13.89 58.9802 13.79 58.7802 13.59C58.6002 13.39 58.5102 13.17 58.5102 12.93C58.5102 12.79 58.5502 12.65 58.6302 12.51C58.7302 12.37 58.8502 12.26 58.9902 12.18L64.0602 9.12C64.2602 9 64.5002 8.96 64.7802 9Z" fill="black"/>
<path d="M53.6558 183.544C52.0758 183.544 50.7458 183.074 49.6658 182.134C48.5858 181.194 47.7658 179.914 47.2058 178.294C46.6658 176.654 46.3958 174.804 46.3958 172.744C46.3958 170.664 46.6658 168.814 47.2058 167.194C47.7458 165.574 48.5558 164.294 49.6358 163.354C50.7358 162.414 52.0758 161.944 53.6558 161.944C55.2358 161.944 56.5658 162.414 57.6458 163.354C58.7458 164.274 59.5658 165.554 60.1058 167.194C60.6658 168.814 60.9458 170.664 60.9458 172.744C60.9458 174.804 60.6658 176.654 60.1058 178.294C59.5658 179.914 58.7458 181.194 57.6458 182.134C56.5658 183.074 55.2358 183.544 53.6558 183.544ZM53.6558 181.684C55.3758 181.684 56.6958 180.884 57.6158 179.284C58.5558 177.664 59.0258 175.484 59.0258 172.744C59.0258 169.984 58.5558 167.804 57.6158 166.204C56.6958 164.584 55.3758 163.774 53.6558 163.774C51.9558 163.774 50.6358 164.584 49.6958 166.204C48.7758 167.804 48.3158 169.984 48.3158 172.744C48.3158 175.484 48.7758 177.664 49.6958 179.284C50.6358 180.884 51.9558 181.684 53.6558 181.684ZM70.2076 169.954C71.3276 169.954 72.3676 170.214 73.3276 170.734C74.3076 171.254 75.0876 172.014 75.6676 173.014C76.2676 174.014 76.5676 175.194 76.5676 176.554C76.5676 177.914 76.2376 179.124 75.5776 180.184C74.9376 181.244 74.0576 182.074 72.9376 182.674C71.8176 183.254 70.5776 183.544 69.2176 183.544C68.3576 183.544 67.5276 183.404 66.7276 183.124C65.9276 182.844 65.2476 182.424 64.6876 181.864C64.4076 181.664 64.2676 181.424 64.2676 181.144C64.2676 180.904 64.3576 180.684 64.5376 180.484C64.7176 180.264 64.9276 180.154 65.1676 180.154C65.4076 180.154 65.6576 180.264 65.9176 180.484C66.7576 181.384 67.9176 181.834 69.3976 181.834C70.3576 181.834 71.2476 181.614 72.0676 181.174C72.8876 180.734 73.5376 180.114 74.0176 179.314C74.4976 178.514 74.7376 177.614 74.7376 176.614C74.7376 175.514 74.4876 174.594 73.9876 173.854C73.5076 173.114 72.8676 172.574 72.0676 172.234C71.2876 171.874 70.4576 171.694 69.5776 171.694C69.3376 171.694 69.0276 171.734 68.6476 171.814C68.2676 171.874 68.0276 171.904 67.9276 171.904C67.6876 171.904 67.4876 171.824 67.3276 171.664C67.1876 171.484 67.1176 171.264 67.1176 171.004C67.1176 170.744 67.2176 170.514 67.4176 170.314L73.1476 163.954H64.8076C64.5676 163.954 64.3576 163.874 64.1776 163.714C64.0176 163.554 63.9376 163.344 63.9376 163.084C63.9376 162.844 64.0176 162.644 64.1776 162.484C64.3576 162.324 64.5676 162.244 64.8076 162.244H74.8876C75.2076 162.244 75.4376 162.344 75.5776 162.544C75.7376 162.724 75.8176 162.934 75.8176 163.174C75.8176 163.414 75.7176 163.634 75.5176 163.834L70.0276 169.954H70.2076Z" fill="black"/>
<path d="M53.6558 252.24C52.0758 252.24 50.7458 251.77 49.6658 250.83C48.5858 249.89 47.7658 248.61 47.2058 246.99C46.6658 245.35 46.3958 243.5 46.3958 241.44C46.3958 239.36 46.6658 237.51 47.2058 235.89C47.7458 234.27 48.5558 232.99 49.6358 232.05C50.7358 231.11 52.0758 230.64 53.6558 230.64C55.2358 230.64 56.5658 231.11 57.6458 232.05C58.7458 232.97 59.5658 234.25 60.1058 235.89C60.6658 237.51 60.9458 239.36 60.9458 241.44C60.9458 243.5 60.6658 245.35 60.1058 246.99C59.5658 248.61 58.7458 249.89 57.6458 250.83C56.5658 251.77 55.2358 252.24 53.6558 252.24ZM53.6558 250.38C55.3758 250.38 56.6958 249.58 57.6158 247.98C58.5558 246.36 59.0258 244.18 59.0258 241.44C59.0258 238.68 58.5558 236.5 57.6158 234.9C56.6958 233.28 55.3758 232.47 53.6558 232.47C51.9558 232.47 50.6358 233.28 49.6958 234.9C48.7758 236.5 48.3158 238.68 48.3158 241.44C48.3158 244.18 48.7758 246.36 49.6958 247.98C50.6358 249.58 51.9558 250.38 53.6558 250.38ZM77.1376 243.78C77.3776 243.78 77.5776 243.86 77.7376 244.02C77.9176 244.18 78.0076 244.38 78.0076 244.62C78.0076 244.86 77.9176 245.06 77.7376 245.22C77.5776 245.38 77.3776 245.46 77.1376 245.46H75.1276V251.04C75.1276 251.3 75.0376 251.52 74.8576 251.7C74.6776 251.86 74.4576 251.94 74.1976 251.94C73.9376 251.94 73.7276 251.86 73.5676 251.7C73.4076 251.52 73.3276 251.3 73.3276 251.04V245.46H64.5076C64.2676 245.46 64.0576 245.37 63.8776 245.19C63.6976 244.99 63.6076 244.77 63.6076 244.53C63.6076 244.29 63.6776 244.09 63.8176 243.93L73.4776 231.3C73.6376 231.06 73.8876 230.94 74.2276 230.94C74.4876 230.94 74.6976 231.03 74.8576 231.21C75.0376 231.37 75.1276 231.58 75.1276 231.84V243.78H77.1376ZM73.3276 243.78V234.18L66.0676 243.78H73.3276Z" fill="black"/>
<path d="M53.6558 388.574C52.0758 388.574 50.7458 388.104 49.6658 387.164C48.5858 386.224 47.7658 384.944 47.2058 383.324C46.6658 381.684 46.3958 379.834 46.3958 377.774C46.3958 375.694 46.6658 373.844 47.2058 372.224C47.7458 370.604 48.5558 369.324 49.6358 368.384C50.7358 367.444 52.0758 366.974 53.6558 366.974C55.2358 366.974 56.5658 367.444 57.6458 368.384C58.7458 369.304 59.5658 370.584 60.1058 372.224C60.6658 373.844 60.9458 375.694 60.9458 377.774C60.9458 379.834 60.6658 381.684 60.1058 383.324C59.5658 384.944 58.7458 386.224 57.6458 387.164C56.5658 388.104 55.2358 388.574 53.6558 388.574ZM53.6558 386.714C55.3758 386.714 56.6958 385.914 57.6158 384.314C58.5558 382.694 59.0258 380.514 59.0258 377.774C59.0258 375.014 58.5558 372.834 57.6158 371.234C56.6958 369.614 55.3758 368.804 53.6558 368.804C51.9558 368.804 50.6358 369.614 49.6958 371.234C48.7758 372.834 48.3158 375.014 48.3158 377.774C48.3158 380.514 48.7758 382.694 49.6958 384.314C50.6358 385.914 51.9558 386.714 53.6558 386.714ZM71.4976 374.984C72.6776 374.984 73.7376 375.304 74.6776 375.944C75.6376 376.584 76.3776 377.434 76.8976 378.494C77.4376 379.554 77.7076 380.674 77.7076 381.854C77.7076 383.034 77.4176 384.144 76.8376 385.184C76.2776 386.204 75.4976 387.024 74.4976 387.644C73.4976 388.264 72.3776 388.574 71.1376 388.574C69.6376 388.574 68.3676 388.224 67.3276 387.524C66.2876 386.824 65.5076 385.904 64.9876 384.764C64.4876 383.624 64.2376 382.394 64.2376 381.074C64.2376 379.374 64.5976 377.554 65.3176 375.614C66.0376 373.654 67.0876 371.864 68.4676 370.244C69.8476 368.604 71.4876 367.424 73.3876 366.704C73.5476 366.664 73.6776 366.644 73.7776 366.644C74.0376 366.644 74.2576 366.724 74.4376 366.884C74.6176 367.044 74.7076 367.274 74.7076 367.574C74.7076 367.994 74.4676 368.284 73.9876 368.444C72.3876 369.104 70.8776 370.274 69.4576 371.954C68.0576 373.614 67.0976 375.384 66.5776 377.264C67.1776 376.564 67.8976 376.014 68.7376 375.614C69.5976 375.194 70.5176 374.984 71.4976 374.984ZM71.0776 386.834C72.4776 386.834 73.6276 386.374 74.5276 385.454C75.4276 384.514 75.8776 383.314 75.8776 381.854C75.8776 380.954 75.6876 380.114 75.3076 379.334C74.9476 378.554 74.4176 377.924 73.7176 377.444C73.0176 376.964 72.1876 376.724 71.2276 376.724C70.1876 376.724 69.2776 376.964 68.4976 377.444C67.7176 377.904 67.1176 378.534 66.6976 379.334C66.2776 380.114 66.0676 380.984 66.0676 381.944C66.0676 382.824 66.2676 383.634 66.6676 384.374C67.0676 385.114 67.6476 385.714 68.4076 386.174C69.1676 386.614 70.0576 386.834 71.0776 386.834Z" fill="black"/>
<path d="M53.6558 320.935C52.0758 320.935 50.7458 320.465 49.6658 319.525C48.5858 318.585 47.7658 317.305 47.2058 315.685C46.6658 314.045 46.3958 312.195 46.3958 310.135C46.3958 308.055 46.6658 306.205 47.2058 304.585C47.7458 302.965 48.5558 301.685 49.6358 300.745C50.7358 299.805 52.0758 299.335 53.6558 299.335C55.2358 299.335 56.5658 299.805 57.6458 300.745C58.7458 301.665 59.5658 302.945 60.1058 304.585C60.6658 306.205 60.9458 308.055 60.9458 310.135C60.9458 312.195 60.6658 314.045 60.1058 315.685C59.5658 317.305 58.7458 318.585 57.6458 319.525C56.5658 320.465 55.2358 320.935 53.6558 320.935ZM53.6558 319.075C55.3758 319.075 56.6958 318.275 57.6158 316.675C58.5558 315.055 59.0258 312.875 59.0258 310.135C59.0258 307.375 58.5558 305.195 57.6158 303.595C56.6958 301.975 55.3758 301.165 53.6558 301.165C51.9558 301.165 50.6358 301.975 49.6958 303.595C48.7758 305.195 48.3158 307.375 48.3158 310.135C48.3158 312.875 48.7758 315.055 49.6958 316.675C50.6358 318.275 51.9558 319.075 53.6558 319.075ZM70.1776 306.685C71.4576 306.685 72.6076 306.975 73.6276 307.555C74.6676 308.115 75.4776 308.915 76.0576 309.955C76.6576 310.975 76.9576 312.125 76.9576 313.405C76.9576 314.805 76.6276 316.065 75.9676 317.185C75.3276 318.285 74.4276 319.145 73.2676 319.765C72.1076 320.385 70.7876 320.695 69.3076 320.695C68.4676 320.695 67.6276 320.555 66.7876 320.275C65.9676 319.995 65.2476 319.595 64.6276 319.075C64.5076 318.995 64.4076 318.885 64.3276 318.745C64.2676 318.585 64.2376 318.435 64.2376 318.295C64.2376 318.095 64.3176 317.905 64.4776 317.725C64.6576 317.525 64.8676 317.425 65.1076 317.425C65.3276 317.425 65.5476 317.515 65.7676 317.695C66.2876 318.095 66.8476 318.405 67.4476 318.625C68.0676 318.845 68.6876 318.955 69.3076 318.955C70.4476 318.955 71.4576 318.725 72.3376 318.265C73.2376 317.805 73.9276 317.155 74.4076 316.315C74.9076 315.475 75.1576 314.525 75.1576 313.465C75.1576 311.945 74.6676 310.725 73.6876 309.805C72.7076 308.865 71.3976 308.395 69.7576 308.395C69.1376 308.395 68.5576 308.485 68.0176 308.665C67.4976 308.845 66.9076 309.085 66.2476 309.385C65.7676 309.625 65.4576 309.745 65.3176 309.745C65.0176 309.745 64.7676 309.655 64.5676 309.475C64.3876 309.275 64.2976 309.045 64.2976 308.785C64.2976 308.685 64.3076 308.605 64.3276 308.545L65.6176 300.385C65.6576 300.185 65.7576 300.015 65.9176 299.875C66.0976 299.715 66.3076 299.635 66.5476 299.635H75.5776C75.8176 299.635 76.0176 299.725 76.1776 299.905C76.3576 300.065 76.4476 300.275 76.4476 300.535C76.4476 300.775 76.3576 300.985 76.1776 301.165C76.0176 301.325 75.8176 301.405 75.5776 301.405H67.1776L66.1576 307.615C66.6776 307.355 67.2876 307.135 67.9876 306.955C68.7076 306.775 69.4376 306.685 70.1776 306.685Z" fill="black"/>
</svg>
