<svg width="153" height="433" viewBox="0 0 153 433" fill="none" xmlns="http://www.w3.org/2000/svg">
<path d="M27.5427 195.529C22.8027 195.529 18.8127 194.119 15.5727 191.299C12.3327 188.479 9.87268 184.639 8.19268 179.779C6.57268 174.859 5.76268 169.309 5.76268 163.129C5.76268 156.889 6.57268 151.339 8.19268 146.479C9.81268 141.619 12.2427 137.779 15.4827 134.959C18.7827 132.139 22.8027 130.729 27.5427 130.729C32.2827 130.729 36.2727 132.139 39.5127 134.959C42.8127 137.719 45.2727 141.559 46.8927 146.479C48.5727 151.339 49.4127 156.889 49.4127 163.129C49.4127 169.309 48.5727 174.859 46.8927 179.779C45.2727 184.639 42.8127 188.479 39.5127 191.299C36.2727 194.119 32.2827 195.529 27.5427 195.529ZM27.5427 189.949C32.7027 189.949 36.6627 187.549 39.4227 182.749C42.2427 177.889 43.6527 171.349 43.6527 163.129C43.6527 154.849 42.2427 148.309 39.4227 143.509C36.6627 138.649 32.7027 136.219 27.5427 136.219C22.4427 136.219 18.4827 138.649 15.6627 143.509C12.9027 148.309 11.5227 154.849 11.5227 163.129C11.5227 171.349 12.9027 177.889 15.6627 182.749C18.4827 187.549 22.4427 189.949 27.5427 189.949ZM77.1981 154.759C80.5581 154.759 83.6781 155.539 86.5581 157.099C89.4981 158.659 91.8381 160.939 93.5781 163.939C95.3781 166.939 96.2781 170.479 96.2781 174.559C96.2781 178.639 95.2881 182.269 93.3081 185.449C91.3881 188.629 88.7481 191.119 85.3881 192.919C82.0281 194.659 78.3081 195.529 74.2281 195.529C71.6481 195.529 69.1581 195.109 66.7581 194.269C64.3581 193.429 62.3181 192.169 60.6381 190.489C59.7981 189.889 59.3781 189.169 59.3781 188.329C59.3781 187.609 59.6481 186.949 60.1881 186.349C60.7281 185.689 61.3581 185.359 62.0781 185.359C62.7981 185.359 63.5481 185.689 64.3281 186.349C66.8481 189.049 70.3281 190.399 74.7681 190.399C77.6481 190.399 80.3181 189.739 82.7781 188.419C85.2381 187.099 87.1881 185.239 88.6281 182.839C90.0681 180.439 90.7881 177.739 90.7881 174.739C90.7881 171.439 90.0381 168.679 88.5381 166.459C87.0981 164.239 85.1781 162.619 82.7781 161.599C80.4381 160.519 77.9481 159.979 75.3081 159.979C74.5881 159.979 73.6581 160.099 72.5181 160.339C71.3781 160.519 70.6581 160.609 70.3581 160.609C69.6381 160.609 69.0381 160.369 68.5581 159.889C68.1381 159.349 67.9281 158.689 67.9281 157.909C67.9281 157.129 68.2281 156.439 68.8281 155.839L86.0181 136.759H60.9981C60.2781 136.759 59.6481 136.519 59.1081 136.039C58.6281 135.559 58.3881 134.929 58.3881 134.149C58.3881 133.429 58.6281 132.829 59.1081 132.349C59.6481 131.869 60.2781 131.629 60.9981 131.629H91.2381C92.1981 131.629 92.8881 131.929 93.3081 132.529C93.7881 133.069 94.0281 133.699 94.0281 134.419C94.0281 135.139 93.7281 135.799 93.1281 136.399L76.6581 154.759H77.1981Z" fill="black"/>
<path d="M46.7127 30.3C45.1327 30.3 43.8027 29.83 42.7227 28.89C41.6427 27.95 40.8227 26.67 40.2627 25.05C39.7227 23.41 39.4527 21.56 39.4527 19.5C39.4527 17.42 39.7227 15.57 40.2627 13.95C40.8027 12.33 41.6127 11.05 42.6927 10.11C43.7927 9.17 45.1327 8.7 46.7127 8.7C48.2927 8.7 49.6227 9.17 50.7027 10.11C51.8027 11.03 52.6227 12.31 53.1627 13.95C53.7227 15.57 54.0027 17.42 54.0027 19.5C54.0027 21.56 53.7227 23.41 53.1627 25.05C52.6227 26.67 51.8027 27.95 50.7027 28.89C49.6227 29.83 48.2927 30.3 46.7127 30.3ZM46.7127 28.44C48.4327 28.44 49.7527 27.64 50.6727 26.04C51.6127 24.42 52.0827 22.24 52.0827 19.5C52.0827 16.74 51.6127 14.56 50.6727 12.96C49.7527 11.34 48.4327 10.53 46.7127 10.53C45.0127 10.53 43.6927 11.34 42.7527 12.96C41.8327 14.56 41.3727 16.74 41.3727 19.5C41.3727 22.24 41.8327 24.42 42.7527 26.04C43.6927 27.64 45.0127 28.44 46.7127 28.44ZM62.0645 9C62.2845 9.02 62.4645 9.12 62.6045 9.3C62.7645 9.46 62.8445 9.66 62.8445 9.9V29.1C62.8445 29.36 62.7445 29.58 62.5445 29.76C62.3645 29.92 62.1345 30 61.8545 30C61.5945 30 61.3745 29.92 61.1945 29.76C61.0145 29.58 60.9245 29.36 60.9245 29.1V11.55L57.1745 13.77C57.0345 13.85 56.8945 13.89 56.7545 13.89C56.4945 13.89 56.2645 13.79 56.0645 13.59C55.8845 13.39 55.7945 13.17 55.7945 12.93C55.7945 12.79 55.8345 12.65 55.9145 12.51C56.0145 12.37 56.1345 12.26 56.2745 12.18L61.3445 9.12C61.5445 9 61.7845 8.96 62.0645 9Z" fill="black"/>
<path d="M46.7127 96.8818C45.1327 96.8818 43.8027 96.4118 42.7227 95.4718C41.6427 94.5318 40.8227 93.2518 40.2627 91.6318C39.7227 89.9918 39.4527 88.1418 39.4527 86.0818C39.4527 84.0018 39.7227 82.1518 40.2627 80.5318C40.8027 78.9118 41.6127 77.6318 42.6927 76.6918C43.7927 75.7518 45.1327 75.2818 46.7127 75.2818C48.2927 75.2818 49.6227 75.7518 50.7027 76.6918C51.8027 77.6118 52.6227 78.8918 53.1627 80.5318C53.7227 82.1518 54.0027 84.0018 54.0027 86.0818C54.0027 88.1418 53.7227 89.9918 53.1627 91.6318C52.6227 93.2518 51.8027 94.5318 50.7027 95.4718C49.6227 96.4118 48.2927 96.8818 46.7127 96.8818ZM46.7127 95.0218C48.4327 95.0218 49.7527 94.2218 50.6727 92.6218C51.6127 91.0018 52.0827 88.8218 52.0827 86.0818C52.0827 83.3218 51.6127 81.1418 50.6727 79.5418C49.7527 77.9218 48.4327 77.1118 46.7127 77.1118C45.0127 77.1118 43.6927 77.9218 42.7527 79.5418C41.8327 81.1418 41.3727 83.3218 41.3727 86.0818C41.3727 88.8218 41.8327 91.0018 42.7527 92.6218C43.6927 94.2218 45.0127 95.0218 46.7127 95.0218ZM70.4345 94.8418C70.6745 94.8418 70.8745 94.9318 71.0345 95.1118C71.2145 95.2718 71.3045 95.4718 71.3045 95.7118C71.3045 95.9718 71.2145 96.1818 71.0345 96.3418C70.8745 96.5018 70.6745 96.5818 70.4345 96.5818H59.1845C58.9045 96.5818 58.6745 96.5018 58.4945 96.3418C58.3145 96.1818 58.2245 95.9618 58.2245 95.6818C58.2245 95.4618 58.3045 95.2518 58.4645 95.0518L65.3945 87.4018C66.5145 86.2018 67.3445 85.1318 67.8845 84.1918C68.4245 83.2318 68.6945 82.2918 68.6945 81.3718C68.6945 80.0118 68.2845 78.9418 67.4645 78.1618C66.6445 77.3818 65.5045 76.9918 64.0445 76.9918C63.0645 76.9918 62.1845 77.2318 61.4045 77.7118C60.6445 78.1718 60.0745 78.8818 59.6945 79.8418C59.4745 80.2018 59.2145 80.3818 58.9145 80.3818C58.6945 80.3818 58.4845 80.3018 58.2845 80.1418C58.0845 79.9818 57.9845 79.8018 57.9845 79.6018C57.9845 79.4818 58.0245 79.3418 58.1045 79.1818C58.1845 79.0218 58.2845 78.8618 58.4045 78.7018C58.9245 77.6218 59.7045 76.7818 60.7445 76.1818C61.7845 75.5818 62.9245 75.2818 64.1645 75.2818C66.1845 75.2818 67.7645 75.8318 68.9045 76.9318C70.0445 78.0318 70.6145 79.4718 70.6145 81.2518C70.6145 82.3518 70.3145 83.4818 69.7145 84.6418C69.1145 85.7818 68.1245 87.1118 66.7445 88.6318L61.2245 94.8418H70.4345Z" fill="black"/>
<path d="M46.7127 252.24C45.1327 252.24 43.8027 251.77 42.7227 250.83C41.6427 249.89 40.8227 248.61 40.2627 246.99C39.7227 245.35 39.4527 243.5 39.4527 241.44C39.4527 239.36 39.7227 237.51 40.2627 235.89C40.8027 234.27 41.6127 232.99 42.6927 232.05C43.7927 231.11 45.1327 230.64 46.7127 230.64C48.2927 230.64 49.6227 231.11 50.7027 232.05C51.8027 232.97 52.6227 234.25 53.1627 235.89C53.7227 237.51 54.0027 239.36 54.0027 241.44C54.0027 243.5 53.7227 245.35 53.1627 246.99C52.6227 248.61 51.8027 249.89 50.7027 250.83C49.6227 251.77 48.2927 252.24 46.7127 252.24ZM46.7127 250.38C48.4327 250.38 49.7527 249.58 50.6727 247.98C51.6127 246.36 52.0827 244.18 52.0827 241.44C52.0827 238.68 51.6127 236.5 50.6727 234.9C49.7527 233.28 48.4327 232.47 46.7127 232.47C45.0127 232.47 43.6927 233.28 42.7527 234.9C41.8327 236.5 41.3727 238.68 41.3727 241.44C41.3727 244.18 41.8327 246.36 42.7527 247.98C43.6927 249.58 45.0127 250.38 46.7127 250.38ZM70.1945 243.78C70.4345 243.78 70.6345 243.86 70.7945 244.02C70.9745 244.18 71.0645 244.38 71.0645 244.62C71.0645 244.86 70.9745 245.06 70.7945 245.22C70.6345 245.38 70.4345 245.46 70.1945 245.46H68.1845V251.04C68.1845 251.3 68.0945 251.52 67.9145 251.7C67.7345 251.86 67.5145 251.94 67.2545 251.94C66.9945 251.94 66.7845 251.86 66.6245 251.7C66.4645 251.52 66.3845 251.3 66.3845 251.04V245.46H57.5645C57.3245 245.46 57.1145 245.37 56.9345 245.19C56.7545 244.99 56.6645 244.77 56.6645 244.53C56.6645 244.29 56.7345 244.09 56.8745 243.93L66.5345 231.3C66.6945 231.06 66.9445 230.94 67.2845 230.94C67.5445 230.94 67.7545 231.03 67.9145 231.21C68.0945 231.37 68.1845 231.58 68.1845 231.84V243.78H70.1945ZM66.3845 243.78V234.18L59.1245 243.78H66.3845Z" fill="black"/>
<path d="M46.7127 388.574C45.1327 388.574 43.8027 388.104 42.7227 387.164C41.6427 386.224 40.8227 384.944 40.2627 383.324C39.7227 381.684 39.4527 379.834 39.4527 377.774C39.4527 375.694 39.7227 373.844 40.2627 372.224C40.8027 370.604 41.6127 369.324 42.6927 368.384C43.7927 367.444 45.1327 366.974 46.7127 366.974C48.2927 366.974 49.6227 367.444 50.7027 368.384C51.8027 369.304 52.6227 370.584 53.1627 372.224C53.7227 373.844 54.0027 375.694 54.0027 377.774C54.0027 379.834 53.7227 381.684 53.1627 383.324C52.6227 384.944 51.8027 386.224 50.7027 387.164C49.6227 388.104 48.2927 388.574 46.7127 388.574ZM46.7127 386.714C48.4327 386.714 49.7527 385.914 50.6727 384.314C51.6127 382.694 52.0827 380.514 52.0827 377.774C52.0827 375.014 51.6127 372.834 50.6727 371.234C49.7527 369.614 48.4327 368.804 46.7127 368.804C45.0127 368.804 43.6927 369.614 42.7527 371.234C41.8327 372.834 41.3727 375.014 41.3727 377.774C41.3727 380.514 41.8327 382.694 42.7527 384.314C43.6927 385.914 45.0127 386.714 46.7127 386.714ZM64.5545 374.984C65.7345 374.984 66.7945 375.304 67.7345 375.944C68.6945 376.584 69.4345 377.434 69.9545 378.494C70.4945 379.554 70.7645 380.674 70.7645 381.854C70.7645 383.034 70.4745 384.144 69.8945 385.184C69.3345 386.204 68.5545 387.024 67.5545 387.644C66.5545 388.264 65.4345 388.574 64.1945 388.574C62.6945 388.574 61.4245 388.224 60.3845 387.524C59.3445 386.824 58.5645 385.904 58.0445 384.764C57.5445 383.624 57.2945 382.394 57.2945 381.074C57.2945 379.374 57.6545 377.554 58.3745 375.614C59.0945 373.654 60.1445 371.864 61.5245 370.244C62.9045 368.604 64.5445 367.424 66.4445 366.704C66.6045 366.664 66.7345 366.644 66.8345 366.644C67.0945 366.644 67.3145 366.724 67.4945 366.884C67.6745 367.044 67.7645 367.274 67.7645 367.574C67.7645 367.994 67.5245 368.284 67.0445 368.444C65.4445 369.104 63.9345 370.274 62.5145 371.954C61.1145 373.614 60.1545 375.384 59.6345 377.264C60.2345 376.564 60.9545 376.014 61.7945 375.614C62.6545 375.194 63.5745 374.984 64.5545 374.984ZM64.1345 386.834C65.5345 386.834 66.6845 386.374 67.5845 385.454C68.4845 384.514 68.9345 383.314 68.9345 381.854C68.9345 380.954 68.7445 380.114 68.3645 379.334C68.0045 378.554 67.4745 377.924 66.7745 377.444C66.0745 376.964 65.2445 376.724 64.2845 376.724C63.2445 376.724 62.3345 376.964 61.5545 377.444C60.7745 377.904 60.1745 378.534 59.7545 379.334C59.3345 380.114 59.1245 380.984 59.1245 381.944C59.1245 382.824 59.3245 383.634 59.7245 384.374C60.1245 385.114 60.7045 385.714 61.4645 386.174C62.2245 386.614 63.1145 386.834 64.1345 386.834Z" fill="black"/>
<path d="M46.7127 320.935C45.1327 320.935 43.8027 320.465 42.7227 319.525C41.6427 318.585 40.8227 317.305 40.2627 315.685C39.7227 314.045 39.4527 312.195 39.4527 310.135C39.4527 308.055 39.7227 306.205 40.2627 304.585C40.8027 302.965 41.6127 301.685 42.6927 300.745C43.7927 299.805 45.1327 299.335 46.7127 299.335C48.2927 299.335 49.6227 299.805 50.7027 300.745C51.8027 301.665 52.6227 302.945 53.1627 304.585C53.7227 306.205 54.0027 308.055 54.0027 310.135C54.0027 312.195 53.7227 314.045 53.1627 315.685C52.6227 317.305 51.8027 318.585 50.7027 319.525C49.6227 320.465 48.2927 320.935 46.7127 320.935ZM46.7127 319.075C48.4327 319.075 49.7527 318.275 50.6727 316.675C51.6127 315.055 52.0827 312.875 52.0827 310.135C52.0827 307.375 51.6127 305.195 50.6727 303.595C49.7527 301.975 48.4327 301.165 46.7127 301.165C45.0127 301.165 43.6927 301.975 42.7527 303.595C41.8327 305.195 41.3727 307.375 41.3727 310.135C41.3727 312.875 41.8327 315.055 42.7527 316.675C43.6927 318.275 45.0127 319.075 46.7127 319.075ZM63.2345 306.685C64.5145 306.685 65.6645 306.975 66.6845 307.555C67.7245 308.115 68.5345 308.915 69.1145 309.955C69.7145 310.975 70.0145 312.125 70.0145 313.405C70.0145 314.805 69.6845 316.065 69.0245 317.185C68.3845 318.285 67.4845 319.145 66.3245 319.765C65.1645 320.385 63.8445 320.695 62.3645 320.695C61.5245 320.695 60.6845 320.555 59.8445 320.275C59.0245 319.995 58.3045 319.595 57.6845 319.075C57.5645 318.995 57.4645 318.885 57.3845 318.745C57.3245 318.585 57.2945 318.435 57.2945 318.295C57.2945 318.095 57.3745 317.905 57.5345 317.725C57.7145 317.525 57.9245 317.425 58.1645 317.425C58.3845 317.425 58.6045 317.515 58.8245 317.695C59.3445 318.095 59.9045 318.405 60.5045 318.625C61.1245 318.845 61.7445 318.955 62.3645 318.955C63.5045 318.955 64.5145 318.725 65.3945 318.265C66.2945 317.805 66.9845 317.155 67.4645 316.315C67.9645 315.475 68.2145 314.525 68.2145 313.465C68.2145 311.945 67.7245 310.725 66.7445 309.805C65.7645 308.865 64.4545 308.395 62.8145 308.395C62.1945 308.395 61.6145 308.485 61.0745 308.665C60.5545 308.845 59.9645 309.085 59.3045 309.385C58.8245 309.625 58.5145 309.745 58.3745 309.745C58.0745 309.745 57.8245 309.655 57.6245 309.475C57.4445 309.275 57.3545 309.045 57.3545 308.785C57.3545 308.685 57.3645 308.605 57.3845 308.545L58.6745 300.385C58.7145 300.185 58.8145 300.015 58.9745 299.875C59.1545 299.715 59.3645 299.635 59.6045 299.635H68.6345C68.8745 299.635 69.0745 299.725 69.2345 299.905C69.4145 300.065 69.5045 300.275 69.5045 300.535C69.5045 300.775 69.4145 300.985 69.2345 301.165C69.0745 301.325 68.8745 301.405 68.6345 301.405H60.2345L59.2145 307.615C59.7345 307.355 60.3445 307.135 61.0445 306.955C61.7645 306.775 62.4945 306.685 63.2345 306.685Z" fill="black"/>
</svg>
