<svg width="153" height="433" viewBox="0 0 153 433" fill="none" xmlns="http://www.w3.org/2000/svg">
<path d="M27.1447 258.94C22.4047 258.94 18.4147 257.53 15.1747 254.71C11.9347 251.89 9.47473 248.05 7.79473 243.19C6.17473 238.27 5.36473 232.72 5.36473 226.54C5.36473 220.3 6.17473 214.75 7.79473 209.89C9.41473 205.03 11.8447 201.19 15.0847 198.37C18.3847 195.55 22.4047 194.14 27.1447 194.14C31.8847 194.14 35.8747 195.55 39.1147 198.37C42.4147 201.13 44.8747 204.97 46.4947 209.89C48.1747 214.75 49.0147 220.3 49.0147 226.54C49.0147 232.72 48.1747 238.27 46.4947 243.19C44.8747 248.05 42.4147 251.89 39.1147 254.71C35.8747 257.53 31.8847 258.94 27.1447 258.94ZM27.1447 253.36C32.3047 253.36 36.2647 250.96 39.0247 246.16C41.8447 241.3 43.2547 234.76 43.2547 226.54C43.2547 218.26 41.8447 211.72 39.0247 206.92C36.2647 202.06 32.3047 199.63 27.1447 199.63C22.0447 199.63 18.0847 202.06 15.2647 206.92C12.5047 211.72 11.1247 218.26 11.1247 226.54C11.1247 234.76 12.5047 241.3 15.2647 246.16C18.0847 250.96 22.0447 253.36 27.1447 253.36ZM97.5901 233.56C98.3101 233.56 98.9101 233.8 99.3901 234.28C99.9301 234.76 100.2 235.36 100.2 236.08C100.2 236.8 99.9301 237.4 99.3901 237.88C98.9101 238.36 98.3101 238.6 97.5901 238.6H91.5601V255.34C91.5601 256.12 91.2901 256.78 90.7501 257.32C90.2101 257.8 89.5501 258.04 88.7701 258.04C87.9901 258.04 87.3601 257.8 86.8801 257.32C86.4001 256.78 86.1601 256.12 86.1601 255.34V238.6H59.7001C58.9801 238.6 58.3501 238.33 57.8101 237.79C57.2701 237.19 57.0001 236.53 57.0001 235.81C57.0001 235.09 57.2101 234.49 57.6301 234.01L86.6101 196.12C87.0901 195.4 87.8401 195.04 88.8601 195.04C89.6401 195.04 90.2701 195.31 90.7501 195.85C91.2901 196.33 91.5601 196.96 91.5601 197.74V233.56H97.5901ZM86.1601 233.56V204.76L64.3801 233.56H86.1601Z" fill="black"/>
<path d="M52.6559 30.3C51.0759 30.3 49.7458 29.83 48.6658 28.89C47.5858 27.95 46.7658 26.67 46.2058 25.05C45.6658 23.41 45.3958 21.56 45.3958 19.5C45.3958 17.42 45.6658 15.57 46.2058 13.95C46.7458 12.33 47.5558 11.05 48.6358 10.11C49.7358 9.17 51.0759 8.7 52.6559 8.7C54.2359 8.7 55.5659 9.17 56.6458 10.11C57.7458 11.03 58.5659 12.31 59.1059 13.95C59.6659 15.57 59.9459 17.42 59.9459 19.5C59.9459 21.56 59.6659 23.41 59.1059 25.05C58.5659 26.67 57.7458 27.95 56.6458 28.89C55.5659 29.83 54.2359 30.3 52.6559 30.3ZM52.6559 28.44C54.3759 28.44 55.6959 27.64 56.6159 26.04C57.5559 24.42 58.0258 22.24 58.0258 19.5C58.0258 16.74 57.5559 14.56 56.6159 12.96C55.6959 11.34 54.3759 10.53 52.6559 10.53C50.9559 10.53 49.6358 11.34 48.6958 12.96C47.7758 14.56 47.3158 16.74 47.3158 19.5C47.3158 22.24 47.7758 24.42 48.6958 26.04C49.6358 27.64 50.9559 28.44 52.6559 28.44ZM68.0076 9C68.2276 9.02 68.4076 9.12 68.5476 9.3C68.7076 9.46 68.7876 9.66 68.7876 9.9V29.1C68.7876 29.36 68.6876 29.58 68.4876 29.76C68.3076 29.92 68.0776 30 67.7976 30C67.5376 30 67.3176 29.92 67.1376 29.76C66.9576 29.58 66.8676 29.36 66.8676 29.1V11.55L63.1176 13.77C62.9776 13.85 62.8376 13.89 62.6976 13.89C62.4376 13.89 62.2076 13.79 62.0076 13.59C61.8276 13.39 61.7376 13.17 61.7376 12.93C61.7376 12.79 61.7776 12.65 61.8576 12.51C61.9576 12.37 62.0776 12.26 62.2176 12.18L67.2876 9.12C67.4876 9 67.7276 8.96 68.0076 9Z" fill="black"/>
<path d="M52.6559 97.9387C51.0759 97.9387 49.7458 97.4687 48.6658 96.5287C47.5858 95.5887 46.7658 94.3087 46.2058 92.6887C45.6658 91.0487 45.3958 89.1987 45.3958 87.1387C45.3958 85.0587 45.6658 83.2087 46.2058 81.5887C46.7458 79.9687 47.5558 78.6887 48.6358 77.7487C49.7358 76.8087 51.0759 76.3387 52.6559 76.3387C54.2359 76.3387 55.5659 76.8087 56.6458 77.7487C57.7458 78.6687 58.5659 79.9487 59.1059 81.5887C59.6659 83.2087 59.9459 85.0587 59.9459 87.1387C59.9459 89.1987 59.6659 91.0487 59.1059 92.6887C58.5659 94.3087 57.7458 95.5887 56.6458 96.5287C55.5659 97.4687 54.2359 97.9387 52.6559 97.9387ZM52.6559 96.0787C54.3759 96.0787 55.6959 95.2787 56.6159 93.6787C57.5559 92.0587 58.0258 89.8787 58.0258 87.1387C58.0258 84.3787 57.5559 82.1987 56.6159 80.5987C55.6959 78.9787 54.3759 78.1687 52.6559 78.1687C50.9559 78.1687 49.6358 78.9787 48.6958 80.5987C47.7758 82.1987 47.3158 84.3787 47.3158 87.1387C47.3158 89.8787 47.7758 92.0587 48.6958 93.6787C49.6358 95.2787 50.9559 96.0787 52.6559 96.0787ZM76.3776 95.8987C76.6176 95.8987 76.8176 95.9887 76.9776 96.1687C77.1576 96.3287 77.2476 96.5287 77.2476 96.7687C77.2476 97.0287 77.1576 97.2387 76.9776 97.3987C76.8176 97.5587 76.6176 97.6387 76.3776 97.6387H65.1276C64.8476 97.6387 64.6176 97.5587 64.4376 97.3987C64.2576 97.2387 64.1676 97.0187 64.1676 96.7387C64.1676 96.5187 64.2476 96.3087 64.4076 96.1087L71.3376 88.4587C72.4576 87.2587 73.2876 86.1887 73.8276 85.2487C74.3676 84.2887 74.6376 83.3487 74.6376 82.4287C74.6376 81.0687 74.2276 79.9987 73.4076 79.2187C72.5876 78.4387 71.4476 78.0487 69.9876 78.0487C69.0076 78.0487 68.1276 78.2887 67.3476 78.7687C66.5876 79.2287 66.0176 79.9387 65.6376 80.8987C65.4176 81.2587 65.1576 81.4387 64.8576 81.4387C64.6376 81.4387 64.4276 81.3587 64.2276 81.1987C64.0276 81.0387 63.9276 80.8587 63.9276 80.6587C63.9276 80.5387 63.9676 80.3987 64.0476 80.2387C64.1276 80.0787 64.2276 79.9187 64.3476 79.7587C64.8676 78.6787 65.6476 77.8387 66.6876 77.2387C67.7276 76.6387 68.8676 76.3387 70.1076 76.3387C72.1276 76.3387 73.7076 76.8887 74.8476 77.9887C75.9876 79.0887 76.5576 80.5287 76.5576 82.3087C76.5576 83.4087 76.2576 84.5387 75.6576 85.6987C75.0576 86.8387 74.0676 88.1687 72.6876 89.6887L67.1676 95.8987H76.3776Z" fill="black"/>
<path d="M52.6559 166.634C51.0759 166.634 49.7458 166.164 48.6658 165.224C47.5858 164.284 46.7658 163.004 46.2058 161.384C45.6658 159.744 45.3958 157.894 45.3958 155.834C45.3958 153.754 45.6658 151.904 46.2058 150.284C46.7458 148.664 47.5558 147.384 48.6358 146.444C49.7358 145.504 51.0759 145.034 52.6559 145.034C54.2359 145.034 55.5659 145.504 56.6458 146.444C57.7458 147.364 58.5659 148.644 59.1059 150.284C59.6659 151.904 59.9459 153.754 59.9459 155.834C59.9459 157.894 59.6659 159.744 59.1059 161.384C58.5659 163.004 57.7458 164.284 56.6458 165.224C55.5659 166.164 54.2359 166.634 52.6559 166.634ZM52.6559 164.774C54.3759 164.774 55.6959 163.974 56.6159 162.374C57.5559 160.754 58.0258 158.574 58.0258 155.834C58.0258 153.074 57.5559 150.894 56.6159 149.294C55.6959 147.674 54.3759 146.864 52.6559 146.864C50.9559 146.864 49.6358 147.674 48.6958 149.294C47.7758 150.894 47.3158 153.074 47.3158 155.834C47.3158 158.574 47.7758 160.754 48.6958 162.374C49.6358 163.974 50.9559 164.774 52.6559 164.774ZM69.2076 153.044C70.3276 153.044 71.3676 153.304 72.3276 153.824C73.3076 154.344 74.0876 155.104 74.6676 156.104C75.2676 157.104 75.5676 158.284 75.5676 159.644C75.5676 161.004 75.2376 162.214 74.5776 163.274C73.9376 164.334 73.0576 165.164 71.9376 165.764C70.8176 166.344 69.5776 166.634 68.2176 166.634C67.3576 166.634 66.5276 166.494 65.7276 166.214C64.9276 165.934 64.2476 165.514 63.6876 164.954C63.4076 164.754 63.2676 164.514 63.2676 164.234C63.2676 163.994 63.3576 163.774 63.5376 163.574C63.7176 163.354 63.9276 163.244 64.1676 163.244C64.4076 163.244 64.6576 163.354 64.9176 163.574C65.7576 164.474 66.9176 164.924 68.3976 164.924C69.3576 164.924 70.2476 164.704 71.0676 164.264C71.8876 163.824 72.5376 163.204 73.0176 162.404C73.4976 161.604 73.7376 160.704 73.7376 159.704C73.7376 158.604 73.4876 157.684 72.9876 156.944C72.5076 156.204 71.8676 155.664 71.0676 155.324C70.2876 154.964 69.4576 154.784 68.5776 154.784C68.3376 154.784 68.0276 154.824 67.6476 154.904C67.2676 154.964 67.0276 154.994 66.9276 154.994C66.6876 154.994 66.4876 154.914 66.3276 154.754C66.1876 154.574 66.1176 154.354 66.1176 154.094C66.1176 153.834 66.2176 153.604 66.4176 153.404L72.1476 147.044H63.8076C63.5676 147.044 63.3576 146.964 63.1776 146.804C63.0176 146.644 62.9376 146.434 62.9376 146.174C62.9376 145.934 63.0176 145.734 63.1776 145.574C63.3576 145.414 63.5676 145.334 63.8076 145.334H73.8876C74.2076 145.334 74.4376 145.434 74.5776 145.634C74.7376 145.814 74.8176 146.024 74.8176 146.264C74.8176 146.504 74.7176 146.724 74.5176 146.924L69.0276 153.044H69.2076Z" fill="black"/>
<path d="M52.6559 388.574C51.0759 388.574 49.7458 388.104 48.6658 387.164C47.5858 386.224 46.7658 384.944 46.2058 383.324C45.6658 381.684 45.3958 379.834 45.3958 377.774C45.3958 375.694 45.6658 373.844 46.2058 372.224C46.7458 370.604 47.5558 369.324 48.6358 368.384C49.7358 367.444 51.0759 366.974 52.6559 366.974C54.2359 366.974 55.5659 367.444 56.6458 368.384C57.7458 369.304 58.5659 370.584 59.1059 372.224C59.6659 373.844 59.9459 375.694 59.9459 377.774C59.9459 379.834 59.6659 381.684 59.1059 383.324C58.5659 384.944 57.7458 386.224 56.6458 387.164C55.5659 388.104 54.2359 388.574 52.6559 388.574ZM52.6559 386.714C54.3759 386.714 55.6959 385.914 56.6159 384.314C57.5559 382.694 58.0258 380.514 58.0258 377.774C58.0258 375.014 57.5559 372.834 56.6159 371.234C55.6959 369.614 54.3759 368.804 52.6559 368.804C50.9559 368.804 49.6358 369.614 48.6958 371.234C47.7758 372.834 47.3158 375.014 47.3158 377.774C47.3158 380.514 47.7758 382.694 48.6958 384.314C49.6358 385.914 50.9559 386.714 52.6559 386.714ZM70.4976 374.984C71.6776 374.984 72.7376 375.304 73.6776 375.944C74.6376 376.584 75.3776 377.434 75.8976 378.494C76.4376 379.554 76.7076 380.674 76.7076 381.854C76.7076 383.034 76.4176 384.144 75.8376 385.184C75.2776 386.204 74.4976 387.024 73.4976 387.644C72.4976 388.264 71.3776 388.574 70.1376 388.574C68.6376 388.574 67.3676 388.224 66.3276 387.524C65.2876 386.824 64.5076 385.904 63.9876 384.764C63.4876 383.624 63.2376 382.394 63.2376 381.074C63.2376 379.374 63.5976 377.554 64.3176 375.614C65.0376 373.654 66.0876 371.864 67.4676 370.244C68.8476 368.604 70.4876 367.424 72.3876 366.704C72.5476 366.664 72.6776 366.644 72.7776 366.644C73.0376 366.644 73.2576 366.724 73.4376 366.884C73.6176 367.044 73.7076 367.274 73.7076 367.574C73.7076 367.994 73.4676 368.284 72.9876 368.444C71.3876 369.104 69.8776 370.274 68.4576 371.954C67.0576 373.614 66.0976 375.384 65.5776 377.264C66.1776 376.564 66.8976 376.014 67.7376 375.614C68.5976 375.194 69.5176 374.984 70.4976 374.984ZM70.0776 386.834C71.4776 386.834 72.6276 386.374 73.5276 385.454C74.4276 384.514 74.8776 383.314 74.8776 381.854C74.8776 380.954 74.6876 380.114 74.3076 379.334C73.9476 378.554 73.4176 377.924 72.7176 377.444C72.0176 376.964 71.1876 376.724 70.2276 376.724C69.1876 376.724 68.2776 376.964 67.4976 377.444C66.7176 377.904 66.1176 378.534 65.6976 379.334C65.2776 380.114 65.0676 380.984 65.0676 381.944C65.0676 382.824 65.2676 383.634 65.6676 384.374C66.0676 385.114 66.6476 385.714 67.4076 386.174C68.1676 386.614 69.0576 386.834 70.0776 386.834Z" fill="black"/>
<path d="M52.6559 320.935C51.0759 320.935 49.7458 320.465 48.6658 319.525C47.5858 318.585 46.7658 317.305 46.2058 315.685C45.6658 314.045 45.3958 312.195 45.3958 310.135C45.3958 308.055 45.6658 306.205 46.2058 304.585C46.7458 302.965 47.5558 301.685 48.6358 300.745C49.7358 299.805 51.0759 299.335 52.6559 299.335C54.2359 299.335 55.5659 299.805 56.6458 300.745C57.7458 301.665 58.5659 302.945 59.1059 304.585C59.6659 306.205 59.9459 308.055 59.9459 310.135C59.9459 312.195 59.6659 314.045 59.1059 315.685C58.5659 317.305 57.7458 318.585 56.6458 319.525C55.5659 320.465 54.2359 320.935 52.6559 320.935ZM52.6559 319.075C54.3759 319.075 55.6959 318.275 56.6159 316.675C57.5559 315.055 58.0258 312.875 58.0258 310.135C58.0258 307.375 57.5559 305.195 56.6159 303.595C55.6959 301.975 54.3759 301.165 52.6559 301.165C50.9559 301.165 49.6358 301.975 48.6958 303.595C47.7758 305.195 47.3158 307.375 47.3158 310.135C47.3158 312.875 47.7758 315.055 48.6958 316.675C49.6358 318.275 50.9559 319.075 52.6559 319.075ZM69.1776 306.685C70.4576 306.685 71.6076 306.975 72.6276 307.555C73.6676 308.115 74.4776 308.915 75.0576 309.955C75.6576 310.975 75.9576 312.125 75.9576 313.405C75.9576 314.805 75.6276 316.065 74.9676 317.185C74.3276 318.285 73.4276 319.145 72.2676 319.765C71.1076 320.385 69.7876 320.695 68.3076 320.695C67.4676 320.695 66.6276 320.555 65.7876 320.275C64.9676 319.995 64.2476 319.595 63.6276 319.075C63.5076 318.995 63.4076 318.885 63.3276 318.745C63.2676 318.585 63.2376 318.435 63.2376 318.295C63.2376 318.095 63.3176 317.905 63.4776 317.725C63.6576 317.525 63.8676 317.425 64.1076 317.425C64.3276 317.425 64.5476 317.515 64.7676 317.695C65.2876 318.095 65.8476 318.405 66.4476 318.625C67.0676 318.845 67.6876 318.955 68.3076 318.955C69.4476 318.955 70.4576 318.725 71.3376 318.265C72.2376 317.805 72.9276 317.155 73.4076 316.315C73.9076 315.475 74.1576 314.525 74.1576 313.465C74.1576 311.945 73.6676 310.725 72.6876 309.805C71.7076 308.865 70.3976 308.395 68.7576 308.395C68.1376 308.395 67.5576 308.485 67.0176 308.665C66.4976 308.845 65.9076 309.085 65.2476 309.385C64.7676 309.625 64.4576 309.745 64.3176 309.745C64.0176 309.745 63.7676 309.655 63.5676 309.475C63.3876 309.275 63.2976 309.045 63.2976 308.785C63.2976 308.685 63.3076 308.605 63.3276 308.545L64.6176 300.385C64.6576 300.185 64.7576 300.015 64.9176 299.875C65.0976 299.715 65.3076 299.635 65.5476 299.635H74.5776C74.8176 299.635 75.0176 299.725 75.1776 299.905C75.3576 300.065 75.4476 300.275 75.4476 300.535C75.4476 300.775 75.3576 300.985 75.1776 301.165C75.0176 301.325 74.8176 301.405 74.5776 301.405H66.1776L65.1576 307.615C65.6776 307.355 66.2876 307.135 66.9876 306.955C67.7076 306.775 68.4376 306.685 69.1776 306.685Z" fill="black"/>
</svg>
