<svg width="153" height="433" viewBox="0 0 153 433" fill="none" xmlns="http://www.w3.org/2000/svg">
<path d="M27.4859 326.579C22.7459 326.579 18.7559 325.169 15.5159 322.349C12.2759 319.529 9.81586 315.689 8.13586 310.829C6.51586 305.909 5.70586 300.359 5.70586 294.179C5.70586 287.939 6.51586 282.389 8.13586 277.529C9.75586 272.669 12.1859 268.829 15.4259 266.009C18.7259 263.189 22.7459 261.779 27.4859 261.779C32.2259 261.779 36.2159 263.189 39.4559 266.009C42.7559 268.769 45.2159 272.609 46.8359 277.529C48.5159 282.389 49.3559 287.939 49.3559 294.179C49.3559 300.359 48.5159 305.909 46.8359 310.829C45.2159 315.689 42.7559 319.529 39.4559 322.349C36.2159 325.169 32.2259 326.579 27.4859 326.579ZM27.4859 320.999C32.6459 320.999 36.6059 318.599 39.3659 313.799C42.1859 308.939 43.5959 302.399 43.5959 294.179C43.5959 285.899 42.1859 279.359 39.3659 274.559C36.6059 269.699 32.6459 267.269 27.4859 267.269C22.3859 267.269 18.4259 269.699 15.6059 274.559C12.8459 279.359 11.4659 285.899 11.4659 294.179C11.4659 302.399 12.8459 308.939 15.6059 313.799C18.4259 318.599 22.3859 320.999 27.4859 320.999ZM77.0513 283.829C80.8913 283.829 84.3413 284.699 87.4013 286.439C90.5213 288.119 92.9513 290.519 94.6913 293.639C96.4913 296.699 97.3913 300.149 97.3913 303.989C97.3913 308.189 96.4013 311.969 94.4213 315.329C92.5013 318.629 89.8013 321.209 86.3213 323.069C82.8413 324.929 78.8813 325.859 74.4413 325.859C71.9213 325.859 69.4013 325.439 66.8813 324.599C64.4213 323.759 62.2613 322.559 60.4013 320.999C60.0413 320.759 59.7413 320.429 59.5013 320.009C59.3213 319.529 59.2313 319.079 59.2313 318.659C59.2313 318.059 59.4713 317.489 59.9513 316.949C60.4913 316.349 61.1213 316.049 61.8413 316.049C62.5013 316.049 63.1613 316.319 63.8213 316.859C65.3813 318.059 67.0612 318.989 68.8613 319.649C70.7213 320.309 72.5813 320.639 74.4413 320.639C77.8613 320.639 80.8913 319.949 83.5313 318.569C86.2313 317.189 88.3013 315.239 89.7413 312.719C91.2413 310.199 91.9913 307.349 91.9913 304.169C91.9913 299.609 90.5213 295.949 87.5813 293.189C84.6413 290.369 80.7113 288.959 75.7913 288.959C73.9313 288.959 72.1913 289.229 70.5713 289.769C69.0113 290.309 67.2413 291.029 65.2613 291.929C63.8213 292.649 62.8913 293.009 62.4713 293.009C61.5713 293.009 60.8213 292.739 60.2212 292.199C59.6813 291.599 59.4113 290.909 59.4113 290.129C59.4113 289.829 59.4413 289.589 59.5013 289.409L63.3713 264.929C63.4913 264.329 63.7913 263.819 64.2713 263.399C64.8113 262.919 65.4413 262.679 66.1612 262.679H93.2513C93.9713 262.679 94.5713 262.949 95.0513 263.489C95.5913 263.969 95.8613 264.599 95.8613 265.379C95.8613 266.099 95.5913 266.729 95.0513 267.269C94.5713 267.749 93.9713 267.989 93.2513 267.989H68.0513L64.9913 286.619C66.5513 285.839 68.3813 285.179 70.4813 284.639C72.6413 284.099 74.8313 283.829 77.0513 283.829Z" fill="black"/>
<path d="M46.6559 30.3C45.0759 30.3 43.7458 29.83 42.6658 28.89C41.5858 27.95 40.7658 26.67 40.2058 25.05C39.6658 23.41 39.3958 21.56 39.3958 19.5C39.3958 17.42 39.6658 15.57 40.2058 13.95C40.7458 12.33 41.5558 11.05 42.6358 10.11C43.7358 9.17 45.0759 8.7 46.6559 8.7C48.2359 8.7 49.5659 9.17 50.6458 10.11C51.7458 11.03 52.5659 12.31 53.1059 13.95C53.6659 15.57 53.9459 17.42 53.9459 19.5C53.9459 21.56 53.6659 23.41 53.1059 25.05C52.5659 26.67 51.7458 27.95 50.6458 28.89C49.5659 29.83 48.2359 30.3 46.6559 30.3ZM46.6559 28.44C48.3759 28.44 49.6959 27.64 50.6159 26.04C51.5559 24.42 52.0258 22.24 52.0258 19.5C52.0258 16.74 51.5559 14.56 50.6159 12.96C49.6959 11.34 48.3759 10.53 46.6559 10.53C44.9559 10.53 43.6358 11.34 42.6958 12.96C41.7758 14.56 41.3158 16.74 41.3158 19.5C41.3158 22.24 41.7758 24.42 42.6958 26.04C43.6358 27.64 44.9559 28.44 46.6559 28.44ZM62.0076 9C62.2276 9.02 62.4076 9.12 62.5476 9.3C62.7076 9.46 62.7876 9.66 62.7876 9.9V29.1C62.7876 29.36 62.6876 29.58 62.4876 29.76C62.3076 29.92 62.0776 30 61.7976 30C61.5376 30 61.3176 29.92 61.1376 29.76C60.9576 29.58 60.8676 29.36 60.8676 29.1V11.55L57.1176 13.77C56.9776 13.85 56.8376 13.89 56.6976 13.89C56.4376 13.89 56.2076 13.79 56.0076 13.59C55.8276 13.39 55.7376 13.17 55.7376 12.93C55.7376 12.79 55.7776 12.65 55.8576 12.51C55.9576 12.37 56.0776 12.26 56.2176 12.18L61.2876 9.12C61.4876 9 61.7276 8.96 62.0076 9Z" fill="black"/>
<path d="M46.6559 97.9387C45.0759 97.9387 43.7458 97.4687 42.6658 96.5287C41.5858 95.5887 40.7658 94.3087 40.2058 92.6887C39.6658 91.0487 39.3958 89.1987 39.3958 87.1387C39.3958 85.0587 39.6658 83.2087 40.2058 81.5887C40.7458 79.9687 41.5558 78.6887 42.6358 77.7487C43.7358 76.8087 45.0759 76.3387 46.6559 76.3387C48.2359 76.3387 49.5659 76.8087 50.6458 77.7487C51.7458 78.6687 52.5659 79.9487 53.1059 81.5887C53.6659 83.2087 53.9459 85.0587 53.9459 87.1387C53.9459 89.1987 53.6659 91.0487 53.1059 92.6887C52.5659 94.3087 51.7458 95.5887 50.6458 96.5287C49.5659 97.4687 48.2359 97.9387 46.6559 97.9387ZM46.6559 96.0787C48.3759 96.0787 49.6959 95.2787 50.6159 93.6787C51.5559 92.0587 52.0258 89.8787 52.0258 87.1387C52.0258 84.3787 51.5559 82.1987 50.6159 80.5987C49.6959 78.9787 48.3759 78.1687 46.6559 78.1687C44.9559 78.1687 43.6358 78.9787 42.6958 80.5987C41.7758 82.1987 41.3158 84.3787 41.3158 87.1387C41.3158 89.8787 41.7758 92.0587 42.6958 93.6787C43.6358 95.2787 44.9559 96.0787 46.6559 96.0787ZM70.3776 95.8987C70.6176 95.8987 70.8176 95.9887 70.9776 96.1687C71.1576 96.3287 71.2476 96.5287 71.2476 96.7687C71.2476 97.0287 71.1576 97.2387 70.9776 97.3987C70.8176 97.5587 70.6176 97.6387 70.3776 97.6387H59.1276C58.8476 97.6387 58.6176 97.5587 58.4376 97.3987C58.2576 97.2387 58.1676 97.0187 58.1676 96.7387C58.1676 96.5187 58.2476 96.3087 58.4076 96.1087L65.3376 88.4587C66.4576 87.2587 67.2876 86.1887 67.8276 85.2487C68.3676 84.2887 68.6376 83.3487 68.6376 82.4287C68.6376 81.0687 68.2276 79.9987 67.4076 79.2187C66.5876 78.4387 65.4476 78.0487 63.9876 78.0487C63.0076 78.0487 62.1276 78.2887 61.3476 78.7687C60.5876 79.2287 60.0176 79.9387 59.6376 80.8987C59.4176 81.2587 59.1576 81.4387 58.8576 81.4387C58.6376 81.4387 58.4276 81.3587 58.2276 81.1987C58.0276 81.0387 57.9276 80.8587 57.9276 80.6587C57.9276 80.5387 57.9676 80.3987 58.0476 80.2387C58.1276 80.0787 58.2276 79.9187 58.3476 79.7587C58.8676 78.6787 59.6476 77.8387 60.6876 77.2387C61.7276 76.6387 62.8676 76.3387 64.1076 76.3387C66.1276 76.3387 67.7076 76.8887 68.8476 77.9887C69.9876 79.0887 70.5576 80.5287 70.5576 82.3087C70.5576 83.4087 70.2576 84.5387 69.6576 85.6987C69.0576 86.8387 68.0676 88.1687 66.6876 89.6887L61.1676 95.8987H70.3776Z" fill="black"/>
<path d="M46.6559 166.634C45.0759 166.634 43.7458 166.164 42.6658 165.224C41.5858 164.284 40.7658 163.004 40.2058 161.384C39.6658 159.744 39.3958 157.894 39.3958 155.834C39.3958 153.754 39.6658 151.904 40.2058 150.284C40.7458 148.664 41.5558 147.384 42.6358 146.444C43.7358 145.504 45.0759 145.034 46.6559 145.034C48.2359 145.034 49.5659 145.504 50.6458 146.444C51.7458 147.364 52.5659 148.644 53.1059 150.284C53.6659 151.904 53.9459 153.754 53.9459 155.834C53.9459 157.894 53.6659 159.744 53.1059 161.384C52.5659 163.004 51.7458 164.284 50.6458 165.224C49.5659 166.164 48.2359 166.634 46.6559 166.634ZM46.6559 164.774C48.3759 164.774 49.6959 163.974 50.6159 162.374C51.5559 160.754 52.0258 158.574 52.0258 155.834C52.0258 153.074 51.5559 150.894 50.6159 149.294C49.6959 147.674 48.3759 146.864 46.6559 146.864C44.9559 146.864 43.6358 147.674 42.6958 149.294C41.7758 150.894 41.3158 153.074 41.3158 155.834C41.3158 158.574 41.7758 160.754 42.6958 162.374C43.6358 163.974 44.9559 164.774 46.6559 164.774ZM63.2076 153.044C64.3276 153.044 65.3676 153.304 66.3276 153.824C67.3076 154.344 68.0876 155.104 68.6676 156.104C69.2676 157.104 69.5676 158.284 69.5676 159.644C69.5676 161.004 69.2376 162.214 68.5776 163.274C67.9376 164.334 67.0576 165.164 65.9376 165.764C64.8176 166.344 63.5776 166.634 62.2176 166.634C61.3576 166.634 60.5276 166.494 59.7276 166.214C58.9276 165.934 58.2476 165.514 57.6876 164.954C57.4076 164.754 57.2676 164.514 57.2676 164.234C57.2676 163.994 57.3576 163.774 57.5376 163.574C57.7176 163.354 57.9276 163.244 58.1676 163.244C58.4076 163.244 58.6576 163.354 58.9176 163.574C59.7576 164.474 60.9176 164.924 62.3976 164.924C63.3576 164.924 64.2476 164.704 65.0676 164.264C65.8876 163.824 66.5376 163.204 67.0176 162.404C67.4976 161.604 67.7376 160.704 67.7376 159.704C67.7376 158.604 67.4876 157.684 66.9876 156.944C66.5076 156.204 65.8676 155.664 65.0676 155.324C64.2876 154.964 63.4576 154.784 62.5776 154.784C62.3376 154.784 62.0276 154.824 61.6476 154.904C61.2676 154.964 61.0276 154.994 60.9276 154.994C60.6876 154.994 60.4876 154.914 60.3276 154.754C60.1876 154.574 60.1176 154.354 60.1176 154.094C60.1176 153.834 60.2176 153.604 60.4176 153.404L66.1476 147.044H57.8076C57.5676 147.044 57.3576 146.964 57.1776 146.804C57.0176 146.644 56.9376 146.434 56.9376 146.174C56.9376 145.934 57.0176 145.734 57.1776 145.574C57.3576 145.414 57.5676 145.334 57.8076 145.334H67.8876C68.2076 145.334 68.4376 145.434 68.5776 145.634C68.7376 145.814 68.8176 146.024 68.8176 146.264C68.8176 146.504 68.7176 146.724 68.5176 146.924L63.0276 153.044H63.2076Z" fill="black"/>
<path d="M46.6559 388.574C45.0759 388.574 43.7458 388.104 42.6658 387.164C41.5858 386.224 40.7658 384.944 40.2058 383.324C39.6658 381.684 39.3958 379.834 39.3958 377.774C39.3958 375.694 39.6658 373.844 40.2058 372.224C40.7458 370.604 41.5558 369.324 42.6358 368.384C43.7358 367.444 45.0759 366.974 46.6559 366.974C48.2359 366.974 49.5659 367.444 50.6458 368.384C51.7458 369.304 52.5659 370.584 53.1059 372.224C53.6659 373.844 53.9459 375.694 53.9459 377.774C53.9459 379.834 53.6659 381.684 53.1059 383.324C52.5659 384.944 51.7458 386.224 50.6458 387.164C49.5659 388.104 48.2359 388.574 46.6559 388.574ZM46.6559 386.714C48.3759 386.714 49.6959 385.914 50.6159 384.314C51.5559 382.694 52.0258 380.514 52.0258 377.774C52.0258 375.014 51.5559 372.834 50.6159 371.234C49.6959 369.614 48.3759 368.804 46.6559 368.804C44.9559 368.804 43.6358 369.614 42.6958 371.234C41.7758 372.834 41.3158 375.014 41.3158 377.774C41.3158 380.514 41.7758 382.694 42.6958 384.314C43.6358 385.914 44.9559 386.714 46.6559 386.714ZM64.4976 374.984C65.6776 374.984 66.7376 375.304 67.6776 375.944C68.6376 376.584 69.3776 377.434 69.8976 378.494C70.4376 379.554 70.7076 380.674 70.7076 381.854C70.7076 383.034 70.4176 384.144 69.8376 385.184C69.2776 386.204 68.4976 387.024 67.4976 387.644C66.4976 388.264 65.3776 388.574 64.1376 388.574C62.6376 388.574 61.3676 388.224 60.3276 387.524C59.2876 386.824 58.5076 385.904 57.9876 384.764C57.4876 383.624 57.2376 382.394 57.2376 381.074C57.2376 379.374 57.5976 377.554 58.3176 375.614C59.0376 373.654 60.0876 371.864 61.4676 370.244C62.8476 368.604 64.4876 367.424 66.3876 366.704C66.5476 366.664 66.6776 366.644 66.7776 366.644C67.0376 366.644 67.2576 366.724 67.4376 366.884C67.6176 367.044 67.7076 367.274 67.7076 367.574C67.7076 367.994 67.4676 368.284 66.9876 368.444C65.3876 369.104 63.8776 370.274 62.4576 371.954C61.0576 373.614 60.0976 375.384 59.5776 377.264C60.1776 376.564 60.8976 376.014 61.7376 375.614C62.5976 375.194 63.5176 374.984 64.4976 374.984ZM64.0776 386.834C65.4776 386.834 66.6276 386.374 67.5276 385.454C68.4276 384.514 68.8776 383.314 68.8776 381.854C68.8776 380.954 68.6876 380.114 68.3076 379.334C67.9476 378.554 67.4176 377.924 66.7176 377.444C66.0176 376.964 65.1876 376.724 64.2276 376.724C63.1876 376.724 62.2776 376.964 61.4976 377.444C60.7176 377.904 60.1176 378.534 59.6976 379.334C59.2776 380.114 59.0676 380.984 59.0676 381.944C59.0676 382.824 59.2676 383.634 59.6676 384.374C60.0676 385.114 60.6476 385.714 61.4076 386.174C62.1676 386.614 63.0576 386.834 64.0776 386.834Z" fill="black"/>
<path d="M46.6559 235.33C45.0759 235.33 43.7458 234.86 42.6658 233.92C41.5858 232.98 40.7658 231.7 40.2058 230.08C39.6658 228.44 39.3958 226.59 39.3958 224.53C39.3958 222.45 39.6658 220.6 40.2058 218.98C40.7458 217.36 41.5558 216.08 42.6358 215.14C43.7358 214.2 45.0759 213.73 46.6559 213.73C48.2359 213.73 49.5659 214.2 50.6458 215.14C51.7458 216.06 52.5659 217.34 53.1059 218.98C53.6659 220.6 53.9459 222.45 53.9459 224.53C53.9459 226.59 53.6659 228.44 53.1059 230.08C52.5659 231.7 51.7458 232.98 50.6458 233.92C49.5659 234.86 48.2359 235.33 46.6559 235.33ZM46.6559 233.47C48.3759 233.47 49.6959 232.67 50.6159 231.07C51.5559 229.45 52.0258 227.27 52.0258 224.53C52.0258 221.77 51.5559 219.59 50.6159 217.99C49.6959 216.37 48.3759 215.56 46.6559 215.56C44.9559 215.56 43.6358 216.37 42.6958 217.99C41.7758 219.59 41.3158 221.77 41.3158 224.53C41.3158 227.27 41.7758 229.45 42.6958 231.07C43.6358 232.67 44.9559 233.47 46.6559 233.47ZM70.1376 226.87C70.3776 226.87 70.5776 226.95 70.7376 227.11C70.9176 227.27 71.0076 227.47 71.0076 227.71C71.0076 227.95 70.9176 228.15 70.7376 228.31C70.5776 228.47 70.3776 228.55 70.1376 228.55H68.1276V234.13C68.1276 234.39 68.0376 234.61 67.8576 234.79C67.6776 234.95 67.4576 235.03 67.1976 235.03C66.9376 235.03 66.7276 234.95 66.5676 234.79C66.4076 234.61 66.3276 234.39 66.3276 234.13V228.55H57.5076C57.2676 228.55 57.0576 228.46 56.8776 228.28C56.6976 228.08 56.6076 227.86 56.6076 227.62C56.6076 227.38 56.6776 227.18 56.8176 227.02L66.4776 214.39C66.6376 214.15 66.8876 214.03 67.2276 214.03C67.4876 214.03 67.6976 214.12 67.8576 214.3C68.0376 214.46 68.1276 214.67 68.1276 214.93V226.87H70.1376ZM66.3276 226.87V217.27L59.0676 226.87H66.3276Z" fill="black"/>
</svg>
