<svg width="153" height="390" viewBox="0 0 153 390" fill="none" xmlns="http://www.w3.org/2000/svg">
<path d="M27.3153 389.99C22.5753 389.99 18.5853 388.58 15.3453 385.76C12.1053 382.94 9.64527 379.1 7.96527 374.24C6.34527 369.32 5.53527 363.77 5.53527 357.59C5.53527 351.35 6.34527 345.8 7.96527 340.94C9.58527 336.08 12.0153 332.24 15.2553 329.42C18.5553 326.6 22.5753 325.19 27.3153 325.19C32.0553 325.19 36.0453 326.6 39.2853 329.42C42.5853 332.18 45.0453 336.02 46.6653 340.94C48.3453 345.8 49.1853 351.35 49.1853 357.59C49.1853 363.77 48.3453 369.32 46.6653 374.24C45.0453 379.1 42.5853 382.94 39.2853 385.76C36.0453 388.58 32.0553 389.99 27.3153 389.99ZM27.3153 384.41C32.4753 384.41 36.4353 382.01 39.1953 377.21C42.0153 372.35 43.4253 365.81 43.4253 357.59C43.4253 349.31 42.0153 342.77 39.1953 337.97C36.4353 333.11 32.4753 330.68 27.3153 330.68C22.2153 330.68 18.2553 333.11 15.4353 337.97C12.6753 342.77 11.2953 349.31 11.2953 357.59C11.2953 365.81 12.6753 372.35 15.4353 377.21C18.2553 382.01 22.2153 384.41 27.3153 384.41ZM80.8407 349.22C84.3807 349.22 87.5607 350.18 90.3807 352.1C93.2607 354.02 95.4807 356.57 97.0407 359.75C98.6607 362.93 99.4707 366.29 99.4707 369.83C99.4707 373.37 98.6007 376.7 96.8607 379.82C95.1807 382.88 92.8407 385.34 89.8407 387.2C86.8407 389.06 83.4807 389.99 79.7607 389.99C75.2607 389.99 71.4507 388.94 68.3307 386.84C65.2107 384.74 62.8707 381.98 61.3107 378.56C59.8107 375.14 59.0607 371.45 59.0607 367.49C59.0607 362.39 60.1407 356.93 62.3007 351.11C64.4607 345.23 67.6107 339.86 71.7507 335C75.8907 330.08 80.8107 326.54 86.5107 324.38C86.9907 324.26 87.3807 324.2 87.6807 324.2C88.4607 324.2 89.1207 324.44 89.6607 324.92C90.2007 325.4 90.4707 326.09 90.4707 326.99C90.4707 328.25 89.7507 329.12 88.3107 329.6C83.5107 331.58 78.9807 335.09 74.7207 340.13C70.5207 345.11 67.6407 350.42 66.0807 356.06C67.8807 353.96 70.0407 352.31 72.5607 351.11C75.1407 349.85 77.9007 349.22 80.8407 349.22ZM79.5807 384.77C83.7807 384.77 87.2307 383.39 89.9307 380.63C92.6307 377.81 93.9807 374.21 93.9807 369.83C93.9807 367.13 93.4107 364.61 92.2707 362.27C91.1907 359.93 89.6007 358.04 87.5007 356.6C85.4007 355.16 82.9107 354.44 80.0307 354.44C76.9107 354.44 74.1807 355.16 71.8407 356.6C69.5007 357.98 67.7007 359.87 66.4407 362.27C65.1807 364.61 64.5507 367.22 64.5507 370.1C64.5507 372.74 65.1507 375.17 66.3507 377.39C67.5507 379.61 69.2907 381.41 71.5707 382.79C73.8507 384.11 76.5207 384.77 79.5807 384.77Z" fill="black"/>
<path d="M49.6559 30.3C48.0759 30.3 46.7458 29.83 45.6658 28.89C44.5858 27.95 43.7658 26.67 43.2058 25.05C42.6658 23.41 42.3958 21.56 42.3958 19.5C42.3958 17.42 42.6658 15.57 43.2058 13.95C43.7458 12.33 44.5558 11.05 45.6358 10.11C46.7358 9.17 48.0759 8.7 49.6559 8.7C51.2359 8.7 52.5659 9.17 53.6458 10.11C54.7458 11.03 55.5659 12.31 56.1059 13.95C56.6659 15.57 56.9459 17.42 56.9459 19.5C56.9459 21.56 56.6659 23.41 56.1059 25.05C55.5659 26.67 54.7458 27.95 53.6458 28.89C52.5659 29.83 51.2359 30.3 49.6559 30.3ZM49.6559 28.44C51.3759 28.44 52.6959 27.64 53.6159 26.04C54.5559 24.42 55.0258 22.24 55.0258 19.5C55.0258 16.74 54.5559 14.56 53.6159 12.96C52.6959 11.34 51.3759 10.53 49.6559 10.53C47.9559 10.53 46.6358 11.34 45.6958 12.96C44.7758 14.56 44.3158 16.74 44.3158 19.5C44.3158 22.24 44.7758 24.42 45.6958 26.04C46.6358 27.64 47.9559 28.44 49.6559 28.44ZM65.0076 9C65.2276 9.02 65.4076 9.12 65.5476 9.3C65.7076 9.46 65.7876 9.66 65.7876 9.9V29.1C65.7876 29.36 65.6876 29.58 65.4876 29.76C65.3076 29.92 65.0776 30 64.7976 30C64.5376 30 64.3176 29.92 64.1376 29.76C63.9576 29.58 63.8676 29.36 63.8676 29.1V11.55L60.1176 13.77C59.9776 13.85 59.8376 13.89 59.6976 13.89C59.4376 13.89 59.2076 13.79 59.0076 13.59C58.8276 13.39 58.7376 13.17 58.7376 12.93C58.7376 12.79 58.7776 12.65 58.8576 12.51C58.9576 12.37 59.0776 12.26 59.2176 12.18L64.2876 9.12C64.4876 9 64.7276 8.96 65.0076 9Z" fill="black"/>
<path d="M49.6559 97.9387C48.0759 97.9387 46.7458 97.4687 45.6658 96.5287C44.5858 95.5887 43.7658 94.3087 43.2058 92.6887C42.6658 91.0487 42.3958 89.1987 42.3958 87.1387C42.3958 85.0587 42.6658 83.2087 43.2058 81.5887C43.7458 79.9687 44.5558 78.6887 45.6358 77.7487C46.7358 76.8087 48.0759 76.3387 49.6559 76.3387C51.2359 76.3387 52.5659 76.8087 53.6458 77.7487C54.7458 78.6687 55.5659 79.9487 56.1059 81.5887C56.6659 83.2087 56.9459 85.0587 56.9459 87.1387C56.9459 89.1987 56.6659 91.0487 56.1059 92.6887C55.5659 94.3087 54.7458 95.5887 53.6458 96.5287C52.5659 97.4687 51.2359 97.9387 49.6559 97.9387ZM49.6559 96.0787C51.3759 96.0787 52.6959 95.2787 53.6159 93.6787C54.5559 92.0587 55.0258 89.8787 55.0258 87.1387C55.0258 84.3787 54.5559 82.1987 53.6159 80.5987C52.6959 78.9787 51.3759 78.1687 49.6559 78.1687C47.9559 78.1687 46.6358 78.9787 45.6958 80.5987C44.7758 82.1987 44.3158 84.3787 44.3158 87.1387C44.3158 89.8787 44.7758 92.0587 45.6958 93.6787C46.6358 95.2787 47.9559 96.0787 49.6559 96.0787ZM73.3776 95.8987C73.6176 95.8987 73.8176 95.9887 73.9776 96.1687C74.1576 96.3287 74.2476 96.5287 74.2476 96.7687C74.2476 97.0287 74.1576 97.2387 73.9776 97.3987C73.8176 97.5587 73.6176 97.6387 73.3776 97.6387H62.1276C61.8476 97.6387 61.6176 97.5587 61.4376 97.3987C61.2576 97.2387 61.1676 97.0187 61.1676 96.7387C61.1676 96.5187 61.2476 96.3087 61.4076 96.1087L68.3376 88.4587C69.4576 87.2587 70.2876 86.1887 70.8276 85.2487C71.3676 84.2887 71.6376 83.3487 71.6376 82.4287C71.6376 81.0687 71.2276 79.9987 70.4076 79.2187C69.5876 78.4387 68.4476 78.0487 66.9876 78.0487C66.0076 78.0487 65.1276 78.2887 64.3476 78.7687C63.5876 79.2287 63.0176 79.9387 62.6376 80.8987C62.4176 81.2587 62.1576 81.4387 61.8576 81.4387C61.6376 81.4387 61.4276 81.3587 61.2276 81.1987C61.0276 81.0387 60.9276 80.8587 60.9276 80.6587C60.9276 80.5387 60.9676 80.3987 61.0476 80.2387C61.1276 80.0787 61.2276 79.9187 61.3476 79.7587C61.8676 78.6787 62.6476 77.8387 63.6876 77.2387C64.7276 76.6387 65.8676 76.3387 67.1076 76.3387C69.1276 76.3387 70.7076 76.8887 71.8476 77.9887C72.9876 79.0887 73.5576 80.5287 73.5576 82.3087C73.5576 83.4087 73.2576 84.5387 72.6576 85.6987C72.0576 86.8387 71.0676 88.1687 69.6876 89.6887L64.1676 95.8987H73.3776Z" fill="black"/>
<path d="M49.6559 166.634C48.0759 166.634 46.7458 166.164 45.6658 165.224C44.5858 164.284 43.7658 163.004 43.2058 161.384C42.6658 159.744 42.3958 157.894 42.3958 155.834C42.3958 153.754 42.6658 151.904 43.2058 150.284C43.7458 148.664 44.5558 147.384 45.6358 146.444C46.7358 145.504 48.0759 145.034 49.6559 145.034C51.2359 145.034 52.5659 145.504 53.6458 146.444C54.7458 147.364 55.5659 148.644 56.1059 150.284C56.6659 151.904 56.9459 153.754 56.9459 155.834C56.9459 157.894 56.6659 159.744 56.1059 161.384C55.5659 163.004 54.7458 164.284 53.6458 165.224C52.5659 166.164 51.2359 166.634 49.6559 166.634ZM49.6559 164.774C51.3759 164.774 52.6959 163.974 53.6159 162.374C54.5559 160.754 55.0258 158.574 55.0258 155.834C55.0258 153.074 54.5559 150.894 53.6159 149.294C52.6959 147.674 51.3759 146.864 49.6559 146.864C47.9559 146.864 46.6358 147.674 45.6958 149.294C44.7758 150.894 44.3158 153.074 44.3158 155.834C44.3158 158.574 44.7758 160.754 45.6958 162.374C46.6358 163.974 47.9559 164.774 49.6559 164.774ZM66.2076 153.044C67.3276 153.044 68.3676 153.304 69.3276 153.824C70.3076 154.344 71.0876 155.104 71.6676 156.104C72.2676 157.104 72.5676 158.284 72.5676 159.644C72.5676 161.004 72.2376 162.214 71.5776 163.274C70.9376 164.334 70.0576 165.164 68.9376 165.764C67.8176 166.344 66.5776 166.634 65.2176 166.634C64.3576 166.634 63.5276 166.494 62.7276 166.214C61.9276 165.934 61.2476 165.514 60.6876 164.954C60.4076 164.754 60.2676 164.514 60.2676 164.234C60.2676 163.994 60.3576 163.774 60.5376 163.574C60.7176 163.354 60.9276 163.244 61.1676 163.244C61.4076 163.244 61.6576 163.354 61.9176 163.574C62.7576 164.474 63.9176 164.924 65.3976 164.924C66.3576 164.924 67.2476 164.704 68.0676 164.264C68.8876 163.824 69.5376 163.204 70.0176 162.404C70.4976 161.604 70.7376 160.704 70.7376 159.704C70.7376 158.604 70.4876 157.684 69.9876 156.944C69.5076 156.204 68.8676 155.664 68.0676 155.324C67.2876 154.964 66.4576 154.784 65.5776 154.784C65.3376 154.784 65.0276 154.824 64.6476 154.904C64.2676 154.964 64.0276 154.994 63.9276 154.994C63.6876 154.994 63.4876 154.914 63.3276 154.754C63.1876 154.574 63.1176 154.354 63.1176 154.094C63.1176 153.834 63.2176 153.604 63.4176 153.404L69.1476 147.044H60.8076C60.5676 147.044 60.3576 146.964 60.1776 146.804C60.0176 146.644 59.9376 146.434 59.9376 146.174C59.9376 145.934 60.0176 145.734 60.1776 145.574C60.3576 145.414 60.5676 145.334 60.8076 145.334H70.8876C71.2076 145.334 71.4376 145.434 71.5776 145.634C71.7376 145.814 71.8176 146.024 71.8176 146.264C71.8176 146.504 71.7176 146.724 71.5176 146.924L66.0276 153.044H66.2076Z" fill="black"/>
<path d="M49.6559 302.969C48.0759 302.969 46.7458 302.499 45.6658 301.559C44.5858 300.619 43.7658 299.339 43.2058 297.719C42.6658 296.079 42.3958 294.229 42.3958 292.169C42.3958 290.089 42.6658 288.239 43.2058 286.619C43.7458 284.999 44.5558 283.719 45.6358 282.779C46.7358 281.839 48.0759 281.369 49.6559 281.369C51.2359 281.369 52.5659 281.839 53.6458 282.779C54.7458 283.699 55.5659 284.979 56.1059 286.619C56.6659 288.239 56.9459 290.089 56.9459 292.169C56.9459 294.229 56.6659 296.079 56.1059 297.719C55.5659 299.339 54.7458 300.619 53.6458 301.559C52.5659 302.499 51.2359 302.969 49.6559 302.969ZM49.6559 301.109C51.3759 301.109 52.6959 300.309 53.6159 298.709C54.5559 297.089 55.0258 294.909 55.0258 292.169C55.0258 289.409 54.5559 287.229 53.6159 285.629C52.6959 284.009 51.3759 283.199 49.6559 283.199C47.9559 283.199 46.6358 284.009 45.6958 285.629C44.7758 287.229 44.3158 289.409 44.3158 292.169C44.3158 294.909 44.7758 297.089 45.6958 298.709C46.6358 300.309 47.9559 301.109 49.6559 301.109ZM66.1776 288.719C67.4576 288.719 68.6076 289.009 69.6276 289.589C70.6676 290.149 71.4776 290.949 72.0576 291.989C72.6576 293.009 72.9576 294.159 72.9576 295.439C72.9576 296.839 72.6276 298.099 71.9676 299.219C71.3276 300.319 70.4276 301.179 69.2676 301.799C68.1076 302.419 66.7876 302.729 65.3076 302.729C64.4676 302.729 63.6276 302.589 62.7876 302.309C61.9676 302.029 61.2476 301.629 60.6276 301.109C60.5076 301.029 60.4076 300.919 60.3276 300.779C60.2676 300.619 60.2376 300.469 60.2376 300.329C60.2376 300.129 60.3176 299.939 60.4776 299.759C60.6576 299.559 60.8676 299.459 61.1076 299.459C61.3276 299.459 61.5476 299.549 61.7676 299.729C62.2876 300.129 62.8476 300.439 63.4476 300.659C64.0676 300.879 64.6876 300.989 65.3076 300.989C66.4476 300.989 67.4576 300.759 68.3376 300.299C69.2376 299.839 69.9276 299.189 70.4076 298.349C70.9076 297.509 71.1576 296.559 71.1576 295.499C71.1576 293.979 70.6676 292.759 69.6876 291.839C68.7076 290.899 67.3976 290.429 65.7576 290.429C65.1376 290.429 64.5576 290.519 64.0176 290.699C63.4976 290.879 62.9076 291.119 62.2476 291.419C61.7676 291.659 61.4576 291.779 61.3176 291.779C61.0176 291.779 60.7676 291.689 60.5676 291.509C60.3876 291.309 60.2976 291.079 60.2976 290.819C60.2976 290.719 60.3076 290.639 60.3276 290.579L61.6176 282.419C61.6576 282.219 61.7576 282.049 61.9176 281.909C62.0976 281.749 62.3076 281.669 62.5476 281.669H71.5776C71.8176 281.669 72.0176 281.759 72.1776 281.939C72.3576 282.099 72.4476 282.309 72.4476 282.569C72.4476 282.809 72.3576 283.019 72.1776 283.199C72.0176 283.359 71.8176 283.439 71.5776 283.439H63.1776L62.1576 289.649C62.6776 289.389 63.2876 289.169 63.9876 288.989C64.7076 288.809 65.4376 288.719 66.1776 288.719Z" fill="black"/>
<path d="M49.6559 235.33C48.0759 235.33 46.7458 234.86 45.6658 233.92C44.5858 232.98 43.7658 231.7 43.2058 230.08C42.6658 228.44 42.3958 226.59 42.3958 224.53C42.3958 222.45 42.6658 220.6 43.2058 218.98C43.7458 217.36 44.5558 216.08 45.6358 215.14C46.7358 214.2 48.0759 213.73 49.6559 213.73C51.2359 213.73 52.5659 214.2 53.6458 215.14C54.7458 216.06 55.5659 217.34 56.1059 218.98C56.6659 220.6 56.9459 222.45 56.9459 224.53C56.9459 226.59 56.6659 228.44 56.1059 230.08C55.5659 231.7 54.7458 232.98 53.6458 233.92C52.5659 234.86 51.2359 235.33 49.6559 235.33ZM49.6559 233.47C51.3759 233.47 52.6959 232.67 53.6159 231.07C54.5559 229.45 55.0258 227.27 55.0258 224.53C55.0258 221.77 54.5559 219.59 53.6159 217.99C52.6959 216.37 51.3759 215.56 49.6559 215.56C47.9559 215.56 46.6358 216.37 45.6958 217.99C44.7758 219.59 44.3158 221.77 44.3158 224.53C44.3158 227.27 44.7758 229.45 45.6958 231.07C46.6358 232.67 47.9559 233.47 49.6559 233.47ZM73.1376 226.87C73.3776 226.87 73.5776 226.95 73.7376 227.11C73.9176 227.27 74.0076 227.47 74.0076 227.71C74.0076 227.95 73.9176 228.15 73.7376 228.31C73.5776 228.47 73.3776 228.55 73.1376 228.55H71.1276V234.13C71.1276 234.39 71.0376 234.61 70.8576 234.79C70.6776 234.95 70.4576 235.03 70.1976 235.03C69.9376 235.03 69.7276 234.95 69.5676 234.79C69.4076 234.61 69.3276 234.39 69.3276 234.13V228.55H60.5076C60.2676 228.55 60.0576 228.46 59.8776 228.28C59.6976 228.08 59.6076 227.86 59.6076 227.62C59.6076 227.38 59.6776 227.18 59.8176 227.02L69.4776 214.39C69.6376 214.15 69.8876 214.03 70.2276 214.03C70.4876 214.03 70.6976 214.12 70.8576 214.3C71.0376 214.46 71.1276 214.67 71.1276 214.93V226.87H73.1376ZM69.3276 226.87V217.27L62.0676 226.87H69.3276Z" fill="black"/>
</svg>
