<svg width="436" height="133" viewBox="0 0 436 133" fill="none" xmlns="http://www.w3.org/2000/svg">
<path d="M123.98 70.82L136.59 70.56C139.71 70.56 141.27 70.7767 141.27 71.21C141.27 72.3367 134.943 73.3333 122.29 74.2C114.23 89.9733 110.2 100.72 110.2 106.44C110.2 110.427 111.457 112.42 113.97 112.42C114.923 112.42 116.093 111.813 117.48 110.6C118.953 109.473 119.82 108.91 120.08 108.91C120.427 108.91 120.6 109.127 120.6 109.56C120.167 111.12 118.823 112.42 116.57 113.46C114.403 114.5 112.54 115.02 110.98 115.02C109.507 115.02 108.337 114.933 107.47 114.76C105.39 113.98 104.35 111.467 104.35 107.22C104.35 98.4667 107.687 87.33 114.36 73.81L98.76 74.2C87.1467 85.5533 75.49 95.52 63.79 104.1C46.2833 116.84 32.59 123.21 22.71 123.21C22.1033 123.21 21.4967 123.167 20.89 123.08C7.54333 121.953 0.87 115.107 0.87 102.54C0.87 95.0867 3.21 87.2 7.89 78.88C14.13 67.7867 22.6667 58.34 33.5 50.54C44.3333 42.6533 54.04 38.71 62.62 38.71C71.2 38.71 75.49 41.8733 75.49 48.2C75.49 52.4467 74.19 57.17 71.59 62.37C68.99 67.57 66.3467 70.8633 63.66 72.25C63.4 72.3367 63.0967 72.38 62.75 72.38C62.49 72.38 62.36 72.2933 62.36 72.12L66.65 65.1C69.5967 60.5067 71.07 56.4767 71.07 53.01C71.07 49.5433 70.29 46.77 68.73 44.69C67.2567 42.5233 64.8733 41.44 61.58 41.44C54.82 41.44 46.7167 45.21 37.27 52.75C27.91 60.29 20.76 69.5633 15.82 80.57C10.9667 91.5767 8.54 100.157 8.54 106.31C8.54 115.583 13.2633 120.22 22.71 120.22C31.7233 120.22 43.9433 114.413 59.37 102.8C66.2167 97.6867 77.3533 88.0233 92.78 73.81C89.7467 73.9833 86.93 74.2867 84.33 74.72C78.7833 75.76 76.1833 75.5867 76.53 74.2C76.8767 70.9933 78.5233 69.39 81.47 69.39C87.19 70.0833 92 70.43 95.9 70.43C103.353 63.5833 114.49 52.36 129.31 36.76C139.277 26.2733 145.343 21.03 147.51 21.03C148.463 21.03 148.94 21.7667 148.94 23.24C148.94 24.7133 148.55 27.01 147.77 30.13C146.99 33.25 146.123 35.1567 145.17 35.85C143.177 37.2367 141.313 39.1433 139.58 41.57C137.847 43.91 135.377 48.3733 132.17 54.96C128.963 61.46 126.233 66.7467 123.98 70.82ZM134.38 39.1L101.1 70.3H108.77C110.59 70.3867 112.843 70.43 115.53 70.43C118.043 65.49 124.327 55.0467 134.38 39.1ZM153.62 12.45C153.967 12.71 154.14 13.0567 154.14 13.49C154.14 13.8367 153.88 14.01 153.36 14.01C152.84 14.01 150.283 12.6233 145.69 9.84999C141.097 7.07666 138.41 5.42999 137.63 4.90999C136.85 4.30333 136.46 3.48 136.46 2.44C136.46 1.31333 136.893 0.749994 137.76 0.749994C138.8 0.749994 144.087 4.65 153.62 12.45ZM208.321 78.62C208.321 85.64 204.291 92.3133 196.231 98.64C188.257 104.88 181.324 108 175.431 108C171.531 108 168.671 107.74 166.851 107.22C165.117 106.7 163.167 105.14 161.001 102.54C159.527 103.753 157.534 106.83 155.021 111.77C152.507 116.797 151.251 121.087 151.251 124.64C151.251 126.287 152.074 128.453 153.721 131.14C153.894 131.573 153.764 131.92 153.331 132.18C152.897 132.527 152.594 132.7 152.421 132.7C152.161 132.7 151.944 132.657 151.771 132.57C148.131 130.577 146.311 126.677 146.311 120.87C146.311 115.15 151.077 105.227 160.611 91.1C170.231 76.8867 176.861 69.1733 180.501 67.96C181.367 67.7867 181.931 67.7 182.191 67.7C183.664 67.7 184.401 69.3033 184.401 72.51C185.267 71.6433 187.044 70.82 189.731 70.04C193.024 69.1733 195.364 68.74 196.751 68.74C199.871 68.74 202.557 69.65 204.811 71.47C207.151 73.2033 208.321 75.5867 208.321 78.62ZM201.691 77.32C201.691 74.0267 199.741 72.38 195.841 72.38C191.941 72.38 188.387 73.2033 185.181 74.85C183.707 75.5433 179.634 79.3567 172.961 86.29C166.287 93.2233 162.951 97.6867 162.951 99.68C162.951 101.24 164.121 102.41 166.461 103.19C168.887 103.97 171.314 104.36 173.741 104.36C178.507 104.36 184.357 101.673 191.291 96.3C198.224 90.84 201.691 84.5133 201.691 77.32ZM234.834 108.65C228.334 108.65 225.084 105.053 225.084 97.86C225.084 94.22 226.038 90.2333 227.944 85.9C229.851 81.5667 231.931 77.9267 234.184 74.98C233.751 75.0667 233.188 75.11 232.494 75.11C230.414 75.11 228.681 73.6367 227.294 70.69L217.674 83.17C212.301 89.8433 209.181 93.18 208.314 93.18C207.881 93.18 207.664 93.0067 207.664 92.66C207.664 91.7933 208.401 90.5367 209.874 88.89C217.414 80.1367 222.744 72.7267 225.864 66.66C227.858 59.12 230.371 55.35 233.404 55.35C235.398 55.35 236.394 56.2167 236.394 57.95C236.394 59.6833 235.311 61.8933 233.144 64.58L230.024 68.74C230.024 70.56 231.368 71.47 234.054 71.47C235.614 71.47 237.348 70.9067 239.254 69.78L242.634 67.7C242.808 67.6133 243.241 67.57 243.934 67.57C244.628 67.57 245.364 68.0033 246.144 68.87C246.924 69.7367 247.184 70.5167 246.924 71.21L237.954 82.52C232.408 89.6267 229.634 95.26 229.634 99.42C229.634 103.493 231.541 105.53 235.354 105.53C239.341 105.53 244.238 103.407 250.044 99.16C253.511 96.6467 256.674 93.83 259.534 90.71C262.221 87.59 263.694 86.03 263.954 86.03C264.561 86.03 264.864 86.3767 264.864 87.07C264.864 87.6767 264.474 88.4133 263.694 89.28L259.534 93.96C257.194 96.3867 254.594 98.7267 251.734 100.98C244.888 106.093 239.254 108.65 234.834 108.65ZM293.407 80.44C293.407 83.4733 290.503 88.5433 284.697 95.65C277.85 104.057 272 108.26 267.147 108.26H265.067C262.813 108.26 261.037 107.09 259.737 104.75C258.697 103.103 258.177 101.283 258.177 99.29C258.177 94.09 261.947 86.81 269.487 77.45C277.113 68.0033 283.267 63.28 287.947 63.28C292.367 63.28 294.577 65.62 294.577 70.3C294.577 71.5133 294.36 73.0733 293.927 74.98C294.013 75.24 294.837 75.37 296.397 75.37C297.957 75.37 300.34 74.5467 303.547 72.9C303.46 74.3733 300.037 76.4967 293.277 79.27C293.363 79.6167 293.407 80.0067 293.407 80.44ZM284.957 73.68C282.01 73.68 277.807 77.1467 272.347 84.08C266.973 91.0133 264.287 96.1267 264.287 99.42C264.287 102.713 265.327 104.36 267.407 104.36C271.133 104.36 275.857 100.98 281.577 94.22C287.297 87.46 290.157 82.6067 290.157 79.66C288.77 78.88 287.037 76.8867 284.957 73.68ZM345.049 78.62C345.049 85.64 341.019 92.3133 332.959 98.64C324.986 104.88 318.052 108 312.159 108C308.259 108 305.399 107.74 303.579 107.22C301.846 106.7 299.896 105.14 297.729 102.54C296.256 103.753 294.262 106.83 291.749 111.77C289.236 116.797 287.979 121.087 287.979 124.64C287.979 126.287 288.802 128.453 290.449 131.14C290.622 131.573 290.492 131.92 290.059 132.18C289.626 132.527 289.322 132.7 289.149 132.7C288.889 132.7 288.672 132.657 288.499 132.57C284.859 130.577 283.039 126.677 283.039 120.87C283.039 115.15 287.806 105.227 297.339 91.1C306.959 76.8867 313.589 69.1733 317.229 67.96C318.096 67.7867 318.659 67.7 318.919 67.7C320.392 67.7 321.129 69.3033 321.129 72.51C321.996 71.6433 323.772 70.82 326.459 70.04C329.752 69.1733 332.092 68.74 333.479 68.74C336.599 68.74 339.286 69.65 341.539 71.47C343.879 73.2033 345.049 75.5867 345.049 78.62ZM338.419 77.32C338.419 74.0267 336.469 72.38 332.569 72.38C328.669 72.38 325.116 73.2033 321.909 74.85C320.436 75.5433 316.362 79.3567 309.689 86.29C303.016 93.2233 299.679 97.6867 299.679 99.68C299.679 101.24 300.849 102.41 303.189 103.19C305.616 103.97 308.042 104.36 310.469 104.36C315.236 104.36 321.086 101.673 328.019 96.3C334.952 90.84 338.419 84.5133 338.419 77.32ZM378.973 80.44C378.973 83.4733 376.07 88.5433 370.263 95.65C363.416 104.057 357.566 108.26 352.713 108.26H350.633C348.38 108.26 346.603 107.09 345.303 104.75C344.263 103.103 343.743 101.283 343.743 99.29C343.743 94.09 347.513 86.81 355.053 77.45C362.68 68.0033 368.833 63.28 373.513 63.28C377.933 63.28 380.143 65.62 380.143 70.3C380.143 71.5133 379.926 73.0733 379.493 74.98C379.58 75.24 380.403 75.37 381.963 75.37C383.523 75.37 385.906 74.5467 389.113 72.9C389.026 74.3733 385.603 76.4967 378.843 79.27C378.93 79.6167 378.973 80.0067 378.973 80.44ZM370.523 73.68C367.576 73.68 363.373 77.1467 357.913 84.08C352.54 91.0133 349.853 96.1267 349.853 99.42C349.853 102.713 350.893 104.36 352.973 104.36C356.7 104.36 361.423 100.98 367.143 94.22C372.863 87.46 375.723 82.6067 375.723 79.66C374.336 78.88 372.603 76.8867 370.523 73.68ZM405.525 106.05C403.012 107.523 399.892 108.26 396.165 108.26C392.525 108.26 389.709 107.047 387.715 104.62C385.809 102.193 384.162 98.3367 382.775 93.05C381.215 94.61 380.132 95.39 379.525 95.39C379.092 95.39 378.875 95.0867 378.875 94.48C378.875 93.8733 379.092 93.3533 379.525 92.92C382.385 89.3667 387.239 84.2533 394.085 77.58L410.465 62.24C415.145 57.82 417.919 55.61 418.785 55.61C421.559 55.61 422.945 56.65 422.945 58.73C422.945 59.77 422.512 60.81 421.645 61.85C420.865 62.8033 420.259 63.5833 419.825 64.19C419.479 64.71 419.089 65.23 418.655 65.75C417.095 68.4367 415.492 73.9833 413.845 82.39C412.285 90.7967 411.072 96.6467 410.205 99.94C417.399 99.8533 424.809 95.1733 432.435 85.9C433.302 85.0333 433.952 84.6 434.385 84.6C434.819 84.6 435.035 84.9033 435.035 85.51C435.035 86.03 434.645 86.7667 433.865 87.72C428.839 93.6133 424.159 97.73 419.825 100.07C417.225 101.37 413.845 102.453 409.685 103.32L405.525 106.05ZM387.975 91.62C387.975 94.5667 388.929 96.9933 390.835 98.9C392.829 100.72 395.039 101.63 397.465 101.63C399.892 101.63 401.755 101.153 403.055 100.2C404.789 99.2467 406.479 95.26 408.125 88.24C409.859 81.22 410.899 75.0233 411.245 69.65L411.765 65.23C406.999 68.7833 401.885 73.3767 396.425 79.01C391.052 84.6433 388.279 88.37 388.105 90.19C388.019 90.71 387.975 91.1867 387.975 91.62Z" fill="black"/>
</svg>
