<svg width="200" height="111" viewBox="0 0 200 111" fill="none" xmlns="http://www.w3.org/2000/svg">
<path d="M185.602 59.4996C182.328 54.629 175.953 52.8775 170.214 53.9867C165.575 54.8707 162.168 56.8773 159.02 59.2579C154.537 62.6451 150.607 66.774 144.57 69.4659C144.195 69.6315 143.814 69.7971 143.423 69.9494C142.154 70.4493 138.509 71.5287 135.739 68.168C134.367 66.5125 133.923 64.5258 133.837 62.4167C133.744 60.1817 134.046 57.8176 134.052 55.5628C134.053 55.2768 134.152 54.9997 134.333 54.7783C134.514 54.5569 134.766 54.4048 135.046 54.3476C135.132 54.3306 135.218 54.3217 135.305 54.3211H151.81C152.137 54.3194 152.451 54.19 152.683 53.9604C152.916 53.7309 153.05 53.4195 153.056 53.0927C153.078 52.522 153.069 51.9506 153.029 51.3809C152.397 43.5502 147.396 37.279 138.244 37.5108C134.682 37.5966 131.235 38.7924 128.386 40.9311C128.078 41.1629 127.776 41.398 127.485 41.6463C124.051 44.6128 121.828 48.7373 121.239 53.2351C120.364 59.6023 123.651 65.5258 127.568 68.7011C127.869 68.9461 128.177 69.1812 128.489 69.3931C129.576 70.1175 130.74 70.7173 131.961 71.1811C132.213 71.2804 132.445 71.3632 132.657 71.436L132.956 71.5354L133.217 71.6148L133.522 71.7108L133.671 71.7506L133.787 71.7804C136.77 72.5287 139.139 72.1943 140.938 72.0022C147.168 71.34 152.281 67.2873 155.81 64.6417C159.484 61.8902 169.356 53.9834 177.723 55.576C180.9 56.1819 183.468 58.7579 184.953 61.2048C185.496 62.0922 184.622 62.8835 183.82 62.2246H183.8C181.755 60.5691 178.829 60.5691 176.99 62.1783C174.671 64.2278 174.376 67.6614 176.328 69.8666C176.84 70.4572 177.466 70.9382 178.169 71.2809C178.872 71.6236 179.637 71.8208 180.418 71.8607C181.199 71.9006 181.98 71.7823 182.715 71.5131C183.449 71.2438 184.121 70.829 184.691 70.2937C187.551 67.6978 187.932 62.9564 185.602 59.4996ZM134.105 49.6757C134.172 47.7884 134.271 45.5236 134.367 44.4972C134.417 43.9906 134.496 38.7789 137.916 38.8683C141.806 38.9544 141.611 44.5468 141.627 45.7587C141.647 47.4606 141.627 51.9934 141.627 52.5431C141.627 53.0927 141.458 53.4205 140.998 53.5761C140.733 53.6655 136.485 53.6589 134.944 53.5231C134.756 53.5237 134.57 53.4912 134.394 53.4271C134.277 53.3143 134.183 53.179 134.12 53.0294C134.056 52.8798 134.023 52.7189 134.023 52.5563C134.032 52.1557 134.059 51.01 134.105 49.6757Z" fill="black"/>
<path d="M145.305 30.9681C145.785 30.6191 146.139 30.1233 146.312 29.5558C146.485 28.9883 146.468 28.3799 146.265 27.8225C146.061 27.2652 145.682 26.7893 145.183 26.4668C144.685 26.1442 144.095 25.9925 143.503 26.0346C139.304 26.3128 139.782 31.6635 135.182 33.0243C138.337 33.9779 142.817 32.8588 145.305 30.9681Z" fill="black"/>
<path d="M126.58 69.3335C125.009 70.2746 123.282 70.9283 121.481 71.2639C119.035 71.705 116.548 71.8782 114.065 71.7804H114.012C112.528 71.7593 111.048 71.6376 109.581 71.4162C108.796 68.413 106.298 66.3138 102.858 65.8602C101.823 65.7277 100.772 65.8412 99.7896 66.1913C98.9334 65.1815 98.2116 64.0653 97.6424 62.8703C95.9841 59.2778 95.6257 55.2214 96.6284 51.3941C96.8697 50.4142 97.1866 49.4545 97.5761 48.5234C98.7906 45.5451 100.797 42.9552 103.377 41.0335C105.958 39.1118 109.016 37.9315 112.219 37.6201C112.698 37.5669 113.179 37.5382 113.66 37.534C115.061 37.4488 116.467 37.4831 117.862 37.6366C121.022 37.9546 124.039 39.109 126.603 40.9808C123.903 43.3548 121.915 46.4313 120.861 49.8677C120.787 47.7517 120.594 45.6415 120.284 43.5469C120.192 42.9142 120.045 42.2906 119.847 41.6827C119.837 41.6611 119.828 41.639 119.82 41.6165C118.654 38.4909 115.092 37.6068 112.57 38.9677C111.507 39.5407 110.692 40.4831 110.277 41.6165L110.247 41.7026C109.522 43.6893 109.137 49.1393 109.107 54.6489C109.061 58.1085 109.201 61.5681 109.528 65.0126C109.693 66.5886 110.406 68.0569 111.543 69.1613C111.826 69.469 112.175 69.7089 112.564 69.8633C115.085 71.2208 118.647 70.3401 119.814 67.2144C119.814 67.1945 119.834 67.1714 119.84 67.1482C120.039 66.5449 120.185 65.9257 120.278 65.2973C120.493 64.0159 120.659 62.3505 120.778 60.4863C121.856 63.9149 123.864 66.9775 126.58 69.3335Z" fill="black"/>
<path d="M85.2428 70.1911C85.2759 70.7407 85.3356 71.2771 85.4151 71.8003H94.7429C95.1542 69.993 96.2065 68.3957 97.7053 67.3038C97.6854 66.6847 97.6821 65.9794 97.6622 65.1583C95.0677 61.1088 94.3254 56.119 95.5647 51.1127C96.0025 49.3266 96.6779 47.6072 97.5728 46.0004C97.5297 34.7428 97.4965 22.9885 97.4965 21.5183H79.5666C80.0275 21.9904 80.6348 22.2927 81.2896 22.3759C83.7185 22.9322 84.7126 24.442 84.7225 28.1471C84.7424 36.0738 84.7424 44.0005 84.7225 51.9272L84.8054 56.427C84.8915 60.9466 84.9744 65.6185 85.2428 70.1911Z" fill="black"/>
<path d="M100.21 83.9982C95.1638 85.2333 78.884 88.1238 72.9029 72.2969C70.7159 66.5191 71.0373 54.9337 70.9644 47.2222C70.9523 45.7594 70.7131 44.3073 70.2553 42.9178C69.6224 40.898 67.4553 40.3352 65.931 41.8185C65.0198 42.7059 64.3703 43.9674 63.9031 45.1759C63.5353 46.1229 63.5717 46.9176 63.5717 47.9639C63.5419 54.3906 63.4756 61.675 63.5386 68.1018C63.5386 69.6083 64.1649 71.3632 67.4951 71.3499C67.4951 71.4228 67.4951 71.7903 67.4951 71.8797H51.6063C51.6261 71.5122 51.6328 71.0851 51.7322 71.0122C51.9973 70.8136 52.5738 69.9593 53.8264 68.5918C55.4534 66.8171 55.1054 66.5754 53.9225 65.8701C53.5453 65.6634 53.1449 65.5022 52.7296 65.39C51.646 65.1086 51.7918 65.2609 50.5592 66.8237C50.3073 61.7611 50.3338 52.3676 50.4067 43.5866C52.3805 43.3148 54.2032 42.3807 55.576 40.9378C57.3521 39.12 57.9783 36.8652 58.1208 34.3554C58.2401 32.2429 56.6827 25.8525 48.9819 21.5912H63.4624C63.4624 23.2467 63.5485 41.6497 63.5485 43.7356C66.5838 38.6697 70.8385 37.5704 75.746 38.2823C80.3088 38.9445 83.4203 42.3251 83.6125 47.0103C83.8179 52.0895 83.7218 48.5996 83.8246 53.6821C83.9273 58.7646 83.977 63.8338 84.2355 68.913C84.2586 69.3865 84.2818 69.8567 84.3083 70.3268C84.3349 70.797 84.3779 71.3201 84.4276 71.8102C84.759 74.9954 85.604 77.6112 88.0395 80.0879C89.2722 81.3394 91.5983 82.1705 94.1233 82.5083C96.4428 82.8162 98.9214 82.7102 100.876 82.1275C102.076 81.7699 103.083 81.2401 103.726 80.5117C101.877 79.8197 99.9022 79.4223 98.3183 78.4091C96.1744 77.045 95.4057 74.2438 96.0717 71.8201C96.1388 71.5606 96.224 71.3061 96.3268 71.0586C96.6766 70.2341 97.1907 69.4894 97.8379 68.87C98.356 68.3694 98.9484 67.9517 99.5941 67.6316C99.9582 67.4424 100.34 67.2894 100.734 67.1747C101.438 66.9687 102.176 66.909 102.904 66.9992C105.665 67.3634 107.726 68.9428 108.538 71.2208C108.674 71.6011 108.774 71.9936 108.836 72.3929C108.836 72.4327 108.852 72.4724 108.859 72.5121C109.565 77.6575 105.807 82.6341 100.21 83.9982Z" fill="black"/>
<path d="M56.2586 38.0803C55.1518 40.4212 53.0841 42.1529 50.4167 42.4741C50.057 42.5142 49.695 42.5308 49.3331 42.5238C48.1281 42.4817 46.9424 42.2085 45.8406 41.7192C38.7196 38.4545 40.8701 28.0312 48.6671 27.3822C48.8745 27.3674 49.0827 27.3674 49.29 27.3822C49.7157 27.4229 50.137 27.5005 50.5492 27.614C52.5573 28.1405 54.0981 29.1504 51.7819 26.869C51.3876 26.4783 50.9734 26.1075 50.5525 25.7532C50.1317 25.3989 49.6678 25.0479 49.2039 24.7268C48.2668 24.078 47.2679 23.5235 46.2216 23.0712L45.8041 22.8858C45.4959 22.7633 45.1944 22.654 44.8962 22.5547C42.0133 21.5614 39.4387 21.4488 37.3478 22.1673C35.0282 22.9686 33.2886 24.7864 32.4138 27.465C29.5575 34.4679 28.2022 49.5565 30.6675 60.0427C31.3965 63.1484 32.4569 65.847 33.9149 67.8171C36.5889 70.9924 41.0822 72.1877 45.3535 71.0751C46.3515 70.8141 47.3148 70.4351 48.2231 69.9461C48.3887 69.86 48.5544 69.7673 48.7135 69.6712L48.9653 69.5189C49.5564 69.148 50.1063 68.7151 50.6055 68.2276C51.2022 67.6487 51.7303 67.0032 52.1795 66.3039C52.1934 66.28 52.2157 66.2622 52.2419 66.2536C52.2682 66.2451 52.2967 66.2465 52.322 66.2575L53.8131 66.8767C53.8299 66.8832 53.845 66.8936 53.8571 66.907C53.8691 66.9203 53.878 66.9363 53.8828 66.9537C53.8876 66.971 53.8883 66.9893 53.8848 67.0069C53.8814 67.0246 53.8738 67.0412 53.8628 67.0555C53.2732 67.8615 52.6146 68.6149 51.8945 69.307C50.6814 70.4475 49.242 71.3206 47.6697 71.8698L47.1461 72.042C46.5563 72.2108 45.9565 72.3565 45.3535 72.4857C40.2424 73.527 34.9447 73.1678 30.0214 71.446C24.9515 69.6878 20.3787 66.5357 17.2871 62.0955C17.201 61.9598 17.1181 61.8174 17.032 61.6816C11.3491 52.3444 11.9423 41.3848 16.1572 33.8686C17.6181 31.2666 19.4914 28.9184 21.7042 26.9154C25.3127 23.5971 29.7632 21.3318 34.571 20.3661C37.3751 19.8149 40.262 19.8374 43.0571 20.4323C44.2885 20.6976 45.4897 21.087 46.6425 21.5945C47.1594 21.8196 47.673 22.0746 48.1767 22.3527C48.8182 22.7064 49.4389 23.0966 50.0356 23.5215C52.1764 25.0658 54.0178 26.9866 55.4699 29.1901C56.3604 30.4769 56.9012 31.9727 57.0394 33.5311C57.1777 35.0895 56.9086 36.657 56.2586 38.0803Z" fill="black"/>
</svg>
