<svg width="362" height="94" viewBox="0 0 362 94" fill="none" xmlns="http://www.w3.org/2000/svg">
<path d="M66.33 48.86C61.13 48.86 56.7533 47.69 53.2 45.35C49.6467 42.9233 47.87 39.89 47.87 36.25C47.87 31.6567 50.86 27.0633 56.84 22.47C57.88 21.69 58.66 21.3 59.18 21.3C59.7 21.3 59.96 21.4733 59.96 21.82C59.96 22.6867 59.2667 23.38 57.88 23.9C53.0267 27.8 50.6 31.7433 50.6 35.73C50.6 38.59 51.9 41.0167 54.5 43.01C57.1 44.9167 60.35 45.87 64.25 45.87C72.7433 45.87 80.76 41.7967 88.3 33.65C92.2 29.4033 94.15 24.5067 94.15 18.96C94.15 13.4133 92.07 9.29666 87.91 6.60999C84.4433 4.18333 79.7633 2.96999 73.87 2.96999C65.3767 2.96999 56.84 5.09333 48.26 9.34C37.6867 14.4533 28.11 22.4267 19.53 33.26C11.0367 44.0067 6.79 54.3633 6.79 64.33C6.79 72.2167 9.47667 78.3267 14.85 82.66C20.2233 86.9067 26.8967 89.03 34.87 89.03C43.97 89.03 52.8967 86.82 61.65 82.4C68.3233 78.9333 74.0867 74.5133 78.94 69.14C80.3267 67.58 81.41 66.8 82.19 66.8C82.71 66.8 82.97 67.2767 82.97 68.23C82.97 69.0967 82.4933 70.0067 81.54 70.96C76.9467 75.8133 70.3167 80.4933 61.65 85C50.99 90.6333 40.2433 93.45 29.41 93.45C18.6633 93.45 10.6467 89.8967 5.36 82.79C1.80667 78.11 0.0300002 72.52 0.0300002 66.02C0.0300002 63.16 0.376667 60.0833 1.07 56.79C3.41 45.6967 9.56333 34.9067 19.53 24.42C26.7233 16.88 35.26 11.03 45.14 6.87C55.02 2.62333 64.38 0.499995 73.22 0.499995C77.9 0.499995 81.9733 1.06333 85.44 2.19C94.8867 5.13666 99.61 11.0733 99.61 20C99.61 25.46 98.0067 30.1833 94.8 34.17C86.8267 43.9633 77.3367 48.86 66.33 48.86ZM124.256 57.44C124.256 60.4733 121.353 65.5433 115.546 72.65C108.7 81.0567 102.85 85.26 97.9962 85.26H95.9162C93.6628 85.26 91.8862 84.09 90.5862 81.75C89.5462 80.1033 89.0262 78.2833 89.0262 76.29C89.0262 71.09 92.7962 63.81 100.336 54.45C107.963 45.0033 114.116 40.28 118.796 40.28C123.216 40.28 125.426 42.62 125.426 47.3C125.426 48.5133 125.21 50.0733 124.776 51.98C124.863 52.24 125.686 52.37 127.246 52.37C128.806 52.37 131.19 51.5467 134.396 49.9C134.31 51.3733 130.886 53.4967 124.126 56.27C124.213 56.6167 124.256 57.0067 124.256 57.44ZM115.806 50.68C112.86 50.68 108.656 54.1467 103.196 61.08C97.8228 68.0133 95.1362 73.1267 95.1362 76.42C95.1362 79.7133 96.1762 81.36 98.2562 81.36C101.983 81.36 106.706 77.98 112.426 71.22C118.146 64.46 121.006 59.6067 121.006 56.66C119.62 55.88 117.886 53.8867 115.806 50.68ZM147.819 43.92C150.159 43.92 151.329 44.83 151.329 46.65C151.329 47.17 151.199 47.69 150.939 48.21C143.139 59.0433 138.459 67.2333 136.899 72.78C157.092 52.5867 169.355 42.49 173.689 42.49C174.122 42.4033 174.512 42.36 174.859 42.36C177.285 42.36 178.499 43.4433 178.499 45.61C178.499 46.0433 178.412 46.4767 178.239 46.91C178.065 47.3433 176.332 49.6833 173.039 53.93C169.225 58.4367 165.975 62.77 163.289 66.93C160.689 71.09 159.389 74.5567 159.389 77.33C159.389 80.1033 159.995 81.49 161.209 81.49C165.022 81.49 171.652 76.2467 181.099 65.76C181.272 65.5867 181.575 65.1967 182.009 64.59C183.309 63.03 184.089 62.25 184.349 62.25C184.609 62.25 184.739 62.6833 184.739 63.55C184.739 64.4167 184.132 65.5433 182.919 66.93C172.172 79.15 164.545 85.26 160.039 85.26C155.792 85.26 153.669 82.92 153.669 78.24C153.669 73.56 155.402 68.1867 158.869 62.12L167.189 48.6C161.295 52.9333 156.052 57.7 151.459 62.9C146.865 68.0133 142.662 72.9967 138.849 77.85C135.122 82.7033 132.955 85.13 132.349 85.13C131.049 85.13 130.009 84.61 129.229 83.57C128.535 82.4433 128.189 81.1 128.189 79.54C128.189 77.8933 128.752 75.7267 129.879 73.04C131.005 70.3533 132.435 67.1033 134.169 63.29L126.369 71.48C124.462 73.3867 123.292 74.34 122.859 74.34C122.339 74.34 122.079 74.08 122.079 73.56C122.079 72.9533 122.425 72.3033 123.119 71.61C126.325 68.4033 129.099 65.3267 131.439 62.38C133.692 59.4333 138.329 53.8 145.349 45.48C146.129 44.44 146.952 43.92 147.819 43.92ZM213.25 43.14L231.97 42.88C232.23 43.0533 232.36 43.1833 232.36 43.27C232.36 44.05 226.944 45.1333 216.11 46.52C205.364 47.9067 199.557 48.73 198.69 48.99C197.044 50.4633 194.01 54.8833 189.59 62.25C185.17 69.53 182.96 74.86 182.96 78.24C182.96 81.4467 185.17 83.05 189.59 83.05C191.67 83.05 194.4 82.4 197.78 81.1C201.16 79.8 203.76 78.5867 205.58 77.46C210.434 74.4267 215.634 69.9633 221.18 64.07C222.394 62.8567 223.217 62.25 223.65 62.25C223.91 62.25 224.04 62.51 224.04 63.03C224.04 63.55 223.39 64.59 222.09 66.15C217.584 71.6967 212.514 76.16 206.88 79.54C200.12 83.7 193.664 85.78 187.51 85.78C184.824 85.78 182.614 85.2167 180.88 84.09C179.234 82.8767 178.41 80.4933 178.41 76.94C178.41 73.3867 179.97 68.5333 183.09 62.38C186.21 56.14 188.594 51.5033 190.24 48.47C189.027 48.73 187.987 48.86 187.12 48.86C184.607 48.86 183.35 47.8633 183.35 45.87C183.35 44.3967 184.39 43.3567 186.47 42.75C186.73 42.75 187.12 42.7067 187.64 42.62H195.18C196.74 40.6267 198.517 38.33 200.51 35.73C202.937 32.61 204.584 31.05 205.45 31.05C206.317 31.05 207.4 31.3967 208.7 32.09C210 32.7833 210.65 33.6067 210.65 34.56C210.65 35.5133 208.57 38.33 204.41 43.01C206.664 43.0967 209.61 43.14 213.25 43.14ZM261.204 46.13L263.024 45.74C263.977 45.74 264.887 46.13 265.754 46.91C266.621 47.69 267.054 48.2967 267.054 48.73C267.054 49.1633 264.367 53.3667 258.994 61.34C253.621 69.2267 250.934 74.73 250.934 77.85C250.934 78.11 250.977 78.37 251.064 78.63C251.497 80.6233 252.451 81.62 253.924 81.62C258.431 81.62 266.664 74.1667 278.624 59.26C278.884 58.9133 279.187 58.74 279.534 58.74C279.881 58.74 280.054 59.0867 280.054 59.78C280.054 60.3867 279.664 61.21 278.884 62.25C267.791 77.07 259.341 84.48 253.534 84.48C252.754 84.48 252.017 84.35 251.324 84.09C247.511 82.6167 245.604 79.7567 245.604 75.51C245.604 74.0367 245.777 72.5633 246.124 71.09L238.064 78.89C232.951 83.3967 229.224 85.65 226.884 85.65C224.631 85.65 222.464 84.9133 220.384 83.44C218.044 81.7067 216.874 79.41 216.874 76.55C216.874 70.2233 221.294 62.6833 230.134 53.93C238.974 45.09 247.077 40.67 254.444 40.67C257.304 40.67 259.211 41.6667 260.164 43.66C260.424 44.3533 260.641 44.96 260.814 45.48C260.987 45.9133 261.117 46.13 261.204 46.13ZM222.334 78.11C222.334 81.23 223.417 82.79 225.584 82.79C230.611 82.79 237.457 77.2867 246.124 66.28L259.904 47.3C259.211 46.0867 258.084 45.48 256.524 45.48C251.237 45.48 244.217 49.5967 235.464 57.83C226.711 65.9767 222.334 72.7367 222.334 78.11ZM281.368 86.69C280.415 86.69 279.548 86.56 278.768 86.3C273.222 84.74 270.448 81.62 270.448 76.94C270.448 70.8733 274.262 63.8533 281.888 55.88C289.515 47.9067 296.362 43.92 302.428 43.92C304.422 43.92 306.025 44.4833 307.238 45.61C308.538 46.65 309.188 48.1233 309.188 50.03C309.188 51.85 308.625 53.8 307.498 55.88C306.372 57.8733 304.682 58.87 302.428 58.87C300.175 58.87 299.048 58.1767 299.048 56.79C299.048 55.8367 299.612 54.4067 300.738 52.5C301.952 50.5067 302.558 49.4667 302.558 49.38C302.558 49.2067 302.428 49.12 302.168 49.12C299.742 49.38 296.405 51.1133 292.158 54.32C287.998 57.5267 285.138 60.2133 283.578 62.38L278.508 69.79C277.642 71.1767 276.992 72.8233 276.558 74.73C276.212 76.6367 276.038 78.0667 276.038 79.02C276.038 79.9733 276.558 81.0567 277.598 82.27C278.725 83.4833 280.285 84.09 282.278 84.09C286.612 84.09 291.985 81.5767 298.398 76.55C304.812 71.4367 309.752 66.5833 313.218 61.99C313.652 61.47 314.172 61.21 314.778 61.21C315.385 61.21 315.688 61.3833 315.688 61.73C315.688 62.0767 315.472 62.51 315.038 63.03C310.272 69.3567 304.552 74.9033 297.878 79.67C291.292 84.35 285.788 86.69 281.368 86.69ZM342.235 43.14L360.955 42.88C361.215 43.0533 361.345 43.1833 361.345 43.27C361.345 44.05 355.928 45.1333 345.095 46.52C334.348 47.9067 328.541 48.73 327.675 48.99C326.028 50.4633 322.995 54.8833 318.575 62.25C314.155 69.53 311.945 74.86 311.945 78.24C311.945 81.4467 314.155 83.05 318.575 83.05C320.655 83.05 323.385 82.4 326.765 81.1C330.145 79.8 332.745 78.5867 334.565 77.46C339.418 74.4267 344.618 69.9633 350.165 64.07C351.378 62.8567 352.201 62.25 352.635 62.25C352.895 62.25 353.025 62.51 353.025 63.03C353.025 63.55 352.375 64.59 351.075 66.15C346.568 71.6967 341.498 76.16 335.865 79.54C329.105 83.7 322.648 85.78 316.495 85.78C313.808 85.78 311.598 85.2167 309.865 84.09C308.218 82.8767 307.395 80.4933 307.395 76.94C307.395 73.3867 308.955 68.5333 312.075 62.38C315.195 56.14 317.578 51.5033 319.225 48.47C318.011 48.73 316.971 48.86 316.105 48.86C313.591 48.86 312.335 47.8633 312.335 45.87C312.335 44.3967 313.375 43.3567 315.455 42.75C315.715 42.75 316.105 42.7067 316.625 42.62H324.165C325.725 40.6267 327.501 38.33 329.495 35.73C331.921 32.61 333.568 31.05 334.435 31.05C335.301 31.05 336.385 31.3967 337.685 32.09C338.985 32.7833 339.635 33.6067 339.635 34.56C339.635 35.5133 337.555 38.33 333.395 43.01C335.648 43.0967 338.595 43.14 342.235 43.14Z" fill="black"/>
</svg>
