<svg width="330" height="105" viewBox="0 0 330 105" fill="none" xmlns="http://www.w3.org/2000/svg">
<path d="M34.79 101.98C34.79 99.5533 39.7733 90.15 49.74 73.77C42.6333 73.77 37.91 74.0733 35.57 74.68C31.67 75.6333 28.7667 77.5833 26.86 80.53C26.1667 81.4833 25.56 82.0033 25.04 82.09C24.6067 82.1767 24.39 82.0033 24.39 81.57C24.39 81.05 24.5633 80.6167 24.91 80.27C28.2033 75.85 31.4533 72.8167 34.66 71.17C37.8667 69.5233 42.9367 68.7 49.87 68.7C50.91 68.7 51.95 68.7 52.99 68.7C58.2767 60.64 65.6867 48.68 75.22 32.82C78.7733 26.1467 80.55 20.73 80.55 16.57C80.55 9.89666 76.4767 6.51666 68.33 6.43C67.81 6.43 67.3333 6.43 66.9 6.43C55.8067 6.43 45.71 9.20333 36.61 14.75C27.51 20.2967 20.3167 27.1867 15.03 35.42C9.74333 43.6533 7.1 51.0633 7.1 57.65C7.1 65.71 10.87 69.74 18.41 69.74C24.39 69.74 29.5033 67.0967 33.75 61.81C37.9967 56.5233 40.12 51.4967 40.12 46.73C40.12 44.0433 39.4267 41.8333 38.04 40.1C37.8667 39.9267 37.78 39.71 37.78 39.45C37.78 38.8433 38.1267 38.54 38.82 38.54C39.1667 38.54 39.4267 38.67 39.6 38.93C41.3333 41.1833 42.2 43.87 42.2 46.99C42.2 52.2767 40.0333 57.6933 35.7 63.24C31.3667 68.7 26.8167 71.7333 22.05 72.34C20.5767 72.6 19.1467 72.73 17.76 72.73C12.2133 72.73 7.92333 70.9533 4.89 67.4C1.94333 64.1933 0.47 59.86 0.47 54.4C0.47 52.1467 0.73 49.85 1.25 47.51C3.85 35.81 11.3467 25.5833 23.74 16.83C36.22 8.07666 50.2167 3.7 65.73 3.7C71.71 3.7 76.8233 5 81.07 7.6C85.4033 10.1133 87.57 13.6667 87.57 18.26C87.57 22.8533 85.9667 27.7067 82.76 32.82L59.23 68.96C62.0033 69.0467 66.9433 69.48 74.05 70.26C81.2433 70.9533 86.6167 71.3 90.17 71.3C93.81 71.3 96.2367 71.2567 97.45 71.17L102.39 62.98C110.797 48.8533 120.503 35.68 131.51 23.46C142.603 11.1533 152.267 3.52666 160.5 0.579996C160.76 0.493331 161.02 0.449998 161.28 0.449998C161.887 0.449998 162.19 0.796663 162.19 1.48999C162.19 1.74999 162.06 1.96666 161.8 2.13999C156.253 5.25999 148.28 12.8433 137.88 24.89C127.567 36.85 118.64 49.1567 111.1 61.81L106.03 70.39C110.017 69.87 112.877 68.8733 114.61 67.4C114.957 67.14 115.26 67.3133 115.52 67.92C115.78 68.44 115.737 68.83 115.39 69.09C112.79 71.0833 109.107 72.5133 104.34 73.38C98.2733 84.6467 95.24 92.5767 95.24 97.17C95.24 100.117 96.4967 101.59 99.01 101.59C100.743 101.59 102.737 100.983 104.99 99.77C107.33 98.6433 108.89 97.6467 109.67 96.78C110.45 96 110.927 95.61 111.1 95.61C111.273 95.61 111.317 95.87 111.23 96.39C111.143 96.9967 110.97 97.4733 110.71 97.82C109.237 99.2067 107.027 100.68 104.08 102.24C101.133 103.8 98.75 104.58 96.93 104.58C95.11 104.58 93.7667 104.277 92.9 103.67C90.1267 101.85 88.74 98.6867 88.74 94.18C88.74 89.6733 91.0367 83.0867 95.63 74.42C92.4233 74.68 89.4333 74.81 86.66 74.81C85.7067 74.81 75.5233 74.5067 56.11 73.9C49.9567 83.6067 45.0167 92.4467 41.29 100.42C40.1633 102.76 38.7767 103.93 37.13 103.93C35.57 103.93 34.79 103.28 34.79 101.98ZM128.282 97.69C127.329 97.69 126.462 97.56 125.682 97.3C120.136 95.74 117.362 92.62 117.362 87.94C117.362 81.8733 121.176 74.8533 128.802 66.88C136.429 58.9067 143.276 54.92 149.342 54.92C151.336 54.92 152.939 55.4833 154.152 56.61C155.452 57.65 156.102 58.95 156.102 60.51C156.102 65.3633 152.419 70 145.052 74.42C137.772 78.84 131.836 81.05 127.242 81.05C126.549 81.05 125.942 80.9633 125.422 80.79C124.122 83.13 123.472 85.6 123.472 88.2C123.472 92.7067 125.596 94.96 129.842 94.96C134.176 94.96 139.766 92.0567 146.612 86.25C151.899 82.0033 156.406 77.4967 160.132 72.73C160.912 71.69 161.562 71.17 162.082 71.17C162.689 71.17 162.992 71.43 162.992 71.95C162.992 72.47 162.646 73.2067 161.952 74.16C157.272 80.3133 151.639 85.7733 145.052 90.54C138.466 95.3067 132.876 97.69 128.282 97.69ZM152.852 60.25C152.852 59.21 151.726 58.69 149.472 58.69C147.306 58.69 144.186 60.38 140.112 63.76C134.652 68.2667 130.406 72.99 127.372 77.93C127.892 78.1033 128.456 78.19 129.062 78.19C132.356 78.19 136.732 76.4567 142.192 72.99C147.739 69.4367 151.206 65.58 152.592 61.42C152.766 60.9867 152.852 60.5967 152.852 60.25ZM160.111 89.5C160.111 92.1 161.541 93.4 164.401 93.4C167.261 93.4 170.944 91.8833 175.451 88.85C179.958 85.8167 184.334 81.7 188.581 76.5C189.621 75.1133 190.444 74.42 191.051 74.42C191.658 74.42 191.961 74.68 191.961 75.2C191.961 75.72 190.184 77.9733 186.631 81.96C177.964 91.4933 170.728 96.26 164.921 96.26C162.061 96.26 159.634 95.61 157.641 94.31C155.648 92.9233 154.651 90.8433 154.651 88.07C154.651 85.21 155.388 81.9167 156.861 78.19C159.374 72.2967 163.404 64.8867 168.951 55.96C179.091 39.4933 186.284 31.26 190.531 31.26C191.398 31.26 192.264 31.6067 193.131 32.3C194.084 32.9067 194.604 33.6 194.691 34.38C192.698 37.0667 188.841 42.2233 183.121 49.85C177.488 57.4767 173.588 62.98 171.421 66.36C169.254 69.6533 167.608 72.1233 166.481 73.77C165.441 75.4167 164.661 76.7167 164.141 77.67C163.621 78.5367 163.014 79.7067 162.321 81.18C160.848 84.1267 160.111 86.9 160.111 89.5ZM191.722 89.5C191.722 92.1 193.152 93.4 196.012 93.4C198.872 93.4 202.556 91.8833 207.062 88.85C211.569 85.8167 215.946 81.7 220.192 76.5C221.232 75.1133 222.056 74.42 222.662 74.42C223.269 74.42 223.572 74.68 223.572 75.2C223.572 75.72 221.796 77.9733 218.242 81.96C209.576 91.4933 202.339 96.26 196.532 96.26C193.672 96.26 191.246 95.61 189.252 94.31C187.259 92.9233 186.262 90.8433 186.262 88.07C186.262 85.21 186.999 81.9167 188.472 78.19C190.986 72.2967 195.016 64.8867 200.562 55.96C210.702 39.4933 217.896 31.26 222.142 31.26C223.009 31.26 223.876 31.6067 224.742 32.3C225.696 32.9067 226.216 33.6 226.302 34.38C224.309 37.0667 220.452 42.2233 214.732 49.85C209.099 57.4767 205.199 62.98 203.032 66.36C200.866 69.6533 199.219 72.1233 198.092 73.77C197.052 75.4167 196.272 76.7167 195.752 77.67C195.232 78.5367 194.626 79.7067 193.932 81.18C192.459 84.1267 191.722 86.9 191.722 89.5ZM252.194 68.44C252.194 71.4733 249.29 76.5433 243.484 83.65C236.637 92.0567 230.787 96.26 225.934 96.26H223.854C221.6 96.26 219.824 95.09 218.524 92.75C217.484 91.1033 216.964 89.2833 216.964 87.29C216.964 82.09 220.734 74.81 228.274 65.45C235.9 56.0033 242.054 51.28 246.734 51.28C251.154 51.28 253.364 53.62 253.364 58.3C253.364 59.5133 253.147 61.0733 252.714 62.98C252.8 63.24 253.624 63.37 255.184 63.37C256.744 63.37 259.127 62.5467 262.334 60.9C262.247 62.3733 258.824 64.4967 252.064 67.27C252.15 67.6167 252.194 68.0067 252.194 68.44ZM243.744 61.68C240.797 61.68 236.594 65.1467 231.134 72.08C225.76 79.0133 223.074 84.1267 223.074 87.42C223.074 90.7133 224.114 92.36 226.194 92.36C229.92 92.36 234.644 88.98 240.364 82.22C246.084 75.46 248.944 70.6067 248.944 67.66C247.557 66.88 245.824 64.8867 243.744 61.68ZM298.668 80.79C298.061 80.79 297.888 79.9667 298.148 78.32C299.188 72.34 303.218 64.1067 310.238 53.62C317.258 43.0467 322.024 37.76 324.538 37.76C325.578 37.76 326.704 37.9767 327.918 38.41C329.218 38.7567 329.868 39.2767 329.868 39.97C329.868 40.23 329.694 40.5333 329.348 40.88C325.708 44.6933 320.334 51.28 313.228 60.64C306.208 69.9133 302.221 75.59 301.268 77.67C300.401 79.75 299.534 80.79 298.668 80.79ZM295.678 87.42C296.978 87.42 298.191 87.8533 299.318 88.72C300.444 89.5 301.008 90.4533 301.008 91.58C301.008 92.7067 300.444 93.7033 299.318 94.57C298.278 95.35 297.108 95.74 295.808 95.74C294.508 95.74 293.294 95.2633 292.168 94.31C291.128 93.3567 290.608 92.2733 290.608 91.06C290.608 88.6333 292.298 87.42 295.678 87.42Z" fill="black"/>
</svg>
