<svg width="1409" height="326" viewBox="0 0 1409 326" fill="none" xmlns="http://www.w3.org/2000/svg">
<path d="M460.746 216.809C461.84 216.262 462.842 215.988 463.754 215.988C464.757 215.988 465.531 216.353 466.078 217.082C466.625 217.72 466.898 218.54 466.898 219.543C466.898 220.819 466.397 222.277 465.395 223.918C464.392 225.467 462.842 226.88 460.746 228.156L440.375 240.051C433.812 243.879 426.202 248.391 417.543 253.586C408.884 258.69 399.314 264.387 388.832 270.676C379.171 276.418 371.059 280.428 364.496 282.707C358.025 285.077 352.602 286.262 348.227 286.262C345.31 286.262 342.895 285.806 340.98 284.895C339.066 284.074 337.471 282.935 336.195 281.477C335.01 280.109 334.145 278.514 333.598 276.691C333.142 274.868 332.914 273 332.914 271.086C332.914 265.982 333.415 259.51 334.418 251.672C335.512 243.833 336.924 235.174 338.656 225.695C340.479 216.125 342.53 206.053 344.809 195.48C347.178 184.908 349.639 174.335 352.191 163.762C354.743 153.098 357.296 142.707 359.848 132.59C362.4 122.473 364.77 113.13 366.957 104.562C369.236 95.9948 371.241 88.5208 372.973 82.1406C374.796 75.6693 376.163 70.8385 377.074 67.6484L246.781 266.711C246.781 266.802 246.326 267.531 245.414 268.898C244.503 270.266 243.272 271.77 241.723 273.41C240.173 275.051 238.305 276.509 236.117 277.785C234.021 279.152 231.697 279.836 229.145 279.836C226.775 279.836 225.225 279.152 224.496 277.785C223.858 276.418 223.539 275.051 223.539 273.684C223.539 273.137 223.539 272.59 223.539 272.043C223.63 271.405 223.767 270.995 223.949 270.812L237.895 124.387C234.158 130.858 229.509 138.651 223.949 147.766C218.48 156.789 212.283 166.542 205.355 177.023C198.52 187.414 191.046 198.306 182.934 209.699C174.913 221.001 166.482 232.167 157.641 243.195C160.102 248.846 161.332 254.908 161.332 261.379C161.332 266.392 160.603 271.451 159.145 276.555C157.777 281.659 155.727 286.581 152.992 291.32C150.349 296.06 147.068 300.48 143.148 304.582C139.32 308.775 134.945 312.375 130.023 315.383C125.193 318.482 119.861 320.897 114.027 322.629C108.194 324.361 101.951 325.227 95.2969 325.227C95.0234 325.227 94.6589 325.044 94.2031 324.68C93.8385 324.315 93.474 323.859 93.1094 323.312C92.8359 322.766 92.5625 322.173 92.2891 321.535C92.0156 320.897 91.8789 320.35 91.8789 319.895C91.8789 319.712 91.9701 319.484 92.1523 319.211C92.4258 318.938 92.7448 318.801 93.1094 318.801C100.766 318.801 107.966 317.069 114.711 313.605C121.547 310.233 127.471 305.858 132.484 300.48C137.589 295.194 141.599 289.27 144.516 282.707C147.523 276.236 149.027 269.855 149.027 263.566C149.027 260.285 148.617 257.141 147.797 254.133C139.685 262.792 131.345 270.949 122.777 278.605C114.21 286.262 105.551 292.915 96.8008 298.566C88.1419 304.309 79.4375 308.82 70.6875 312.102C61.9375 315.474 53.3242 317.16 44.8477 317.16C38.194 317.16 32.1784 316.522 26.8008 315.246C21.4232 314.061 16.8203 312.147 12.9922 309.504C9.16406 306.952 6.20182 303.625 4.10547 299.523C2.00911 295.422 0.960938 290.546 0.960938 284.895C0.960938 277.421 2.60156 270.539 5.88281 264.25C9.07292 257.961 13.3112 252.264 18.5977 247.16C23.9753 242.056 30.1732 237.544 37.1914 233.625C44.2096 229.706 51.5013 226.47 59.0664 223.918C66.7227 221.275 74.3333 219.315 81.8984 218.039C89.5547 216.672 96.7096 215.988 103.363 215.988C113.025 215.988 121.319 217.082 128.246 219.27C135.264 221.366 141.143 224.328 145.883 228.156C157.094 214.393 167.895 199.901 178.285 184.68C188.767 169.458 198.292 154.146 206.859 138.742C215.427 123.339 222.764 108.208 228.871 93.3516C234.978 78.4036 239.307 64.3672 241.859 51.2422C241.859 51.0599 242.178 49.6927 242.816 47.1406C243.454 44.4974 244.411 41.3073 245.688 37.5703C246.964 33.7422 248.467 29.6406 250.199 25.2656C252.022 20.8906 254.027 16.8802 256.215 13.2344C258.493 9.4974 260.954 6.39844 263.598 3.9375C266.332 1.47656 269.249 0.246094 272.348 0.246094C274.9 0.246094 276.951 0.838542 278.5 2.02344C280.049 3.11719 281.234 4.52995 282.055 6.26172C282.966 7.90234 283.559 9.77083 283.832 11.8672C284.197 13.9635 284.379 15.9688 284.379 17.8828C284.379 18.9766 284.333 20.0247 284.242 21.0273C284.242 22.0299 284.197 22.8958 284.105 23.625L258.266 225.832L386.098 33.6055C386.371 31.3268 386.827 28.9115 387.465 26.3594C388.194 23.7161 389.197 21.3008 390.473 19.1133C391.84 16.8346 393.526 14.9661 395.531 13.5078C397.628 12.0495 400.18 11.3203 403.188 11.3203C406.286 11.3203 408.702 11.5938 410.434 12.1406C412.257 12.5964 413.624 13.1888 414.535 13.918C415.447 14.6471 415.993 15.513 416.176 16.5156C416.449 17.4271 416.586 18.3385 416.586 19.25C416.586 24.8099 415.766 32.1016 414.125 41.125C412.576 50.1484 410.479 60.2656 407.836 71.4766C405.193 82.5964 402.185 94.4453 398.812 107.023C395.44 119.602 392.022 132.225 388.559 144.895C385.095 157.473 381.677 169.777 378.305 181.809C374.932 193.749 371.924 204.686 369.281 214.621C366.638 224.556 364.496 233.124 362.855 240.324C361.306 247.525 360.531 252.674 360.531 255.773C360.531 256.867 360.577 258.098 360.668 259.465C360.85 260.832 361.215 262.108 361.762 263.293C362.309 264.387 363.129 265.344 364.223 266.164C365.316 266.984 366.82 267.395 368.734 267.395C370.557 267.395 372.836 266.939 375.57 266.027C378.396 265.025 381.905 263.339 386.098 260.969C400.225 252.948 413.533 245.246 426.02 237.863C438.507 230.389 450.082 223.371 460.746 216.809ZM46.8984 308.137C51.7292 308.137 57.4714 306.405 64.125 302.941C70.8698 299.478 78.1615 294.647 86 288.449C93.8385 282.342 102.087 275.051 110.746 266.574C119.405 258.007 128.109 248.71 136.859 238.684C133.305 236.04 128.793 233.944 123.324 232.395C117.947 230.845 111.566 230.07 104.184 230.07C97.8034 230.07 91.1953 230.617 84.3594 231.711C77.5234 232.805 70.7786 234.4 64.125 236.496C57.5625 238.592 51.319 241.19 45.3945 244.289C39.4701 247.297 34.2747 250.852 29.8086 254.953C25.4336 258.964 21.9245 263.475 19.2812 268.488C16.638 273.41 15.3164 278.788 15.3164 284.621C15.3164 292.824 18.1419 298.794 23.793 302.531C29.444 306.268 37.1458 308.137 46.8984 308.137ZM589.262 161.848C594.457 161.848 599.06 162.896 603.07 164.992C607.172 167.089 610.59 169.96 613.324 173.605C616.15 177.16 618.292 181.353 619.75 186.184C621.208 191.014 621.938 196.164 621.938 201.633C621.938 204.823 621.573 208.332 620.844 212.16C620.115 215.988 619.066 219.953 617.699 224.055C616.332 228.065 614.646 232.076 612.641 236.086C610.727 240.096 608.585 243.788 606.215 247.16C607.947 246.249 610.043 245.109 612.504 243.742C614.965 242.375 617.562 240.917 620.297 239.367C623.122 237.727 626.039 236.04 629.047 234.309C632.146 232.577 635.154 230.891 638.07 229.25L659.262 216.809C659.9 216.444 660.766 216.262 661.859 216.262C663.956 216.262 665.004 217.355 665.004 219.543C665.004 222.551 663.09 225.422 659.262 228.156C655.98 230.344 651.697 233.078 646.41 236.359C641.124 239.641 635.382 242.876 629.184 246.066C623.077 249.165 616.833 251.945 610.453 254.406C604.164 256.776 598.285 258.143 592.816 258.508C585.707 263.794 577.367 268.078 567.797 271.359C558.227 274.549 547.061 276.145 534.301 276.145C528.012 276.145 522.68 275.598 518.305 274.504C514.021 273.41 510.557 271.815 507.914 269.719C505.271 267.622 503.357 265.07 502.172 262.062C500.987 258.964 500.395 255.409 500.395 251.398C500.395 245.565 501.579 239.322 503.949 232.668C506.319 226.014 509.236 219.543 512.699 213.254C516.254 206.874 520.036 200.949 524.047 195.48C528.057 190.012 531.703 185.5 534.984 181.945C532.068 184.497 527.921 187.551 522.543 191.105C517.257 194.66 511.241 198.488 504.496 202.59C497.842 206.6 490.733 210.793 483.168 215.168C475.694 219.543 468.266 223.872 460.883 228.156C459.789 228.612 458.786 228.84 457.875 228.84C456.69 228.84 455.779 228.521 455.141 227.883C454.503 227.154 454.184 226.242 454.184 225.148C454.184 223.872 454.73 222.551 455.824 221.184C456.827 219.725 458.513 218.267 460.883 216.809C474.737 208.697 486.54 201.724 496.293 195.891C506.046 189.966 514.477 184.953 521.586 180.852C528.695 176.75 534.893 173.469 540.18 171.008C545.466 168.547 550.525 166.633 555.355 165.266C560.277 163.898 565.382 162.987 570.668 162.531C575.954 162.076 582.152 161.848 589.262 161.848ZM534.574 264.387C540.316 264.387 545.922 263.202 551.391 260.832C556.859 258.462 562.191 255.227 567.387 251.125C566.202 249.758 565.382 248.208 564.926 246.477C564.47 244.745 564.242 242.967 564.242 241.145C564.242 237.954 565.29 235.585 567.387 234.035C569.483 232.395 571.99 231.574 574.906 231.574C578.005 231.574 581.013 232.486 583.93 234.309C586.846 232.212 589.626 229.706 592.27 226.789C594.913 223.872 597.191 220.773 599.105 217.492C601.111 214.211 602.66 210.839 603.754 207.375C604.939 203.911 605.531 200.539 605.531 197.258C605.531 194.432 604.984 191.743 603.891 189.191C602.888 186.548 601.202 184.27 598.832 182.355C596.553 180.441 593.5 178.938 589.672 177.844C585.935 176.659 581.378 176.066 576 176.066C571.534 176.066 567.068 177.251 562.602 179.621C558.227 181.991 553.988 185.181 549.887 189.191C545.876 193.111 542.094 197.622 538.539 202.727C535.076 207.74 532.068 212.935 529.516 218.312C526.964 223.69 524.958 228.977 523.5 234.172C522.042 239.367 521.312 244.107 521.312 248.391C521.312 253.13 522.361 257.004 524.457 260.012C526.553 262.928 529.926 264.387 534.574 264.387ZM807.465 82.2773C802.27 82.2773 797.348 83.3711 792.699 85.5586C788.051 87.7461 783.63 90.7539 779.438 94.582C775.336 98.4102 771.462 102.967 767.816 108.254C764.171 113.54 760.753 119.237 757.562 125.344C754.372 131.451 751.41 137.876 748.676 144.621C746.033 151.366 743.617 158.156 741.43 164.992C753.734 156.151 764.535 147.766 773.832 139.836C783.129 131.906 790.922 124.66 797.211 118.098C803.5 111.535 808.194 105.747 811.293 100.734C814.483 95.6302 816.078 91.4831 816.078 88.293C816.078 86.4701 815.486 85.0117 814.301 83.918C813.207 82.8242 810.928 82.2773 807.465 82.2773ZM821.273 162.941C823.461 164.035 824.555 165.357 824.555 166.906C824.555 169.276 823.643 171.464 821.82 173.469C820.089 175.474 817.764 177.297 814.848 178.938C812.022 180.487 808.786 181.854 805.141 183.039C801.586 184.224 797.986 185.227 794.34 186.047C790.785 186.867 787.367 187.505 784.086 187.961C780.44 188.417 777.706 188.599 775.883 188.508C768.773 188.326 761.755 188.189 754.828 188.098L734.73 187.824C731.996 198.033 729.854 206.783 728.305 214.074C726.755 221.275 725.57 227.564 724.75 232.941C724.021 238.228 723.565 242.831 723.383 246.75C723.201 250.669 723.109 254.452 723.109 258.098C723.109 260.103 723.383 261.698 723.93 262.883C724.477 264.068 725.388 264.66 726.664 264.66C731.13 264.66 736.052 263.156 741.43 260.148C746.898 257.141 753.005 253.312 759.75 248.664L782.445 233.215C794.841 224.738 804.138 219.27 810.336 216.809C810.792 216.626 811.703 216.216 813.07 215.578C813.799 215.305 814.483 215.168 815.121 215.168C817.126 215.168 818.129 216.216 818.129 218.312C818.129 219.68 817.536 221.275 816.352 223.098C815.076 224.829 813.07 226.516 810.336 228.156C796.391 236.542 786.091 243.104 779.438 247.844L756.059 264.797C749.132 269.719 742.797 273.638 737.055 276.555C731.221 279.471 725.342 280.93 719.418 280.93C714.314 280.93 710.349 279.562 707.523 276.828C704.789 274.094 702.738 270.767 701.371 266.848C700.095 262.837 699.32 258.553 699.047 253.996C698.773 249.439 698.637 245.383 698.637 241.828C698.637 234.901 699.001 228.02 699.73 221.184C700.551 214.348 701.599 207.785 702.875 201.496L681.41 215.031L659.398 228.156C658.943 228.43 658.441 228.566 657.895 228.566C656.892 228.566 655.935 228.156 655.023 227.336C654.112 226.424 653.656 225.331 653.656 224.055C653.656 223.052 654.066 221.913 654.887 220.637C655.707 219.361 657.211 218.085 659.398 216.809L683.598 203C691.254 198.443 698.637 193.84 705.746 189.191L706.02 187.961L688.52 188.371C687.608 188.371 686.742 188.417 685.922 188.508C685.102 188.599 684.327 188.645 683.598 188.645C682.048 188.645 680.772 188.189 679.77 187.277C678.858 186.275 678.311 185.181 678.129 183.996C678.129 182.993 678.904 182.036 680.453 181.125C682.003 180.214 684.19 179.393 687.016 178.664C689.841 177.844 693.214 177.115 697.133 176.477C701.052 175.747 705.382 175.109 710.121 174.562C715.59 157.427 721.514 142.57 727.895 129.992C734.275 117.414 741.43 107.023 749.359 98.8203C757.38 90.6172 766.312 84.5104 776.156 80.5C786 76.4896 797.12 74.4844 809.516 74.4844C815.258 74.4844 819.405 75.3958 821.957 77.2188C824.6 78.9505 825.922 81.4115 825.922 84.6016C825.922 88.9766 823.962 94.263 820.043 100.461C816.215 106.659 810.792 113.54 803.773 121.105C796.846 128.579 788.507 136.555 778.754 145.031C769.092 153.417 758.383 162.03 746.625 170.871C752.458 170.324 758.383 169.823 764.398 169.367L782.172 167.863C788.005 167.408 793.702 166.906 799.262 166.359C804.913 165.812 810.29 165.22 815.395 164.582C816.397 164.309 817.126 163.944 817.582 163.488C818.038 162.941 818.812 162.668 819.906 162.668C820.271 162.668 820.727 162.759 821.273 162.941ZM964.008 228.156C949.88 236.268 937.895 243.332 928.051 249.348C918.207 255.272 909.822 260.194 902.895 264.113C895.967 267.941 890.089 270.812 885.258 272.727C880.518 274.549 876.189 275.461 872.27 275.461C868.441 275.461 865.16 275.005 862.426 274.094C859.783 273.182 857.595 271.952 855.863 270.402C854.132 268.853 852.855 266.984 852.035 264.797C851.306 262.609 850.941 260.24 850.941 257.688C850.941 255.773 851.352 253.814 852.172 251.809C852.992 249.803 853.995 247.753 855.18 245.656C856.456 243.56 857.777 241.372 859.145 239.094C860.512 236.724 861.788 234.217 862.973 231.574L883.754 185.09L810.336 228.156C809.151 228.612 808.331 228.84 807.875 228.84C806.781 228.84 805.824 228.475 805.004 227.746C804.092 227.017 803.637 226.06 803.637 224.875C803.637 223.781 804.138 222.551 805.141 221.184C806.052 219.816 807.784 218.358 810.336 216.809L845.746 196.164C850.395 193.43 855.089 190.695 859.828 187.961C864.568 185.227 868.988 182.674 873.09 180.305C877.283 177.935 881.02 175.839 884.301 174.016C887.673 172.102 890.271 170.643 892.094 169.641H909.73C910.095 169.914 910.414 170.37 910.688 171.008C910.961 171.646 911.098 172.603 911.098 173.879C911.098 176.249 910.414 179.621 909.047 183.996C907.68 188.28 905.948 193.111 903.852 198.488C901.846 203.866 899.568 209.517 897.016 215.441C894.555 221.275 892.23 226.835 890.043 232.121C887.855 237.316 885.577 242.512 883.207 247.707C880.837 252.902 878.467 258.234 876.098 263.703C878.559 263.703 882.432 262.473 887.719 260.012C893.096 257.551 899.568 254.224 907.133 250.031C914.789 245.747 923.402 240.78 932.973 235.129C942.634 229.387 952.979 223.28 964.008 216.809C964.372 216.444 965.056 216.262 966.059 216.262C967.152 216.262 968.155 216.626 969.066 217.355C970.069 218.085 970.57 219.087 970.57 220.363C970.57 221.457 970.069 222.688 969.066 224.055C968.155 225.331 966.469 226.698 964.008 228.156ZM926.273 121.789C926.82 121.789 927.823 121.835 929.281 121.926C930.831 121.926 932.562 122.017 934.477 122.199C936.391 122.382 938.396 122.701 940.492 123.156C942.589 123.521 944.503 124.113 946.234 124.934C947.966 125.663 949.424 126.62 950.609 127.805C951.794 128.99 952.432 130.448 952.523 132.18L932.699 147.219L923.676 151.457C922.035 151.457 920.759 151.001 919.848 150.09C918.936 149.178 918.253 148.221 917.797 147.219L926.273 121.789ZM1092.39 161.848C1097.58 161.848 1102.18 162.896 1106.2 164.992C1110.3 167.089 1113.71 169.96 1116.45 173.605C1119.27 177.16 1121.42 181.353 1122.88 186.184C1124.33 191.014 1125.06 196.164 1125.06 201.633C1125.06 204.823 1124.7 208.332 1123.97 212.16C1123.24 215.988 1122.19 219.953 1120.82 224.055C1119.46 228.065 1117.77 232.076 1115.77 236.086C1113.85 240.096 1111.71 243.788 1109.34 247.16C1111.07 246.249 1113.17 245.109 1115.63 243.742C1118.09 242.375 1120.69 240.917 1123.42 239.367C1126.25 237.727 1129.16 236.04 1132.17 234.309C1135.27 232.577 1138.28 230.891 1141.2 229.25L1162.39 216.809C1163.02 216.444 1163.89 216.262 1164.98 216.262C1167.08 216.262 1168.13 217.355 1168.13 219.543C1168.13 222.551 1166.21 225.422 1162.39 228.156C1159.11 230.344 1154.82 233.078 1149.54 236.359C1144.25 239.641 1138.51 242.876 1132.31 246.066C1126.2 249.165 1119.96 251.945 1113.58 254.406C1107.29 256.776 1101.41 258.143 1095.94 258.508C1088.83 263.794 1080.49 268.078 1070.92 271.359C1061.35 274.549 1050.19 276.145 1037.43 276.145C1031.14 276.145 1025.8 275.598 1021.43 274.504C1017.15 273.41 1013.68 271.815 1011.04 269.719C1008.4 267.622 1006.48 265.07 1005.3 262.062C1004.11 258.964 1003.52 255.409 1003.52 251.398C1003.52 245.565 1004.7 239.322 1007.07 232.668C1009.44 226.014 1012.36 219.543 1015.82 213.254C1019.38 206.874 1023.16 200.949 1027.17 195.48C1031.18 190.012 1034.83 185.5 1038.11 181.945C1035.19 184.497 1031.05 187.551 1025.67 191.105C1020.38 194.66 1014.37 198.488 1007.62 202.59C1000.97 206.6 993.858 210.793 986.293 215.168C978.819 219.543 971.391 223.872 964.008 228.156C962.914 228.612 961.911 228.84 961 228.84C959.815 228.84 958.904 228.521 958.266 227.883C957.628 227.154 957.309 226.242 957.309 225.148C957.309 223.872 957.855 222.551 958.949 221.184C959.952 219.725 961.638 218.267 964.008 216.809C977.862 208.697 989.665 201.724 999.418 195.891C1009.17 189.966 1017.6 184.953 1024.71 180.852C1031.82 176.75 1038.02 173.469 1043.3 171.008C1048.59 168.547 1053.65 166.633 1058.48 165.266C1063.4 163.898 1068.51 162.987 1073.79 162.531C1079.08 162.076 1085.28 161.848 1092.39 161.848ZM1037.7 264.387C1043.44 264.387 1049.05 263.202 1054.52 260.832C1059.98 258.462 1065.32 255.227 1070.51 251.125C1069.33 249.758 1068.51 248.208 1068.05 246.477C1067.6 244.745 1067.37 242.967 1067.37 241.145C1067.37 237.954 1068.42 235.585 1070.51 234.035C1072.61 232.395 1075.11 231.574 1078.03 231.574C1081.13 231.574 1084.14 232.486 1087.05 234.309C1089.97 232.212 1092.75 229.706 1095.39 226.789C1098.04 223.872 1100.32 220.773 1102.23 217.492C1104.24 214.211 1105.79 210.839 1106.88 207.375C1108.06 203.911 1108.66 200.539 1108.66 197.258C1108.66 194.432 1108.11 191.743 1107.02 189.191C1106.01 186.548 1104.33 184.27 1101.96 182.355C1099.68 180.441 1096.62 178.938 1092.8 177.844C1089.06 176.659 1084.5 176.066 1079.12 176.066C1074.66 176.066 1070.19 177.251 1065.73 179.621C1061.35 181.991 1057.11 185.181 1053.01 189.191C1049 193.111 1045.22 197.622 1041.66 202.727C1038.2 207.74 1035.19 212.935 1032.64 218.312C1030.09 223.69 1028.08 228.977 1026.62 234.172C1025.17 239.367 1024.44 244.107 1024.44 248.391C1024.44 253.13 1025.49 257.004 1027.58 260.012C1029.68 262.928 1033.05 264.387 1037.7 264.387ZM1327.82 184.406C1324.35 184.406 1320.02 185.409 1314.83 187.414C1309.63 189.328 1303.94 192.017 1297.74 195.48C1291.54 198.853 1285.07 202.863 1278.32 207.512C1271.67 212.16 1265.11 217.219 1258.64 222.688C1252.26 228.156 1246.15 233.944 1240.32 240.051C1234.57 246.066 1229.56 252.128 1225.28 258.234C1224.82 258.69 1224.59 259.738 1224.59 261.379C1224.59 262.928 1224.32 264.569 1223.77 266.301C1223.32 268.033 1222.36 269.582 1220.9 270.949C1219.44 272.316 1217.03 273 1213.66 273C1211.29 273 1209.42 272.727 1208.05 272.18C1206.77 271.633 1205.77 270.904 1205.04 269.992C1204.4 268.99 1203.99 267.85 1203.81 266.574C1203.63 265.207 1203.54 263.703 1203.54 262.062C1203.54 260.422 1203.99 258.007 1204.91 254.816C1205.82 251.626 1207 247.935 1208.46 243.742C1209.92 239.549 1211.56 235.038 1213.38 230.207C1215.21 225.376 1217.03 220.546 1218.85 215.715C1220.77 210.884 1222.54 206.19 1224.18 201.633C1225.92 197.076 1227.37 192.974 1228.56 189.328L1162.52 228.156C1162.07 228.247 1161.7 228.339 1161.43 228.43C1161.07 228.43 1160.79 228.43 1160.61 228.43C1159.33 228.43 1158.42 228.111 1157.88 227.473C1157.24 226.743 1156.92 225.878 1156.92 224.875C1156.92 223.599 1157.42 222.232 1158.42 220.773C1159.33 219.224 1160.7 217.902 1162.52 216.809C1176.2 208.697 1187.45 202.043 1196.29 196.848C1205.23 191.561 1212.38 187.323 1217.76 184.133C1223.14 180.943 1227.15 178.573 1229.79 177.023C1232.52 175.474 1234.57 174.335 1235.94 173.605C1237.22 172.876 1238.36 172.375 1239.36 172.102C1240.45 171.828 1241.64 171.691 1242.91 171.691C1245.56 171.691 1247.7 172.466 1249.34 174.016C1251.07 175.565 1251.94 177.297 1251.94 179.211C1251.94 181.125 1251.35 183.768 1250.16 187.141C1248.98 190.422 1247.52 194.022 1245.79 197.941C1244.05 201.861 1242.28 205.871 1240.45 209.973C1238.63 213.983 1237.08 217.72 1235.8 221.184C1235.26 222.551 1234.8 223.69 1234.44 224.602C1234.16 225.422 1233.8 226.379 1233.34 227.473C1232.98 228.566 1232.43 229.979 1231.7 231.711C1230.97 233.352 1229.93 235.676 1228.56 238.684C1232.39 233.762 1236.85 228.612 1241.96 223.234C1247.15 217.857 1252.76 212.616 1258.77 207.512C1264.88 202.316 1271.35 197.395 1278.19 192.746C1285.11 188.098 1292.22 184.042 1299.52 180.578C1306.9 177.023 1314.42 174.243 1322.07 172.238C1329.73 170.142 1337.34 169.094 1344.91 169.094C1349.55 169.094 1352.74 170.096 1354.48 172.102C1356.3 174.016 1357.21 176.659 1357.21 180.031C1357.21 182.766 1356.71 186.092 1355.71 190.012C1354.7 193.931 1353.34 198.215 1351.61 202.863C1349.87 207.421 1347.91 212.342 1345.73 217.629C1343.54 222.824 1341.21 228.111 1338.75 233.488C1336.38 238.775 1333.97 244.107 1331.51 249.484C1329.14 254.862 1326.9 260.012 1324.81 264.934C1330 262.837 1335.43 260.103 1341.08 256.73C1346.73 253.358 1352.74 249.576 1359.12 245.383C1365.6 241.19 1372.39 236.678 1379.5 231.848C1386.7 226.926 1394.4 221.913 1402.6 216.809C1403.24 216.444 1404.11 216.262 1405.2 216.262C1407.39 216.262 1408.48 217.492 1408.48 219.953C1408.48 221.229 1407.98 222.642 1406.98 224.191C1405.97 225.65 1404.52 226.971 1402.6 228.156C1391.76 234.901 1381.96 241.327 1373.21 247.434C1364.46 253.54 1356.44 258.964 1349.14 263.703C1341.94 268.443 1335.34 272.18 1329.32 274.914C1323.4 277.74 1317.88 279.152 1312.78 279.152C1309.68 279.152 1307.04 278.742 1304.85 277.922C1302.66 277.193 1300.84 276.19 1299.38 274.914C1298.01 273.638 1296.96 272.134 1296.23 270.402C1295.6 268.579 1295.28 266.711 1295.28 264.797C1295.28 262.701 1295.69 260.65 1296.51 258.645C1297.42 256.548 1298.65 254.315 1300.2 251.945C1303.02 245.747 1306.17 239.276 1309.63 232.531C1313.1 225.695 1316.29 219.224 1319.2 213.117C1322.12 207.01 1324.58 201.587 1326.59 196.848C1328.59 192.108 1329.59 188.69 1329.59 186.594C1329.59 185.135 1329 184.406 1327.82 184.406Z" fill="white"/>
</svg>
