<svg width="55" height="384" viewBox="0 0 55 384" fill="none" xmlns="http://www.w3.org/2000/svg">
<path d="M50.8281 355.078C50.6719 353.859 50.1875 352.344 49.375 350.531C48.5312 348.719 47.4531 346.734 46.1406 344.578C44.7969 342.422 43.25 340.172 41.5 337.828C39.75 335.453 37.875 333.094 35.875 330.75C33.875 328.406 31.7812 326.141 29.5938 323.953C27.4063 321.734 25.2188 319.719 23.0313 317.906C22.8438 317.781 22.5156 317.703 22.0469 317.672C21.5469 317.609 21.0469 317.484 20.5469 317.297C20.0156 317.078 19.5625 316.75 19.1875 316.312C18.7813 315.844 18.5781 315.141 18.5781 314.203C18.5781 313.422 18.6719 312.797 18.8594 312.328C19.0469 311.859 19.3125 311.516 19.6563 311.297C19.9688 311.047 20.3594 310.891 20.8281 310.828C21.2656 310.766 21.7656 310.734 22.3281 310.734C22.8906 310.734 23.6719 310.875 24.6719 311.156C25.6406 311.406 26.7656 311.75 28.0469 312.188C29.2969 312.625 30.6563 313.125 32.125 313.688C33.5938 314.25 35.0781 314.828 36.5781 315.422C38.0469 315.984 39.5156 316.547 40.9844 317.109C42.4219 317.641 43.75 318.109 44.9688 318.516C44.75 318.109 44.4062 317.516 43.9375 316.734C43.4688 315.953 42.9219 315.062 42.2969 314.062C41.6719 313.031 41 311.953 40.2812 310.828C39.5625 309.672 38.8438 308.531 38.125 307.406L32.7344 298.828C32.6094 298.609 32.5469 298.375 32.5469 298.125C32.5469 297.781 32.6875 297.469 32.9688 297.188C33.2188 296.906 33.5469 296.766 33.9531 296.766C34.3906 296.766 34.8438 296.938 35.3125 297.281C35.75 297.594 36.1875 298.109 36.625 298.828L49.6094 320.953C49.7656 321.203 50.0156 321.453 50.3594 321.703C50.6719 321.922 50.9844 322.188 51.2969 322.5C51.6094 322.781 51.875 323.141 52.0938 323.578C52.3438 323.984 52.4688 324.516 52.4688 325.172C52.4688 325.797 52.3125 326.312 52 326.719C51.6562 327.125 51.2031 327.328 50.6406 327.328C49.9219 327.328 48.9844 327.156 47.8281 326.812C46.6719 326.438 45.4062 325.984 44.0312 325.453C42.625 324.891 41.1719 324.266 39.6719 323.578C38.1406 322.859 36.6562 322.172 35.2188 321.516C33.75 320.828 32.375 320.203 31.0938 319.641C29.7813 319.047 28.6563 318.578 27.7188 318.234C29.4063 319.578 31.2344 321.156 33.2031 322.969C35.1719 324.781 37.1406 326.781 39.1094 328.969C41.0469 331.125 42.9375 333.422 44.7812 335.859C46.5938 338.297 48.2031 340.812 49.6094 343.406C50.9844 346 52.0938 348.625 52.9375 351.281C53.7812 353.938 54.2031 356.578 54.2031 359.203C54.2031 360.703 53.7969 361.734 52.9844 362.297C52.2031 362.859 51.1406 363.141 49.7969 363.141C48.5781 363.141 47.1406 362.938 45.4844 362.531C43.8281 362.125 42.0625 361.594 40.1875 360.938C38.3125 360.281 36.3906 359.547 34.4219 358.734C32.4531 357.891 30.5625 357.078 28.75 356.297C26.9375 355.484 25.25 354.734 23.6875 354.047C22.125 353.328 20.8125 352.75 19.75 352.312C20.5312 353.781 21.5 355.531 22.6562 357.562C23.8125 359.562 25.125 361.781 26.5938 364.219C28.0312 366.656 29.6094 369.297 31.3281 372.141C33.0156 374.953 34.7812 377.906 36.625 381C36.8125 381.344 36.9062 381.656 36.9062 381.938C36.9062 382.312 36.7812 382.641 36.5312 382.922C36.2812 383.203 35.9531 383.344 35.5469 383.344C35.1719 383.344 34.75 383.156 34.2812 382.781C33.7812 382.438 33.2656 381.844 32.7344 381C30.3281 377.031 28.125 373.266 26.125 369.703C24.125 366.141 22.4219 362.922 21.0156 360.047C19.5781 357.141 18.4688 354.672 17.6875 352.641C16.875 350.578 16.4688 349.094 16.4688 348.188C16.4688 346.312 16.8438 345 17.5938 344.25C18.3438 343.469 19.375 343.078 20.6875 343.078C22.0312 343.078 23.5938 343.422 25.375 344.109C27.125 344.766 28.9531 345.594 30.8594 346.594C32.7656 347.594 34.6875 348.672 36.625 349.828C38.5625 350.984 40.3906 352.062 42.1094 353.062C43.8281 354.062 45.3594 354.906 46.7031 355.594C48.0469 356.25 49.0781 356.578 49.7969 356.578C50.5156 356.578 50.875 356.219 50.875 355.5C50.875 355.25 50.8594 355.109 50.8281 355.078ZM32.7344 216.516C32.6094 216.297 32.5469 216.062 32.5469 215.812C32.5469 215.406 32.6875 215.062 32.9688 214.781C33.2188 214.5 33.5625 214.359 34 214.359C34.4063 214.359 34.8438 214.516 35.3125 214.828C35.75 215.141 36.1875 215.703 36.625 216.516C38.0313 218.859 39.2188 220.812 40.1875 222.375C41.125 223.906 41.9531 225.219 42.6719 226.312C43.3594 227.375 43.9844 228.328 44.5469 229.172C45.0781 229.984 45.6406 230.844 46.2344 231.75C46.8281 232.625 47.4844 233.656 48.2031 234.844C48.9219 236 49.8125 237.469 50.875 239.25C52.0313 240.969 52.8906 242.75 53.4531 244.594C54.0156 246.406 54.2969 248.203 54.2969 249.984C54.2969 251.641 54.0469 253.234 53.5469 254.766C53.0469 256.297 52.2813 257.719 51.25 259.031C50.2188 260.312 48.9375 261.438 47.4063 262.406C45.8438 263.375 44 264.125 41.875 264.656C43.5625 267 45.1562 269.328 46.6562 271.641C48.125 273.953 49.4062 276.203 50.5 278.391C51.5938 280.578 52.4531 282.688 53.0781 284.719C53.7031 286.719 54.0156 288.594 54.0156 290.344C54.0156 292.625 53.2969 294.484 51.8594 295.922C50.3906 297.328 48.0938 298.031 44.9688 298.031C43.6562 298.031 42.1875 297.891 40.5625 297.609C38.9062 297.328 37.0938 296.875 35.125 296.25L36.625 298.781C36.75 299 36.8125 299.188 36.8125 299.344C36.8125 299.625 36.6875 299.844 36.4375 300C36.1562 300.188 35.8438 300.281 35.5 300.281C35.0312 300.281 34.4688 300 33.8125 299.438C33.125 298.906 32.4844 298.234 31.8906 297.422C31.2656 296.578 30.7344 295.672 30.2969 294.703C29.8594 293.703 29.6406 292.75 29.6406 291.844C29.6406 290.781 30.0469 289.875 30.8594 289.125C31.6719 288.375 33.0938 288 35.125 288C35.9688 288 36.8438 288.281 37.75 288.844C38.6562 289.406 39.5781 290.031 40.5156 290.719C41.4531 291.375 42.3906 291.984 43.3281 292.547C44.2656 293.109 45.2031 293.391 46.1406 293.391C47.5156 293.391 48.2031 292.75 48.2031 291.469C48.2031 290.312 47.8125 288.812 47.0312 286.969C46.25 285.094 45.2031 283.047 43.8906 280.828C42.5781 278.609 41.0625 276.297 39.3438 273.891C37.625 271.453 35.8438 269.078 34 266.766C32.6875 266.547 31.3594 266.438 30.0156 266.438C28.6719 266.406 27.2656 266.375 25.7969 266.344C24.2969 266.312 22.7031 266.219 21.0156 266.062C19.3281 265.906 17.4688 265.578 15.4375 265.078C14.5625 264.984 13.9063 264.734 13.4688 264.328C13.0313 263.891 12.8125 263.203 12.8125 262.266C12.8125 262.047 12.9063 261.812 13.0938 261.562C13.2813 261.312 13.5156 261.094 13.7969 260.906C14.0469 260.719 14.3125 260.562 14.5938 260.438C14.8438 260.312 15.0313 260.25 15.1563 260.25C16.375 260.312 17.4375 260.391 18.3438 260.484C19.25 260.578 20.125 260.672 20.9688 260.766C21.7813 260.859 22.6094 260.953 23.4531 261.047C24.2969 261.109 25.25 261.141 26.3125 261.141C26.9375 261.141 27.6406 261.125 28.4219 261.094C29.1719 261.062 30 261.016 30.9063 260.953C29.9375 259.609 28.8438 258.141 27.625 256.547C26.4063 254.922 25.1406 253.25 23.8281 251.531C22.5156 249.781 21.1875 248 19.8438 246.188C18.4688 244.375 17.1406 242.594 15.8594 240.844C15.7969 240.75 15.6719 240.547 15.4844 240.234C15.2969 239.891 15.1094 239.547 14.9219 239.203C14.7031 238.828 14.5156 238.484 14.3594 238.172C14.2031 237.859 14.125 237.656 14.125 237.562C14.125 235.875 14.9531 235.031 16.6094 235.031C17.2031 235.031 17.6875 235.172 18.0625 235.453C18.4375 235.703 18.7969 236.062 19.1406 236.531C20.4219 238.25 21.8125 240.078 23.3125 242.016C24.7813 243.953 26.2969 245.922 27.8594 247.922C29.4219 249.891 31.0156 251.844 32.6406 253.781C34.2656 255.688 35.875 257.484 37.4688 259.172C41.1563 258.078 43.9844 256.609 45.9531 254.766C47.9219 252.891 48.9063 250.688 48.9063 248.156C48.9063 247.094 48.7344 245.984 48.3906 244.828C48.0156 243.672 47.4375 242.469 46.6563 241.219C45.625 239.406 44.75 237.891 44.0313 236.672C43.3125 235.422 42.6719 234.297 42.1094 233.297C41.5156 232.266 40.9531 231.281 40.4219 230.344C39.8594 229.375 39.2344 228.281 38.5469 227.062C37.8594 225.844 37.0625 224.406 36.1563 222.75C35.2188 221.062 34.0781 218.984 32.7344 216.516ZM34.6094 208.641C34.2344 209.172 33.7969 209.516 33.2969 209.672C32.7969 209.828 32.25 209.906 31.6563 209.906C31.2813 209.906 30.9844 209.562 30.7656 208.875C30.5156 208.156 30.3281 207.234 30.2031 206.109C30.0781 204.953 30 203.656 29.9688 202.219C29.9063 200.75 29.875 199.266 29.875 197.766C29.875 196.203 29.9063 194.25 29.9688 191.906C30.0313 189.531 30.1094 186.953 30.2031 184.172C30.2969 181.391 30.4063 178.484 30.5313 175.453C30.6563 172.422 30.7813 169.438 30.9063 166.5C31.0313 163.562 31.1563 160.781 31.2813 158.156C31.4063 155.5 31.5156 153.172 31.6094 151.172C31.6719 149.172 31.75 147.578 31.8438 146.391C31.9063 145.203 31.9531 144.609 31.9844 144.609C32.0469 143.922 32.3125 143.281 32.7813 142.688C33.25 142.062 33.7188 141.75 34.1875 141.75C34.5625 141.75 34.8594 141.938 35.0781 142.312C35.2656 142.688 35.4375 143.453 35.5938 144.609C35.75 145.766 35.8906 147.203 36.0156 148.922C36.1094 150.609 36.2031 152.531 36.2969 154.688C36.3594 156.844 36.4219 159.109 36.4844 161.484C36.5156 163.828 36.5469 166.25 36.5781 168.75C36.6094 171.219 36.625 173.641 36.625 176.016C36.625 177.984 36.625 179.891 36.625 181.734C36.625 183.547 36.625 185.219 36.625 186.75C36.5938 188.25 36.5625 189.578 36.5313 190.734C36.5 191.859 36.4688 192.75 36.4375 193.406C36.4375 193.75 36.4375 194.312 36.4375 195.094C36.4063 195.844 36.375 196.719 36.3438 197.719C36.3125 198.719 36.2656 199.781 36.2031 200.906C36.1094 202.031 36 203.109 35.875 204.141C35.7188 205.141 35.5469 206.047 35.3594 206.859C35.1406 207.672 34.8906 208.266 34.6094 208.641ZM50.8281 111.328C50.6719 110.109 50.1875 108.594 49.375 106.781C48.5313 104.969 47.4531 102.984 46.1406 100.828C44.7969 98.6719 43.25 96.4219 41.5 94.0781C39.75 91.7031 37.875 89.3438 35.875 87C33.875 84.6562 31.7813 82.3906 29.5938 80.2031C27.4063 77.9844 25.2188 75.9688 23.0313 74.1562C22.8438 74.0312 22.5156 73.9531 22.0469 73.9219C21.5469 73.8594 21.0469 73.7344 20.5469 73.5469C20.0156 73.3281 19.5625 73 19.1875 72.5625C18.7813 72.0938 18.5781 71.3906 18.5781 70.4531C18.5781 69.6719 18.6719 69.0469 18.8594 68.5781C19.0469 68.1094 19.3125 67.7656 19.6563 67.5469C19.9688 67.2969 20.3594 67.1406 20.8281 67.0781C21.2656 67.0156 21.7656 66.9844 22.3281 66.9844C22.8906 66.9844 23.6719 67.125 24.6719 67.4062C25.6406 67.6562 26.7656 68 28.0469 68.4375C29.2969 68.875 30.6563 69.375 32.125 69.9375C33.5938 70.5 35.0781 71.0781 36.5781 71.6719C38.0469 72.2344 39.5156 72.7969 40.9844 73.3594C42.4219 73.8906 43.75 74.3594 44.9688 74.7656C44.75 74.3594 44.4063 73.7656 43.9375 72.9844C43.4688 72.2031 42.9219 71.3125 42.2969 70.3125C41.6719 69.2812 41 68.2031 40.2813 67.0781C39.5625 65.9219 38.8438 64.7812 38.125 63.6562L32.7344 55.0781C32.6094 54.8594 32.5469 54.625 32.5469 54.375C32.5469 54.0312 32.6875 53.7188 32.9688 53.4375C33.2188 53.1562 33.5469 53.0156 33.9531 53.0156C34.3906 53.0156 34.8438 53.1875 35.3125 53.5312C35.75 53.8438 36.1875 54.3594 36.625 55.0781L49.6094 77.2031C49.7656 77.4531 50.0156 77.7031 50.3594 77.9531C50.6719 78.1719 50.9844 78.4375 51.2969 78.75C51.6094 79.0312 51.875 79.3906 52.0938 79.8281C52.3438 80.2344 52.4688 80.7656 52.4688 81.4219C52.4688 82.0469 52.3125 82.5625 52 82.9688C51.6563 83.375 51.2031 83.5781 50.6406 83.5781C49.9219 83.5781 48.9844 83.4062 47.8281 83.0625C46.6719 82.6875 45.4063 82.2344 44.0313 81.7031C42.625 81.1406 41.1719 80.5156 39.6719 79.8281C38.1406 79.1094 36.6563 78.4219 35.2188 77.7656C33.75 77.0781 32.375 76.4531 31.0938 75.8906C29.7813 75.2969 28.6563 74.8281 27.7188 74.4844C29.4063 75.8281 31.2344 77.4062 33.2031 79.2188C35.1719 81.0312 37.1406 83.0312 39.1094 85.2188C41.0469 87.375 42.9375 89.6719 44.7813 92.1094C46.5938 94.5469 48.2031 97.0625 49.6094 99.6562C50.9844 102.25 52.0938 104.875 52.9375 107.531C53.7813 110.188 54.2031 112.828 54.2031 115.453C54.2031 116.953 53.7969 117.984 52.9844 118.547C52.2031 119.109 51.1406 119.391 49.7969 119.391C48.5781 119.391 47.1406 119.188 45.4844 118.781C43.8281 118.375 42.0625 117.844 40.1875 117.188C38.3125 116.531 36.3906 115.797 34.4219 114.984C32.4531 114.141 30.5625 113.328 28.75 112.547C26.9375 111.734 25.25 110.984 23.6875 110.297C22.125 109.578 20.8125 109 19.75 108.562C20.5313 110.031 21.5 111.781 22.6563 113.812C23.8125 115.812 25.125 118.031 26.5938 120.469C28.0313 122.906 29.6094 125.547 31.3281 128.391C33.0156 131.203 34.7813 134.156 36.625 137.25C36.8125 137.594 36.9063 137.906 36.9063 138.188C36.9063 138.562 36.7813 138.891 36.5313 139.172C36.2813 139.453 35.9531 139.594 35.5469 139.594C35.1719 139.594 34.75 139.406 34.2813 139.031C33.7813 138.688 33.2656 138.094 32.7344 137.25C30.3281 133.281 28.125 129.516 26.125 125.953C24.125 122.391 22.4219 119.172 21.0156 116.297C19.5781 113.391 18.4688 110.922 17.6875 108.891C16.875 106.828 16.4688 105.344 16.4688 104.438C16.4688 102.562 16.8438 101.25 17.5938 100.5C18.3438 99.7188 19.375 99.3281 20.6875 99.3281C22.0313 99.3281 23.5938 99.6719 25.375 100.359C27.125 101.016 28.9531 101.844 30.8594 102.844C32.7656 103.844 34.6875 104.922 36.625 106.078C38.5625 107.234 40.3906 108.312 42.1094 109.312C43.8281 110.312 45.3594 111.156 46.7031 111.844C48.0469 112.5 49.0781 112.828 49.7969 112.828C50.5156 112.828 50.875 112.469 50.875 111.75C50.875 111.5 50.8594 111.359 50.8281 111.328ZM36.625 2.34375C39.4063 7.1875 41.8281 11.2969 43.8906 14.6719C45.9219 18.0469 47.6094 20.9219 48.9531 23.2969C50.2656 25.6719 51.25 27.6875 51.9063 29.3438C52.5313 30.9688 52.8438 32.4531 52.8438 33.7969C52.8438 35.1094 52.6875 36.2344 52.375 37.1719C52.0625 38.0781 51.6406 38.8281 51.1094 39.4219C50.5781 40.0156 49.9375 40.4531 49.1875 40.7344C48.4375 40.9844 47.625 41.1094 46.75 41.1094C46.0938 41.1094 45.4219 40.9688 44.7344 40.6875C44.0469 40.4062 43.3438 40.0625 42.625 39.6562C41.9063 39.2188 41.1563 38.7656 40.375 38.2969C39.5625 37.8281 38.7031 37.3906 37.7969 36.9844L21.8594 29.8594L36.625 55.0312C36.7813 55.4375 36.8594 55.7188 36.8594 55.875C36.8594 56.25 36.7344 56.5781 36.4844 56.8594C36.2344 57.1719 35.9063 57.3281 35.5 57.3281C35.125 57.3281 34.7031 57.1562 34.2344 56.8125C33.7656 56.5 33.2656 55.9062 32.7344 55.0312L25.6563 42.8906C24.7188 41.2969 23.7813 39.6875 22.8438 38.0625C21.9063 36.4375 21.0313 34.9219 20.2188 33.5156C19.4063 32.0781 18.6875 30.7969 18.0625 29.6719C17.4063 28.5156 16.9063 27.625 16.5625 27V20.9531C16.6563 20.8281 16.8125 20.7188 17.0313 20.625C17.25 20.5312 17.5781 20.4844 18.0156 20.4844C18.8281 20.4844 19.9844 20.7188 21.4844 21.1875C22.9531 21.6562 24.6094 22.25 26.4531 22.9688C28.2969 23.6562 30.2344 24.4375 32.2656 25.3125C34.2656 26.1562 36.1719 26.9531 37.9844 27.7031C39.7656 28.4531 41.5469 29.2344 43.3281 30.0469C45.1094 30.8594 46.9375 31.6719 48.8125 32.4844C48.8125 31.6406 48.3906 30.3125 47.5469 28.5C46.7031 26.6562 45.5625 24.4375 44.125 21.8438C42.6563 19.2188 40.9531 16.2656 39.0156 12.9844C37.0469 9.67188 34.9531 6.125 32.7344 2.34375C32.6094 2.21875 32.5469 1.98438 32.5469 1.64062C32.5469 1.26562 32.6719 0.921875 32.9219 0.609375C33.1719 0.265625 33.5156 0.09375 33.9531 0.09375C34.3281 0.09375 34.75 0.265625 35.2188 0.609375C35.6563 0.921875 36.125 1.5 36.625 2.34375ZM0.15625 15.2812C0.15625 15.0938 0.171875 14.75 0.203125 14.25C0.203125 13.7188 0.234375 13.125 0.296875 12.4688C0.359375 11.8125 0.46875 11.125 0.625 10.4062C0.75 9.6875 0.953125 9.03125 1.23438 8.4375C1.48438 7.84375 1.8125 7.34375 2.21875 6.9375C2.625 6.53125 3.125 6.3125 3.71875 6.28125L8.875 13.0781L10.3281 16.1719C10.3281 16.7344 10.1719 17.1719 9.85938 17.4844C9.54688 17.7969 9.21875 18.0312 8.875 18.1875L0.15625 15.2812Z" fill="#525252"/>
</svg>
