<svg width="111" height="659" viewBox="0 0 111 659" fill="none" xmlns="http://www.w3.org/2000/svg">
<path d="M20.3584 30.6582L27.9316 35.4922L35.29 40.3799C35.6481 39.2699 36.1315 38.0166 36.7402 36.6201L20.3584 30.6582ZM81.9648 5.95117C79.1361 5.95117 76.1999 6.36296 73.1562 7.18652C70.1126 7.97428 67.069 9.24544 64.0254 11C60.9818 12.7546 57.974 15.0283 55.002 17.8213C52.0299 20.6501 49.2012 24.0518 46.5156 28.0264L67.8389 35.5459C72.6729 37.2288 76.4684 38.5 79.2256 39.3594C82.5557 40.4336 85.7067 40.9707 88.6787 40.9707C91.6507 40.9707 94.193 40.5947 96.3057 39.8428C98.4541 39.1266 100.209 38.1419 101.569 36.8887C102.966 35.6354 103.986 34.1852 104.631 32.5381C105.275 30.9268 105.598 29.208 105.598 27.3818C105.598 24.9111 105.043 22.4046 103.933 19.8623C102.823 17.3558 101.229 15.0641 99.1523 12.9873C97.1113 10.9105 94.6227 9.22754 91.6865 7.93848C88.7861 6.61361 85.5456 5.95117 81.9648 5.95117ZM40.7686 38.0703C40.4105 38.7507 40.0345 39.5026 39.6406 40.3262L38.6201 42.6895L52.4775 52.4648L65.0996 61.8105L76.1641 70.2969L85.4023 77.4404L92.4922 82.8652C94.4616 84.3691 96.0013 85.4613 97.1113 86.1416L97.7559 86.5713L99.2598 87.5918L100.979 88.8271C101.516 89.221 101.892 89.5254 102.106 89.7402L103.073 90.6533C102.858 91.1188 102.59 91.4769 102.268 91.7275C101.945 92.014 101.623 92.2109 101.301 92.3184C100.979 92.4616 100.656 92.5511 100.334 92.5869C100.048 92.6227 99.7969 92.6406 99.582 92.6406L96.8428 92.8018C95.5895 92.8734 94.2646 92.9271 92.8682 92.9629C91.4717 93.0345 90.0036 93.0703 88.4639 93.0703C83.415 93.0703 78.1693 92.9271 72.7266 92.6406C67.3197 92.3542 61.877 91.9782 56.3984 91.5127C50.9199 91.083 45.4772 90.5996 40.0703 90.0625L24.4941 88.3975L33.9473 92.5332L44.4746 97.4746L55.7539 102.953L67.0869 108.646L78.0977 114.232L88.3027 119.442L97.1113 124.008L104.147 127.606C105.544 128.323 106.654 129.021 107.478 129.701C108.337 130.417 108.999 131.169 109.465 131.957C109.966 132.781 110.306 133.64 110.485 134.535C110.664 135.466 110.754 136.487 110.754 137.597C110.754 138.814 110.521 139.888 110.056 140.819C109.626 141.75 109.053 142.538 108.337 143.183C107.657 143.827 106.869 144.311 105.974 144.633C105.114 144.955 104.255 145.116 103.396 145.116C102.644 145.116 101.91 144.991 101.193 144.74C100.513 144.525 99.9043 144.167 99.3672 143.666C98.8301 143.165 98.4004 142.538 98.0781 141.786C97.7559 141.034 97.5947 140.157 97.5947 139.154C97.5947 137.937 97.0218 136.612 95.876 135.18C94.7301 133.747 93.2262 132.243 91.3643 130.668C89.5381 129.128 87.4434 127.571 85.0801 125.995L77.7754 121.376L70.6318 117.133L64.4551 113.588L50.4902 106.82L35.3438 99.623L18.6934 91.8887L0.270508 83.7783C-1.01855 83.2054 -2.12858 82.5072 -3.05957 81.6836C-3.99056 80.8958 -4.49186 80.0544 -4.56348 79.1592C-4.56348 78.2282 -4.27702 77.4941 -3.7041 76.957C-3.16699 76.4557 -2.37923 76.0798 -1.34082 75.8291C-0.338216 75.5785 0.879232 75.4173 2.31152 75.3457C3.70801 75.3099 5.26562 75.292 6.98438 75.292C10.4935 75.292 14.2533 75.3815 18.2637 75.5605C22.3099 75.7396 26.4277 75.9902 30.6172 76.3125C34.8066 76.6348 38.9782 76.9928 43.1318 77.3867C47.2855 77.7806 51.2601 78.1745 55.0557 78.5684C58.887 78.998 62.4499 79.4098 65.7441 79.8037C69.0384 80.1976 71.903 80.5557 74.3379 80.8779L80.0313 81.6836C81.2845 81.8626 81.9648 81.9701 82.0723 82.0059L67.3018 71.0488L60.3193 65.8926L52.6387 60.1455L44.582 54.1836L36.4717 48.2217C35.3617 51.2653 34.3411 54.3984 33.4102 57.6211C32.4792 60.8796 31.6198 64.4066 30.832 68.2021L29.4355 67.5576C29.8294 63.5472 30.3665 59.7695 31.0469 56.2246C31.7272 52.6797 32.5329 49.278 33.4639 46.0195L8.05859 27.0596L4.19141 24.2129C2.75911 23.2103 1.41634 22.1719 0.163086 21.0977C-1.12598 20.0592 -2.2002 19.0208 -3.05957 17.9824C-3.91895 16.944 -4.34863 15.9772 -4.34863 15.082C-4.34863 14.7956 -4.27702 14.4375 -4.13379 14.0078C-4.02637 13.5781 -3.84733 13.1663 -3.59668 12.7725C-3.34603 12.3786 -3.05957 12.0384 -2.7373 11.752C-2.41504 11.4655 -2.05697 11.3223 -1.66309 11.3223C-1.55566 11.3223 -0.463542 11.6803 1.61328 12.3965L10.3145 15.4043L23.957 20.1309L41.7891 26.3613C44.5104 21.778 47.5003 17.8392 50.7588 14.5449C54.0173 11.2507 57.401 8.5472 60.9102 6.43457C64.4193 4.32194 67.9642 2.76432 71.5449 1.76172C75.1615 0.759115 78.6706 0.257813 82.0723 0.257813C86.5482 0.257813 90.487 1.13509 93.8887 2.88965C97.2904 4.64421 100.137 6.93587 102.429 9.76465C104.72 12.5576 106.457 15.7266 107.639 19.2715C108.785 22.7806 109.357 26.3076 109.357 29.8525C109.357 32.8962 108.928 35.8145 108.068 38.6074C107.209 41.4362 105.92 43.9248 104.201 46.0732C102.482 48.2575 100.334 49.9941 97.7559 51.2832C95.1777 52.5723 92.152 53.2168 88.6787 53.2168C86.5303 53.2168 84.2386 52.9661 81.8037 52.4648C79.4762 52.0352 76.8623 51.2832 73.9619 50.209L40.7686 38.0703ZM30.6172 111.117C30.3665 110.759 30.2412 110.347 30.2412 109.882C30.2412 109.416 30.3665 109.04 30.6172 108.754C30.9036 108.467 31.2617 108.324 31.6914 108.324C32.1569 108.324 32.6761 108.539 33.249 108.969C33.8577 109.363 34.4665 110.079 35.0752 111.117L43.0781 124.706C45.9069 125.709 48.3418 126.998 50.3828 128.573C52.4596 130.185 54.1605 131.939 55.4854 133.837C56.846 135.771 57.8486 137.776 58.4932 139.853C59.1735 141.965 59.5137 144.006 59.5137 145.976C59.5137 147.981 58.9766 149.628 57.9023 150.917C56.8639 152.242 55.2347 152.904 53.0146 152.904C51.654 152.904 50.2217 152.403 48.7178 151.4C47.2497 150.434 45.7816 149.091 44.3135 147.372C42.8812 145.689 41.5384 143.702 40.2852 141.41C39.0319 139.118 37.9756 136.684 37.1162 134.105C35.3975 134.105 33.7682 134.07 32.2285 133.998C30.6888 133.962 29.2386 133.944 27.8779 133.944C26.7321 133.944 25.6758 133.98 24.709 134.052C23.778 134.123 22.9723 134.267 22.292 134.481C21.6475 134.732 21.1283 135.054 20.7344 135.448C20.3763 135.878 20.1973 136.415 20.1973 137.06C20.1973 138.062 20.5911 139.262 21.3789 140.658C22.2025 142.09 23.2409 143.881 24.4941 146.029C25.64 147.963 27.0723 150.434 28.791 153.441C30.5098 156.449 32.6045 160.119 35.0752 164.452C35.1826 164.595 35.2363 164.792 35.2363 165.043C35.2363 165.437 35.0573 165.777 34.6992 166.063C34.377 166.386 33.9652 166.547 33.4639 166.547C33.0342 166.547 32.5687 166.386 32.0674 166.063C31.5661 165.777 31.0827 165.24 30.6172 164.452C28.5046 160.907 26.3561 157.47 24.1719 154.14C22.0234 150.81 20.054 147.659 18.2637 144.687C16.5091 141.75 15.0589 139.029 13.9131 136.522C12.8031 134.016 12.248 131.832 12.248 129.97C12.248 128.716 12.5166 127.606 13.0537 126.64C13.5908 125.709 14.4502 124.903 15.6318 124.223C16.8135 123.578 18.3532 123.077 20.251 122.719C22.1846 122.396 24.5299 122.235 27.2871 122.235C27.7168 122.235 28.3971 122.253 29.3281 122.289C30.2949 122.361 31.3154 122.45 32.3896 122.558C33.4997 122.701 34.5739 122.862 35.6123 123.041C36.6507 123.22 37.4564 123.435 38.0293 123.686C37.8861 123.435 37.6712 123.059 37.3848 122.558C37.0983 122.092 36.7581 121.537 36.3643 120.893C36.0062 120.248 35.6123 119.568 35.1826 118.852C34.7529 118.135 34.3232 117.419 33.8936 116.703L30.6172 111.117ZM52.585 147.104C52.7998 147.175 53.0326 147.211 53.2832 147.211C54.1784 147.211 54.8408 147.05 55.2705 146.728C55.7002 146.441 55.915 145.94 55.915 145.224C55.915 144.4 55.5928 143.451 54.9482 142.377C54.3395 141.303 53.4264 140.246 52.209 139.208C50.9915 138.205 49.4697 137.292 47.6436 136.469C45.8174 135.681 43.7227 135.144 41.3594 134.857C42.1113 136.326 42.9707 137.758 43.9375 139.154C44.9401 140.551 45.9427 141.804 46.9453 142.914C47.9837 144.06 48.9863 144.991 49.9531 145.707C50.9557 146.459 51.833 146.924 52.585 147.104ZM18.1025 213.651C18.0309 213.293 17.9772 212.953 17.9414 212.631C17.9414 212.344 17.9235 212.058 17.8877 211.771C15.9541 209.408 14.4502 206.615 13.376 203.393C12.3018 200.17 11.7646 196.553 11.7646 192.543C11.7646 190.072 11.9795 187.978 12.4092 186.259C12.8389 184.576 13.4655 183.215 14.2891 182.177C15.1126 181.138 16.1152 180.386 17.2969 179.921C18.5143 179.455 19.9108 179.223 21.4863 179.223C24.5299 179.223 27.8063 179.688 31.3154 180.619C34.8245 181.55 38.4769 182.821 42.2725 184.433L30.6172 164.506C30.4382 164.219 30.3486 163.915 30.3486 163.593C30.3486 163.235 30.4919 162.966 30.7783 162.787C31.0648 162.572 31.4229 162.465 31.8525 162.465C32.3538 162.465 32.9089 162.626 33.5176 162.948C34.1263 163.271 34.6455 163.79 35.0752 164.506L48.5566 187.333C52.1732 189.159 55.7539 191.182 59.2988 193.402C62.8438 195.622 66.2096 197.932 69.3965 200.331C72.6191 202.73 75.609 205.165 78.3662 207.636C81.1234 210.142 83.5046 212.559 85.5098 214.887C87.515 217.25 89.0905 219.47 90.2363 221.547C91.3822 223.66 91.9551 225.539 91.9551 227.187C91.9551 229.979 91.4896 232.003 90.5586 233.256C89.6276 234.509 88.3564 235.136 86.7451 235.136C85.3128 235.136 83.6657 234.688 81.8037 233.793C79.9775 232.898 78.0081 231.627 75.8955 229.979C73.8187 228.368 71.6523 226.435 69.3965 224.179C67.1764 221.959 64.9743 219.506 62.79 216.82C60.6416 214.171 58.5469 211.324 56.5059 208.28C54.4648 205.272 52.6029 202.193 50.9199 199.042C51.099 199.722 51.2064 200.385 51.2422 201.029C51.3138 201.674 51.3496 202.318 51.3496 202.963C51.3496 205.362 50.902 207.636 50.0068 209.784C49.1475 211.968 48.0195 213.866 46.623 215.478C45.2624 217.125 43.7585 218.432 42.1113 219.398C40.4642 220.365 38.8708 220.849 37.3311 220.849C34.6455 220.849 32.0853 220.491 29.6504 219.774C27.2155 219.058 24.9596 217.948 22.8828 216.444L35.0752 237.069C35.1826 237.427 35.2363 237.768 35.2363 238.09C35.2363 238.949 34.8066 239.379 33.9473 239.379C32.6224 239.379 31.5124 238.609 30.6172 237.069C30.1517 236.282 29.5251 235.243 28.7373 233.954C27.9854 232.701 27.1618 231.322 26.2666 229.818C25.3714 228.314 24.4583 226.757 23.5273 225.146C22.6322 223.534 21.7907 221.994 21.0029 220.526C20.251 219.058 19.6064 217.715 19.0693 216.498C18.5322 215.281 18.21 214.332 18.1025 213.651ZM32.0137 212.792C34.0189 212.792 35.7734 212.219 37.2773 211.073C38.8171 209.963 40.1598 208.495 41.3057 206.669C42.4873 204.843 43.5078 202.784 44.3672 200.492C45.2266 198.201 46.0143 195.873 46.7305 193.51C42.5052 191.684 38.3695 190.233 34.3232 189.159C30.277 188.121 26.3561 187.602 22.5605 187.602C20.7344 187.602 19.2484 187.995 18.1025 188.783C16.9567 189.607 16.3838 190.896 16.3838 192.65C16.3838 195.909 16.6523 198.648 17.1895 200.868C17.7624 203.124 18.5322 205.022 19.499 206.562C20.2868 205.631 21.2178 204.95 22.292 204.521C23.402 204.091 24.4762 203.876 25.5146 203.876C26.6963 203.876 27.5736 204.27 28.1465 205.058C28.7552 205.845 29.0596 206.794 29.0596 207.904C29.0596 208.62 28.9163 209.354 28.6299 210.106C28.3792 210.894 28.0033 211.61 27.502 212.255C28.791 212.613 30.2949 212.792 32.0137 212.792ZM88.7861 227.67C88.7861 226.596 88.3564 225.325 87.4971 223.856C86.6735 222.388 85.4919 220.795 83.9521 219.076C82.4482 217.393 80.6579 215.639 78.5811 213.812C76.5042 211.986 74.2126 210.178 71.7061 208.388C69.2354 206.633 66.6035 204.932 63.8105 203.285C61.0534 201.638 58.2246 200.152 55.3242 198.827C56.1836 200.295 57.3831 202.104 58.9229 204.252C60.4626 206.4 62.1813 208.674 64.0791 211.073C66.0127 213.472 68.0358 215.854 70.1484 218.217C72.2969 220.616 74.3737 222.764 76.3789 224.662C78.3841 226.596 80.2461 228.153 81.9648 229.335C83.6836 230.517 85.1159 231.107 86.2617 231.107C87.0495 231.107 87.6582 230.839 88.0879 230.302C88.5534 229.765 88.7861 228.887 88.7861 227.67ZM26.1055 250.121C27.4303 250.121 29.0238 250.515 30.8857 251.303C32.7477 252.126 34.6455 253.183 36.5791 254.472C38.5127 255.797 40.3568 257.283 42.1113 258.93C43.9017 260.577 45.3519 262.224 46.4619 263.871L30.6172 237.123C30.5456 236.98 30.4919 236.854 30.4561 236.747C30.4561 236.604 30.4561 236.479 30.4561 236.371C30.4561 235.977 30.5993 235.673 30.8857 235.458C31.1722 235.243 31.5303 235.136 31.96 235.136C32.4613 235.136 32.9984 235.297 33.5713 235.619C34.18 235.941 34.6813 236.443 35.0752 237.123L44.0449 251.894C45.2624 253.899 46.5514 256.173 47.9121 258.715C49.3086 261.257 50.5798 263.889 51.7256 266.61C52.8714 269.368 53.8203 272.143 54.5723 274.936C55.36 277.729 55.7539 280.378 55.7539 282.885C55.7539 285.212 55.3958 287.271 54.6797 289.062L82.9854 303.08C83.7373 303.438 84.543 303.814 85.4023 304.208C86.2975 304.638 87.1211 305.175 87.873 305.819C88.625 306.5 89.2516 307.341 89.7529 308.344C90.29 309.382 90.5586 310.707 90.5586 312.318C90.5586 312.82 90.3796 313.124 90.0215 313.231C89.6992 313.375 89.2695 313.446 88.7324 313.446C88.2311 313.375 87.6582 313.249 87.0137 313.07C86.4049 312.891 85.7962 312.694 85.1875 312.479C84.5788 312.3 84.0238 312.121 83.5225 311.942C83.0212 311.763 82.6452 311.62 82.3945 311.513L47.5898 295.507C45.2624 294.719 42.8454 293.734 40.3389 292.553C37.8682 291.407 35.4512 290.279 33.0879 289.169C30.7604 288.095 28.5762 287.164 26.5352 286.376C24.4941 285.624 22.7575 285.248 21.3252 285.248C20.8239 285.248 20.3405 285.302 19.875 285.409C19.4095 285.552 19.1768 285.803 19.1768 286.161C19.1768 286.627 19.3558 287.325 19.7139 288.256C20.0719 289.223 20.5732 290.315 21.2178 291.532C21.8623 292.75 22.6143 294.057 23.4736 295.453C24.3688 296.885 25.3177 298.3 26.3203 299.696L35.0752 313.661C35.2184 313.948 35.29 314.162 35.29 314.306C35.29 314.592 35.1468 314.807 34.8604 314.95C34.5739 315.129 34.2337 315.219 33.8398 315.219C33.2311 315.219 32.6224 315.076 32.0137 314.789C31.4408 314.538 30.9753 314.162 30.6172 313.661C29.2565 311.62 27.8421 309.507 26.374 307.323C24.9417 305.175 23.5094 303.008 22.0771 300.824C20.6807 298.64 19.3379 296.492 18.0488 294.379C16.7598 292.302 15.5781 290.297 14.5039 288.363C12.9642 285.606 12.1943 283.135 12.1943 280.951C12.1943 279.519 12.5882 278.552 13.376 278.051C14.1637 277.549 15.1842 277.299 16.4375 277.299C17.1895 277.299 17.9593 277.353 18.7471 277.46C19.5706 277.603 20.4479 277.8 21.3789 278.051C19.9824 277.084 18.7292 275.974 17.6191 274.721C16.5091 273.467 15.5602 272.125 14.7725 270.692C13.9847 269.296 13.3939 267.828 13 266.288C12.5703 264.784 12.3555 263.316 12.3555 261.884C12.3555 260.308 12.6061 258.804 13.1074 257.372C13.6445 255.94 14.4681 254.687 15.5781 253.612C16.724 252.538 18.1563 251.679 19.875 251.034C21.5938 250.425 23.6706 250.121 26.1055 250.121ZM44.7969 285.141C45.1908 285.284 45.6742 285.463 46.2471 285.678C46.82 285.928 47.375 286.161 47.9121 286.376C48.4492 286.627 48.9326 286.824 49.3623 286.967C49.8278 287.146 50.1501 287.235 50.3291 287.235C50.5439 287.235 50.7051 286.824 50.8125 286C50.9199 285.176 50.9736 284.084 50.9736 282.724C50.9736 280.933 50.4902 279.107 49.5234 277.245C48.5924 275.419 47.3571 273.629 45.8174 271.874C44.2777 270.155 42.5052 268.526 40.5 266.986C38.5306 265.482 36.4896 264.158 34.377 263.012C32.3001 261.902 30.2412 261.007 28.2002 260.326C26.1592 259.682 24.3151 259.359 22.668 259.359C20.4479 259.359 18.8545 259.735 17.8877 260.487C16.9567 261.239 16.4912 262.224 16.4912 263.441C16.4912 265.089 17.1895 266.861 18.5859 268.759C19.9824 270.692 21.916 272.626 24.3867 274.56C26.8932 276.493 29.8831 278.373 33.3564 280.199C36.8298 282.025 40.6432 283.673 44.7969 285.141ZM30.6172 313.715C30.3665 313.357 30.2412 312.945 30.2412 312.479C30.2412 312.014 30.3665 311.638 30.6172 311.352C30.9036 311.065 31.2617 310.922 31.6914 310.922C32.1569 310.922 32.6761 311.137 33.249 311.566C33.8577 311.96 34.4665 312.676 35.0752 313.715L43.0781 327.304C45.9069 328.306 48.3418 329.595 50.3828 331.171C52.4596 332.782 54.1605 334.537 55.4854 336.435C56.846 338.368 57.8486 340.373 58.4932 342.45C59.1735 344.563 59.5137 346.604 59.5137 348.573C59.5137 350.578 58.9766 352.226 57.9023 353.515C56.8639 354.84 55.2347 355.502 53.0146 355.502C51.654 355.502 50.2217 355.001 48.7178 353.998C47.2497 353.031 45.7816 351.688 44.3135 349.97C42.8812 348.287 41.5384 346.299 40.2852 344.008C39.0319 341.716 37.9756 339.281 37.1162 336.703C35.3975 336.703 33.7682 336.667 32.2285 336.596C30.6888 336.56 29.2386 336.542 27.8779 336.542C26.7321 336.542 25.6758 336.578 24.709 336.649C23.778 336.721 22.9723 336.864 22.292 337.079C21.6475 337.33 21.1283 337.652 20.7344 338.046C20.3763 338.476 20.1973 339.013 20.1973 339.657C20.1973 340.66 20.5911 341.859 21.3789 343.256C22.2025 344.688 23.2409 346.479 24.4941 348.627C25.64 350.561 27.0723 353.031 28.791 356.039C30.5098 359.047 32.6045 362.717 35.0752 367.05C35.1826 367.193 35.2363 367.39 35.2363 367.641C35.2363 368.035 35.0573 368.375 34.6992 368.661C34.377 368.983 33.9652 369.145 33.4639 369.145C33.0342 369.145 32.5687 368.983 32.0674 368.661C31.5661 368.375 31.0827 367.838 30.6172 367.05C28.5046 363.505 26.3561 360.067 24.1719 356.737C22.0234 353.407 20.054 350.256 18.2637 347.284C16.5091 344.348 15.0589 341.627 13.9131 339.12C12.8031 336.614 12.248 334.429 12.248 332.567C12.248 331.314 12.5166 330.204 13.0537 329.237C13.5908 328.306 14.4502 327.501 15.6318 326.82C16.8135 326.176 18.3532 325.674 20.251 325.316C22.1846 324.994 24.5299 324.833 27.2871 324.833C27.7168 324.833 28.3971 324.851 29.3281 324.887C30.2949 324.958 31.3154 325.048 32.3896 325.155C33.4997 325.299 34.5739 325.46 35.6123 325.639C36.6507 325.818 37.4564 326.033 38.0293 326.283C37.8861 326.033 37.6712 325.657 37.3848 325.155C37.0983 324.69 36.7581 324.135 36.3643 323.49C36.0062 322.846 35.6123 322.165 35.1826 321.449C34.7529 320.733 34.3232 320.017 33.8936 319.301L30.6172 313.715ZM52.585 349.701C52.7998 349.773 53.0326 349.809 53.2832 349.809C54.1784 349.809 54.8408 349.647 55.2705 349.325C55.7002 349.039 55.915 348.537 55.915 347.821C55.915 346.998 55.5928 346.049 54.9482 344.975C54.3395 343.9 53.4264 342.844 52.209 341.806C50.9915 340.803 49.4697 339.89 47.6436 339.066C45.8174 338.279 43.7227 337.742 41.3594 337.455C42.1113 338.923 42.9707 340.355 43.9375 341.752C44.9401 343.148 45.9427 344.402 46.9453 345.512C47.9837 346.658 48.9863 347.589 49.9531 348.305C50.9557 349.057 51.833 349.522 52.585 349.701ZM47.2139 403.197C45.71 403.197 44.5999 403.305 43.8838 403.52C43.1676 403.734 42.5231 403.967 41.9502 404.218C41.4131 404.504 40.8044 404.755 40.124 404.97C39.4795 405.22 38.459 405.346 37.0625 405.346C36.0957 405.346 35.0036 405.238 33.7861 405.023C32.6045 404.844 31.3691 404.486 30.0801 403.949C28.8268 403.412 27.5736 402.66 26.3203 401.693C25.1029 400.727 24.0107 399.491 23.0439 397.987L35.0752 419.042C35.2184 419.293 35.29 419.543 35.29 419.794C35.29 420.188 35.1289 420.528 34.8066 420.814C34.5202 421.137 34.1263 421.298 33.625 421.298C33.2311 421.298 32.7477 421.119 32.1748 420.761C31.6019 420.438 31.0827 419.866 30.6172 419.042C28.1107 414.638 25.9264 410.842 24.0645 407.655C22.2383 404.504 20.6628 401.801 19.3379 399.545C18.013 397.325 16.903 395.499 16.0078 394.066C15.1484 392.634 14.4323 391.435 13.8594 390.468C12.821 388.749 12.1227 387.12 11.7646 385.58C11.4066 384.04 11.2275 382.519 11.2275 381.015C11.2275 379.869 11.4245 379.027 11.8184 378.49C12.2122 377.989 12.6419 377.738 13.1074 377.738C13.6087 377.774 14.0563 378.061 14.4502 378.598C14.8799 379.135 15.0947 379.905 15.0947 380.907C15.0947 382.662 15.6855 384.363 16.8672 386.01C18.0846 387.657 19.7139 389.107 21.7549 390.36C23.8317 391.649 26.2487 392.67 29.0059 393.422C31.763 394.21 34.6813 394.604 37.7607 394.604C38.2262 394.604 39.1214 394.693 40.4463 394.872C41.7712 395.087 43.2035 395.409 44.7432 395.839C46.2829 396.269 47.7868 396.824 49.2549 397.504C50.723 398.22 51.833 399.062 52.585 400.028L30.6172 367.104C30.3665 366.745 30.2412 366.369 30.2412 365.976C30.2412 365.582 30.3844 365.259 30.6709 365.009C30.9574 364.758 31.3154 364.633 31.7451 364.633C32.2464 364.633 32.8014 364.83 33.4102 365.224C34.0189 365.582 34.5739 366.208 35.0752 367.104C38.9782 372.868 42.2188 377.702 44.7969 381.605C47.4108 385.544 49.5234 388.749 51.1348 391.22L56.2373 398.739C56.7028 399.849 57.0609 401.013 57.3115 402.23C57.598 403.448 57.7412 404.576 57.7412 405.614C57.7412 406.76 57.5443 407.691 57.1504 408.407C56.7923 409.159 56.2015 409.535 55.3779 409.535C55.0915 409.535 54.626 409.195 53.9814 408.515C53.3369 407.87 52.6029 407.154 51.7793 406.366C50.9915 405.578 50.1859 404.844 49.3623 404.164C48.5387 403.52 47.8226 403.197 47.2139 403.197ZM30.6172 479.467C27.4303 473.917 24.6553 469.208 22.292 465.341C19.9645 461.474 18.0309 458.179 16.4912 455.458C14.9873 452.737 13.8594 450.427 13.1074 448.529C12.3913 446.667 12.0332 444.966 12.0332 443.427C12.0332 441.923 12.2122 440.634 12.5703 439.56C12.9284 438.521 13.4118 437.662 14.0205 436.981C14.6292 436.301 15.3633 435.8 16.2227 435.478C17.082 435.191 18.013 435.048 19.0156 435.048C19.7676 435.048 20.5374 435.209 21.3252 435.531C22.113 435.854 22.9186 436.247 23.7422 436.713C24.5658 437.214 25.4251 437.733 26.3203 438.271C27.2513 438.808 28.236 439.309 29.2744 439.774L47.5361 447.938L30.6172 419.096C30.4382 418.63 30.3486 418.308 30.3486 418.129C30.3486 417.699 30.4919 417.323 30.7783 417.001C31.0648 416.643 31.4408 416.464 31.9063 416.464C32.3359 416.464 32.8193 416.661 33.3564 417.055C33.8936 417.413 34.4665 418.093 35.0752 419.096L43.1855 433.007C44.2598 434.833 45.334 436.677 46.4082 438.539C47.4824 440.401 48.485 442.138 49.416 443.749C50.347 445.396 51.1706 446.864 51.8867 448.153C52.6387 449.478 53.2116 450.499 53.6055 451.215V458.144C53.498 458.287 53.319 458.412 53.0684 458.52C52.8177 458.627 52.4417 458.681 51.9404 458.681C51.0094 458.681 49.6846 458.412 47.9658 457.875C46.2829 457.338 44.3851 456.658 42.2725 455.834C40.1598 455.046 37.9398 454.151 35.6123 453.148C33.3206 452.182 31.1364 451.269 29.0596 450.409C27.0186 449.55 24.9775 448.655 22.9365 447.724C20.8955 446.793 18.8008 445.862 16.6523 444.931C16.6523 445.897 17.1357 447.419 18.1025 449.496C19.0693 451.609 20.3763 454.151 22.0234 457.123C23.7064 460.131 25.6579 463.515 27.8779 467.274C30.1338 471.07 32.5329 475.134 35.0752 479.467C35.2184 479.61 35.29 479.879 35.29 480.272C35.29 480.702 35.1468 481.096 34.8604 481.454C34.5739 481.848 34.18 482.045 33.6787 482.045C33.249 482.045 32.7656 481.848 32.2285 481.454C31.7272 481.096 31.1901 480.434 30.6172 479.467ZM72.4043 464.643C72.4043 464.857 72.3864 465.251 72.3506 465.824C72.3506 466.433 72.3148 467.113 72.2432 467.865C72.1715 468.617 72.0462 469.405 71.8672 470.229C71.724 471.052 71.4912 471.804 71.1689 472.484C70.8825 473.165 70.5065 473.738 70.041 474.203C69.5755 474.669 69.0026 474.919 68.3223 474.955L62.4141 467.167L60.749 463.622C60.749 462.978 60.9281 462.476 61.2861 462.118C61.6442 461.76 62.0202 461.492 62.4141 461.312L72.4043 464.643ZM35.0752 562.074C35.2184 562.325 35.29 562.629 35.29 562.987C35.29 563.417 35.1468 563.793 34.8604 564.115C34.6097 564.473 34.2516 564.652 33.7861 564.652C33.3206 564.652 32.8193 564.455 32.2822 564.062C31.7451 563.668 31.1901 563.005 30.6172 562.074C29.5788 560.32 28.3792 558.297 27.0186 556.005C25.6937 553.749 24.2435 551.296 22.668 548.646C21.0924 546.033 19.4095 543.257 17.6191 540.321C15.8646 537.385 14.0563 534.377 12.1943 531.298C8.00488 528.684 3.83333 525.855 -0.320312 522.812C-4.47396 519.804 -8.43066 516.706 -12.1904 513.52C-15.986 510.333 -19.513 507.146 -22.7715 503.959C-26.0299 500.772 -28.8587 497.711 -31.2578 494.774C-33.6569 491.838 -35.5368 489.081 -36.8975 486.503C-38.2581 483.961 -38.9385 481.758 -38.9385 479.896C-38.9385 478.536 -38.8132 477.318 -38.5625 476.244C-38.3118 475.17 -37.8643 474.275 -37.2197 473.559C-36.611 472.807 -35.7874 472.252 -34.749 471.894C-33.7106 471.5 -32.4036 471.303 -30.8281 471.303C-29.9329 471.303 -28.7513 471.858 -27.2832 472.968C-25.8151 474.078 -24.1322 475.635 -22.2344 477.641C-20.3724 479.646 -18.3135 482.027 -16.0576 484.784C-13.8376 487.541 -11.5101 490.549 -9.0752 493.808C-6.6403 497.102 -4.11589 500.593 -1.50195 504.281C1.07617 507.969 3.6543 511.729 6.23242 515.561C11.1738 519.571 16.6523 524.083 22.668 529.096C21.4147 527.735 20.2331 526.249 19.123 524.638C18.013 523.026 17.0283 521.361 16.1689 519.643C15.3454 517.96 14.6829 516.277 14.1816 514.594C13.6803 512.911 13.4297 511.335 13.4297 509.867C13.4297 507.934 13.6266 506.143 14.0205 504.496C14.4144 502.885 15.041 501.488 15.9004 500.307C16.7956 499.125 17.9414 498.194 19.3379 497.514C20.7344 496.869 22.4352 496.547 24.4404 496.547C26.4814 496.547 28.4329 496.833 30.2949 497.406C32.1927 498.015 33.9831 498.821 35.666 499.823C37.349 500.826 38.9245 501.954 40.3926 503.207C41.8607 504.46 43.2035 505.767 44.4209 507.128C45.8532 508.453 47.2139 509.849 48.5029 511.317C49.8278 512.821 51.0632 514.433 52.209 516.151L30.6172 479.467C30.2949 478.858 30.1338 478.357 30.1338 477.963C30.1338 477.068 30.5814 476.62 31.4766 476.62C31.9779 476.62 32.5508 476.853 33.1953 477.318C33.8398 477.748 34.4665 478.464 35.0752 479.467C38.7992 485.59 42.0934 491.337 44.958 496.708C47.8226 502.115 50.2217 507.092 52.1553 511.64C54.1247 516.223 55.6107 520.377 56.6133 524.101C57.6159 527.86 58.1172 531.155 58.1172 533.983C58.1172 537.779 57.1504 540.679 55.2168 542.685C53.319 544.69 50.3649 545.692 46.3545 545.692C44.6357 545.692 42.7559 545.442 40.7148 544.94C38.6738 544.475 36.4896 543.795 34.1621 542.899C31.8704 542.04 29.4714 540.984 26.9648 539.73C24.4583 538.513 21.8981 537.152 19.2842 535.648C22.5426 540.805 25.4967 545.621 28.1465 550.097C30.832 554.608 33.1416 558.601 35.0752 562.074ZM24.0107 507.235C20.9671 507.235 18.8008 507.611 17.5117 508.363C16.2585 509.151 15.6318 510.458 15.6318 512.284C15.6318 513.609 15.9541 515.041 16.5986 516.581C17.2432 518.121 18.0667 519.678 19.0693 521.254C20.1077 522.829 21.2536 524.351 22.5068 525.819C23.7959 527.323 25.0492 528.702 26.2666 529.955C27.484 531.208 28.612 532.265 29.6504 533.124C30.6888 534.019 31.5124 534.646 32.1211 535.004C33.4102 535.863 34.556 536.562 35.5586 537.099C36.5612 537.636 37.5638 538.065 38.5664 538.388C39.6048 538.71 40.6969 538.925 41.8428 539.032C43.0244 539.14 44.4209 539.193 46.0322 539.193C46.5693 539.193 47.1423 539.032 47.751 538.71C48.3597 538.388 48.9147 537.976 49.416 537.475C49.9173 537.009 50.3291 536.49 50.6514 535.917C50.9736 535.38 51.1348 534.896 51.1348 534.467C51.1348 530.242 50.3828 526.482 48.8789 523.188C47.4108 519.929 45.4235 517.154 42.917 514.862C40.4105 512.571 37.528 510.78 34.2695 509.491C31.0111 508.202 27.5915 507.45 24.0107 507.235ZM-33.8359 480.219C-33.8359 481.15 -33.1556 482.439 -31.7949 484.086C-30.4342 485.733 -28.4111 487.828 -25.7256 490.37C-23.04 492.912 -19.6742 495.92 -15.6279 499.394C-11.6175 502.867 -6.94466 506.895 -1.60937 511.479C-3.29232 509.151 -5.06478 506.662 -6.92676 504.013C-8.78874 501.399 -10.6328 498.803 -12.459 496.225C-14.321 493.682 -16.1471 491.229 -17.9375 488.866C-19.7279 486.539 -21.3929 484.462 -22.9326 482.636C-24.5081 480.845 -25.9046 479.431 -27.1221 478.393C-28.3753 477.318 -29.3958 476.781 -30.1836 476.781C-30.5059 476.781 -30.8818 476.835 -31.3115 476.942C-31.7412 477.05 -32.1351 477.247 -32.4932 477.533C-32.887 477.784 -33.2093 478.142 -33.46 478.607C-33.7106 479.037 -33.8359 479.574 -33.8359 480.219ZM47.8047 627.011C47.8047 625.65 47.4108 623.949 46.623 621.908C45.8711 619.867 44.8148 617.629 43.4541 615.194C42.1292 612.759 40.5537 610.217 38.7275 607.567C36.9014 604.953 34.9141 602.375 32.7656 599.833C30.6172 597.326 28.3434 594.927 25.9443 592.636C23.5811 590.38 21.1999 588.41 18.8008 586.728C18.6217 586.549 18.21 586.459 17.5654 586.459C16.9567 586.459 16.3122 586.352 15.6318 586.137C14.9515 585.958 14.3428 585.582 13.8057 585.009C13.2686 584.436 13 583.487 13 582.162C13 581.231 13.1074 580.497 13.3223 579.96C13.5371 579.459 13.8236 579.065 14.1816 578.778C14.5755 578.528 15.0231 578.367 15.5244 578.295C16.0615 578.223 16.6523 578.188 17.2969 578.188C17.9414 578.188 18.8903 578.367 20.1436 578.725C21.3968 579.083 22.847 579.548 24.4941 580.121C26.1413 580.694 27.9137 581.339 29.8115 582.055C31.7093 582.771 33.6071 583.487 35.5049 584.203C37.4027 584.955 39.2467 585.653 41.0371 586.298C42.8275 586.978 44.4388 587.551 45.8711 588.017L30.6172 562.074C30.5814 561.895 30.5456 561.752 30.5098 561.645C30.5098 561.501 30.5098 561.394 30.5098 561.322C30.5098 560.821 30.6351 560.463 30.8857 560.248C31.1722 559.997 31.5124 559.872 31.9063 559.872C32.4076 559.872 32.9447 560.069 33.5176 560.463C34.1263 560.821 34.6455 561.358 35.0752 562.074C38.262 567.445 40.876 571.868 42.917 575.341C44.9938 578.85 46.6589 581.661 47.9121 583.773C49.1654 585.886 50.0964 587.462 50.7051 588.5C51.3138 589.574 51.7614 590.38 52.0479 590.917C52.3343 591.418 52.5313 591.866 52.6387 592.26C52.7461 592.689 52.7998 593.155 52.7998 593.656C52.7998 594.695 52.4954 595.536 51.8867 596.181C51.278 596.861 50.5977 597.201 49.8457 597.201C49.0938 597.201 48.0553 596.968 46.7305 596.503C45.4414 596.037 44.027 595.465 42.4873 594.784C40.9476 594.104 39.3721 593.406 37.7607 592.689C36.1852 591.973 34.7171 591.365 33.3564 590.863C32.8193 590.648 32.3717 590.469 32.0137 590.326C31.6914 590.219 31.3154 590.076 30.8857 589.896C30.4561 589.753 29.901 589.538 29.2207 589.252C28.5762 588.965 27.6631 588.554 26.4814 588.017C28.415 589.521 30.4382 591.275 32.5508 593.28C34.6634 595.321 36.7223 597.523 38.7275 599.887C40.7686 602.286 42.7021 604.828 44.5283 607.514C46.3545 610.235 47.9479 613.028 49.3086 615.893C50.7051 618.793 51.7972 621.747 52.585 624.755C53.4085 627.763 53.8203 630.753 53.8203 633.725C53.8203 635.551 53.4264 636.804 52.6387 637.484C51.8867 638.201 50.8483 638.559 49.5234 638.559C48.4492 638.559 47.1423 638.362 45.6025 637.968C44.0628 637.574 42.3799 637.037 40.5537 636.356C38.7633 635.676 36.8298 634.906 34.7529 634.047C32.7119 633.188 30.6351 632.274 28.5225 631.308C26.4456 630.377 24.3509 629.428 22.2383 628.461C20.1257 627.53 18.1025 626.653 16.1689 625.829C16.9925 627.87 18.0667 630.001 19.3916 632.221C20.7165 634.441 22.2025 636.804 23.8496 639.311C25.4967 641.853 27.2692 644.521 29.167 647.313C31.1006 650.142 33.07 653.168 35.0752 656.391C35.2184 656.641 35.29 656.981 35.29 657.411C35.29 658.271 34.8066 658.7 33.8398 658.7C33.3385 658.7 32.7835 658.503 32.1748 658.109C31.6019 657.715 31.0827 657.143 30.6172 656.391C27.9674 652.13 25.443 648.28 23.0439 644.843C20.6449 641.405 18.5143 638.254 16.6523 635.39C14.7904 632.561 13.3223 629.965 12.248 627.602C11.138 625.274 10.583 623.108 10.583 621.103C10.583 619.885 10.7441 618.847 11.0664 617.987C11.3529 617.128 11.7467 616.412 12.248 615.839C12.7493 615.302 13.3402 614.89 14.0205 614.604C14.7367 614.353 15.4707 614.228 16.2227 614.228C17.0462 614.228 17.8519 614.389 18.6396 614.711C19.4632 615.069 20.3405 615.552 21.2715 616.161C23.7064 617.271 26.2487 618.507 28.8984 619.867C31.584 621.228 34.1263 622.481 36.5254 623.627C38.9245 624.773 41.055 625.74 42.917 626.527C44.779 627.315 46.1217 627.709 46.9453 627.709C47.5182 627.709 47.8047 627.476 47.8047 627.011Z" fill="white"/>
</svg>
