<svg width="163" height="353" viewBox="0 0 163 353" fill="none" xmlns="http://www.w3.org/2000/svg">
<path d="M57.9997 348.801C51.5203 348.712 45.1272 346.704 38.8205 342.778C35.9399 347.178 31.7398 349.341 26.2203 349.265C19.561 349.174 13.6919 346.153 8.61303 340.203C2.88415 333.524 0.0913383 324.964 0.234604 314.525C0.300473 309.726 1.06122 304.576 2.51684 299.075C2.8341 297.819 5.24757 292.482 9.75725 283.063C14.2069 273.643 16.4602 266.864 16.517 262.724C16.5549 259.964 15.8034 257.884 14.2624 256.482C13.4924 255.752 12.6574 255.38 11.7575 255.368C10.8576 255.356 10.0423 255.734 9.31166 256.504C8.70596 256.916 8.31311 257.121 8.13313 257.118C7.95315 257.116 7.86522 256.965 7.86933 256.665C7.87427 256.305 8.42204 255.742 9.51265 254.977C10.5441 254.151 11.7797 253.748 13.2196 253.768C14.5995 253.787 15.9362 254.765 17.2297 256.703C18.464 258.58 19.0615 260.959 19.0219 263.838C18.9602 268.338 16.7045 275.298 12.2548 284.718C7.7451 294.137 5.23341 300.073 4.7197 302.526C4.20681 304.919 3.92895 307.675 3.88614 310.795C3.7157 323.214 7.60112 333.048 15.5424 340.298C16.4308 341.15 18.247 342.165 20.9911 343.343C23.6752 344.52 26.2771 345.126 28.7969 345.16C32.2766 345.208 34.9932 344.015 36.9468 341.582C32.43 338.399 28.851 334.66 26.2097 330.363C23.5684 326.067 22.2778 321.729 22.3379 317.349C22.412 311.949 24.5489 309.279 28.7485 309.336C33.788 309.405 39.2368 312.45 45.0947 318.471C50.8934 324.432 53.7582 329.931 53.6891 334.971C53.6446 338.211 52.2425 339.811 49.4828 339.774C48.5229 339.76 47.6862 339.509 46.9729 339.019C46.2604 338.469 45.999 337.836 46.1889 337.118L48.2562 337.327C49.1562 337.339 49.625 335.965 49.6629 333.205C49.7189 329.126 47.678 324.807 43.5401 320.25C39.4031 315.633 35.3314 312.817 31.3249 311.802C30.4283 311.549 29.62 311.418 28.9001 311.408C26.2003 311.371 24.8266 313.093 24.7788 316.572C24.7319 319.992 26.0028 323.58 28.5915 327.336C31.181 331.032 34.6133 334.529 38.8885 337.828C39.0118 337.59 39.2645 336.663 39.6467 335.048L39.9008 329.651C40.057 327.013 40.3751 325.697 40.855 325.704C41.695 325.715 42.0976 326.981 42.063 329.501C42.0606 329.681 42.0581 329.861 42.0556 330.041C42.0054 333.7 41.5143 336.694 40.5823 339.021C47.5982 343.738 54.0759 346.137 60.0153 346.219C67.6946 346.324 71.575 343.407 71.6565 337.468C71.7487 330.748 67.1651 323.695 57.9056 316.307L31.8701 298.308C22.3616 291.577 17.5207 285.78 17.3474 280.917L18.2043 277.509C18.819 276.437 19.7264 275.909 20.9262 275.926C22.1261 275.942 22.722 276.25 22.7137 276.85L22.2242 279.724C22.1674 283.863 26.5641 289.234 35.4144 295.836L60.1863 314.088C69.02 321.89 73.3887 329.301 73.2924 336.32C73.2265 341.12 71.891 344.432 69.2857 346.256C66.6812 348.02 62.9192 348.869 57.9997 348.801ZM38.3149 261.571L38.0622 260.307C38.0712 259.647 38.3499 259.021 38.898 258.429C39.4462 257.836 39.8703 257.542 40.1703 257.546C40.4702 257.55 43.3545 259.45 48.8229 263.245C54.2313 267.04 58.0154 268.952 60.1752 268.982C60.3552 268.984 60.5356 268.957 60.7164 268.899C62.1004 268.618 62.7994 267.968 62.8134 266.948C62.8562 263.828 57.7749 258.058 47.5695 249.637C47.332 249.454 47.2149 249.242 47.2182 249.002C47.2215 248.762 47.4631 248.645 47.9431 248.652C48.363 248.658 48.9293 248.935 49.6418 249.485C59.7954 257.305 64.8447 263.225 64.7895 267.245C64.7821 267.785 64.6851 268.294 64.4985 268.771C63.4424 271.397 61.4445 272.689 58.5047 272.649C57.4848 272.635 56.4666 272.501 55.45 272.247L60.7729 277.901C63.844 281.483 65.3685 284.084 65.3462 285.704C65.3248 287.264 64.7943 288.757 63.7546 290.183C62.5325 291.786 60.9316 292.574 58.9517 292.547C54.5721 292.487 49.3946 289.356 43.4192 283.153C37.3837 276.95 34.401 271.298 34.471 266.199C34.4982 264.219 35.2062 262.908 36.5952 262.267C37.0776 262.094 37.4996 261.95 37.8612 261.835C38.1628 261.719 38.314 261.631 38.3149 261.571ZM60.0835 288.782C62.2433 288.812 63.3335 288.077 63.3541 286.577C63.4018 283.097 59.6572 278.305 52.1203 272.201L39.1124 262.482C38.2659 262.95 37.8353 263.725 37.8205 264.805C37.7702 268.464 40.5533 273.363 46.1696 279.5C51.7259 285.637 56.3639 288.731 60.0835 288.782ZM66.0219 236.469C65.9602 240.969 63.4396 243.184 58.46 243.116C55.9403 243.081 53.1896 242.383 50.208 241.022C47.2264 239.661 44.7264 238.187 42.708 236.599C42.7638 236.9 42.7885 237.29 42.7819 237.77C42.7621 239.21 41.7258 240.396 39.6728 241.328L48.2206 248.106C52.7891 251.889 55.0692 254.08 55.061 254.68C55.0569 254.98 54.9348 255.129 54.6949 255.125C54.0949 255.117 53.232 254.595 52.1061 253.56C46.1183 248.257 41.0394 244.497 36.8695 242.28C31.6689 240.828 29.083 239.052 29.1118 236.953C29.1308 235.573 29.7402 234.891 30.9401 234.907C32.14 234.924 33.6595 235.695 35.4988 237.22L38.3489 239.42C39.6087 239.437 40.2514 238.516 40.277 236.656C40.2918 235.576 39.9183 234.371 39.1565 233.04L37.7487 230.681C37.6904 230.56 37.6645 230.259 37.6711 229.779C37.6777 229.299 37.9846 228.794 38.592 228.262C39.1993 227.73 39.7418 227.558 40.2192 227.744L47.9633 234.061C52.8301 237.968 56.7034 239.941 59.5831 239.981C62.4029 240.02 63.8309 238.719 63.8671 236.079C63.905 233.32 62.4816 229.91 59.5971 225.85C57.8902 223.426 55.9704 221.21 53.8378 219.2C51.7035 217.311 50.6376 216.276 50.6401 216.096C50.6458 215.676 50.8887 215.469 51.3686 215.476C51.7886 215.482 52.2949 215.759 52.8874 216.307L56.0876 219.231C57.7452 220.874 59.3403 222.696 60.873 224.697C64.3476 229.485 66.0639 233.409 66.0219 236.469ZM39.3099 189.068L39.0572 187.804C39.0663 187.145 39.3449 186.518 39.8931 185.926C40.4413 185.333 40.8653 185.039 41.1653 185.043C41.4653 185.047 44.3495 186.947 49.8179 190.742C55.2264 194.537 59.0105 196.449 61.1703 196.479C61.3502 196.481 61.5306 196.454 61.7115 196.396C63.0954 196.115 63.7944 195.465 63.8084 194.445C63.8512 191.325 58.7699 185.555 48.5645 177.134C48.327 176.951 48.2099 176.739 48.2132 176.499C48.2165 176.259 48.4581 176.142 48.9381 176.149C49.3581 176.155 49.9243 176.433 50.6368 176.982C60.7905 184.802 65.8397 190.722 65.7845 194.742C65.7771 195.282 65.6801 195.791 65.4936 196.268C64.4374 198.894 62.4395 200.187 59.4998 200.146C58.4799 200.132 57.4616 199.998 56.445 199.744L61.7679 205.398C64.8391 208.98 66.3635 211.581 66.3413 213.201C66.3199 214.761 65.7893 216.254 64.7497 217.68C63.5275 219.283 61.9266 220.071 59.9468 220.044C55.5672 219.984 50.3897 216.853 44.4142 210.65C38.3788 204.447 35.396 198.795 35.466 193.696C35.4932 191.716 36.2013 190.406 37.5902 189.765C38.0726 189.591 38.4946 189.447 38.8562 189.332C39.1579 189.216 39.3091 189.128 39.3099 189.068ZM61.0785 216.279C63.2383 216.309 64.3285 215.574 64.3491 214.074C64.3969 210.594 60.6523 205.803 53.1153 199.699L40.1075 189.979C39.261 190.448 38.8303 191.222 38.8155 192.302C38.7653 195.961 41.5483 200.86 47.1646 206.998C52.7209 213.134 57.3589 216.228 61.0785 216.279ZM67.7928 159.905C67.7837 160.564 67.6855 161.163 67.4981 161.701C66.3655 165.526 64.1794 167.416 60.9397 167.371C56.7401 167.314 51.9168 164.607 46.4697 159.252C41.0227 153.897 38.328 149.119 38.3857 144.92C38.4046 143.54 38.8098 142.435 39.6012 141.606C40.3335 140.716 41.2396 140.278 42.3195 140.293C45.6792 140.339 48.8539 142.933 51.8436 148.075C54.8342 153.156 56.3076 157.287 56.264 160.466C56.2574 160.946 56.1916 161.366 56.0667 161.724C57.6742 162.646 59.3779 163.119 61.1777 163.144C64.2974 163.187 65.8774 161.738 65.9178 158.799C65.959 155.799 64.0023 151.902 60.0477 147.107C57.1582 143.407 54.0813 140.245 50.817 137.62C50.1045 137.07 49.7507 136.615 49.7556 136.255C49.7614 135.835 49.9443 135.627 50.3042 135.632C50.6642 135.637 51.1708 135.884 51.8242 136.373C56.0393 139.671 59.7655 143.623 63.0026 148.228C66.2397 152.833 67.8364 156.725 67.7928 159.905ZM42.1087 142.54C41.3887 142.531 41.0181 143.306 40.9966 144.865C40.9761 146.365 42.1163 148.541 44.4174 151.393C47.4852 155.215 50.7146 158.2 54.1054 160.347C54.2304 159.988 54.2957 159.599 54.3015 159.179C54.3328 156.9 53.1744 153.853 50.8265 150.041C48.4195 146.167 45.7827 143.731 42.9161 142.732C42.6178 142.607 42.3486 142.544 42.1087 142.54ZM65.7545 124.788C66.7505 126.542 67.2308 128.709 67.1954 131.288C67.1608 133.808 66.2942 135.746 64.5954 137.103C62.8974 138.4 60.212 139.503 56.5392 140.413C57.6043 141.508 58.1339 142.265 58.1282 142.685C58.1241 142.985 57.912 143.132 57.4921 143.126C57.0721 143.121 56.7142 142.966 56.4183 142.662C53.9857 140.648 50.4922 137.24 45.9377 132.437L35.4743 120.952C32.459 117.67 30.9555 115.73 30.9638 115.13C30.9901 113.21 31.7232 112.26 33.1631 112.28C33.883 112.29 34.5988 112.599 35.3105 113.209C35.963 113.758 36.4972 114.186 36.9131 114.491C37.2697 114.736 37.626 115.011 37.9819 115.316C39.8269 116.421 43.6513 117.584 49.4551 118.804C55.2597 119.964 59.2978 120.859 61.5694 121.49C61.5777 116.51 58.4084 111.336 52.0615 105.968C51.4697 105.36 51.176 104.906 51.1801 104.606C51.1842 104.306 51.3962 104.159 51.8162 104.165C52.1762 104.17 52.6824 104.447 53.3349 104.996C57.3668 108.531 60.1721 111.81 61.7507 114.832C62.6259 116.644 63.3438 118.994 63.9042 121.882L65.7545 124.788ZM55.5987 136.8C57.6385 136.828 59.3274 136.191 60.6654 134.889C61.9442 133.527 62.5952 132.005 62.6182 130.326C62.6413 128.646 62.329 127.351 61.6814 126.442C61.0379 125.233 58.2943 124.026 53.4504 122.819C48.6073 121.552 44.3276 120.774 40.6112 120.483L37.5564 120.081C39.9709 123.414 43.102 126.997 46.9498 130.831C50.7984 134.604 53.3518 136.559 54.61 136.696C54.9692 136.761 55.2987 136.796 55.5987 136.8ZM38.666 85.1388L38.6639 72.1776C38.7864 71.9993 38.8776 71.9105 38.9376 71.9113C39.4775 71.9187 40.176 75.6787 41.033 83.1911C41.8908 90.6436 42.4056 94.6711 42.5773 95.2735C43.5816 96.4274 46.6125 98.5692 51.67 101.699C56.6675 104.828 60.3362 106.408 62.676 106.44C64.8958 106.471 66.0267 104.956 66.0687 101.896C66.0884 100.457 65.6644 98.5606 64.7966 96.2085C63.9288 93.8563 63.1136 92.045 62.3509 90.7744C60.2972 87.3859 57.2569 83.7438 53.23 79.8482C52.4016 78.9967 51.9895 78.421 51.9936 78.1211C51.9961 77.9411 52.1773 77.8536 52.5372 77.8585C52.8972 77.8634 53.611 78.3233 54.6785 79.238C58.4753 82.4104 61.5169 85.9625 63.8031 89.8942C66.6187 94.6133 67.9972 99.1027 67.9387 103.362C67.9132 105.222 67.5022 106.747 66.7058 107.936C65.8503 109.064 64.1926 109.611 61.7328 109.578C59.2731 109.544 55.9282 108.418 51.6982 106.2C47.4083 103.981 44.2212 102.287 42.1371 101.118C42.3055 101.96 42.3856 102.682 42.3774 103.281C42.3535 105.021 41.6517 105.882 40.2718 105.863C39.2519 105.849 38.5418 105.119 38.1416 103.673C38.1441 103.493 38.1178 103.223 38.0628 102.862L38.1344 97.6427C36.7693 96.5439 35.1964 95.2922 33.4155 93.8876C31.2787 92.1781 30.2145 91.0234 30.2227 90.4235C30.231 89.8235 30.4812 89.0769 30.9735 88.1836C31.4658 87.2902 32.042 86.8481 32.7019 86.8572C33.3618 86.8662 35.2919 88.3328 38.4921 91.257C38.5735 89.698 38.6315 87.6586 38.666 85.1388ZM139.536 348.93C141.335 348.955 142.249 347.977 142.276 345.998C142.303 344.018 141.288 341.454 139.231 338.305C137.174 335.157 134.366 332.088 130.807 329.099C129.857 328.365 129.385 327.789 129.391 327.369C129.396 326.949 129.579 326.742 129.939 326.746C130.299 326.751 131.842 328.003 134.568 330.5C141.085 336.59 144.316 341.645 144.261 345.665C144.234 347.645 143.761 349.318 142.842 350.686C141.863 352.052 140.414 352.723 138.494 352.696C136.514 352.669 134.241 352.128 131.675 351.073C127.62 349.277 122.528 346.417 116.402 342.492C105.099 335.316 99.468 330.259 99.5084 327.319C99.5166 326.719 99.7648 326.122 100.253 325.529C100.682 324.875 101.167 324.521 101.708 324.469C103.549 325.874 107.082 328.593 112.307 332.625C117.533 336.597 121.305 339.349 123.625 340.881C125.884 342.412 127.578 343.576 128.707 344.371C129.837 345.107 130.73 345.659 131.385 346.028C131.98 346.396 132.784 346.827 133.797 347.321C135.823 348.369 137.736 348.906 139.536 348.93ZM117.791 300.282L117.538 299.019C117.547 298.359 117.856 297.733 118.464 297.141C119.012 296.549 119.437 296.255 119.737 296.259C119.977 296.262 122.831 298.161 128.299 301.957C133.708 305.751 137.492 307.664 139.651 307.693C139.831 307.696 140.012 307.668 140.193 307.611C141.577 307.33 142.276 306.679 142.29 305.659C142.332 302.539 137.251 296.769 127.046 288.348C126.808 288.165 126.691 287.953 126.694 287.713C126.698 287.474 126.939 287.357 127.419 287.363C127.839 287.369 128.406 287.647 129.118 288.197C139.272 296.017 144.321 301.937 144.266 305.956C144.258 306.496 144.161 307.005 143.975 307.482C142.919 310.108 140.921 311.401 137.981 311.361C136.961 311.347 135.943 311.213 134.926 310.959L140.248 316.702C143.32 320.225 144.845 322.796 144.822 324.416C144.801 325.976 144.271 327.468 143.231 328.894C142.009 330.498 140.408 331.286 138.428 331.259C134.048 331.198 128.871 328.067 122.895 321.865C116.86 315.661 113.877 310.01 113.947 304.91C113.974 302.93 114.682 301.62 116.071 300.979C116.554 300.806 116.976 300.661 117.337 300.546C117.639 300.43 117.79 300.342 117.791 300.282ZM139.56 327.494C141.72 327.523 142.81 326.788 142.83 325.288C142.877 321.869 139.132 317.107 131.595 311.003C123.697 305.014 119.361 301.744 118.589 301.194C117.742 301.662 117.312 302.436 117.297 303.516C117.246 307.176 120.03 312.074 125.646 318.212C131.202 324.349 135.84 327.443 139.56 327.494ZM108.981 299.532C109.341 299.536 109.518 299.689 109.514 299.989C109.509 300.409 108.769 301.809 107.297 304.189C105.825 306.509 104.723 308.084 103.991 308.914C103.746 309.331 103.323 309.535 102.723 309.527C102.063 309.518 101.736 309.303 101.742 308.883C101.748 308.403 102.789 306.857 104.866 304.245C106.882 301.633 108.041 300.209 108.344 299.973C108.649 299.677 108.861 299.53 108.981 299.532ZM125.169 241.487C130.028 241.553 134.609 244.406 138.912 250.046C143.156 255.625 145.25 260.454 145.194 264.534C145.157 267.233 144.95 269.211 144.573 270.466C144.196 271.661 143.098 272.996 141.278 274.471C142.103 275.502 144.214 276.911 147.61 278.698C151.066 280.486 154.024 281.396 156.483 281.43C157.623 281.446 159.131 280.896 161.007 279.782C161.308 279.666 161.547 279.759 161.723 280.062C161.959 280.365 162.076 280.577 162.074 280.697C162.072 280.877 162.04 281.026 161.978 281.145C160.563 283.646 157.846 284.869 153.827 284.814C149.867 284.76 143.043 281.366 133.355 274.632C123.607 267.838 118.33 263.175 117.525 260.643C117.413 260.042 117.359 259.651 117.361 259.471C117.375 258.451 118.492 257.956 120.712 257.987C120.12 257.379 119.567 256.141 119.053 254.274C118.484 251.986 118.206 250.362 118.219 249.402C118.249 247.242 118.904 245.391 120.186 243.848C121.408 242.245 123.069 241.458 125.169 241.487ZM124.206 246.064C121.926 246.032 120.768 247.367 120.731 250.066C120.693 252.766 121.23 255.234 122.339 257.469C122.805 258.496 125.406 261.352 130.142 266.037C134.878 270.723 137.936 273.075 139.316 273.094C140.396 273.108 141.217 272.31 141.779 270.697C142.342 269.025 142.635 267.349 142.658 265.669C142.704 262.369 140.899 258.294 137.246 253.443C133.532 248.592 129.185 246.132 124.206 246.064ZM126.751 218.02C128.851 218.049 132.333 220.107 137.197 224.194C142.951 229.014 145.806 233.103 145.76 236.463L145.74 237.903C145.718 239.463 144.892 240.681 143.259 241.559C142.11 242.263 140.845 242.606 139.465 242.587C135.865 242.538 130.862 239.859 124.454 234.55C117.987 229.181 114.776 224.877 114.82 221.637C114.862 218.577 116.503 217.07 119.743 217.114C120.583 217.126 121.66 217.29 122.976 217.608C123.157 217.551 123.255 216.982 123.27 215.902C123.284 214.822 122.737 213.165 121.628 210.929C122.647 211.003 124.084 213.393 125.94 218.099C126.18 218.042 126.451 218.016 126.751 218.02ZM121.991 223.805C121.963 225.845 124.323 228.788 129.071 232.633C133.819 236.419 137.333 238.327 139.613 238.359C141.893 238.39 143.043 237.686 143.062 236.246C143.098 233.666 140.803 230.364 136.178 226.34C131.552 222.317 128.22 220.291 126.18 220.263C125.627 221.215 124.231 222.396 121.991 223.805ZM146.74 191.27C146.796 191.57 146.817 192.231 146.803 193.251C146.789 194.211 146.386 195.195 145.592 196.204C144.799 197.153 143.802 197.62 142.603 197.603C141.343 197.586 139.966 197.357 138.472 196.917C136.978 196.416 135.843 196.07 135.065 195.88C143.01 202.889 146.956 208.344 146.902 212.244C146.868 214.704 145.32 216.032 142.257 216.23C142.017 216.227 141.807 216.224 141.627 216.222C139.047 216.186 135.589 214.579 131.252 211.399C132.788 213.16 134.564 214.955 136.579 216.783C136.815 217.026 136.931 217.327 136.926 217.687C136.923 217.927 136.771 218.045 136.471 218.041C136.171 218.037 135.665 217.76 134.953 217.21L120.545 204.591C118.766 203.007 117.888 201.405 117.91 199.785C117.932 198.165 118.484 197.362 119.563 197.377C119.983 197.383 120.371 197.568 120.726 197.933C122.913 200.363 126.561 203.444 131.67 207.174C136.78 210.845 140.565 212.697 143.025 212.731C144.105 212.745 144.65 212.393 144.66 211.673C144.694 209.153 142.255 205.459 137.341 200.591C135.684 198.889 132.037 195.718 126.4 191.08C120.704 186.442 117.865 183.403 117.885 181.963C117.914 179.803 118.769 178.735 120.449 178.758C121.049 178.766 122.772 180.05 125.617 182.609C129.709 186.085 133.063 188.742 135.678 190.578C138.233 192.413 140.321 193.342 141.941 193.364C143.56 193.386 144.377 192.947 144.389 192.047C144.395 191.627 144.281 191.146 144.049 190.603C142.306 186.438 138.174 181.431 131.654 175.581C131.239 175.215 131.034 174.852 131.039 174.493C131.043 174.133 131.256 173.955 131.676 173.961C132.036 173.966 132.453 174.182 132.927 174.608C135.891 177.229 138.88 180.301 141.892 183.822C144.844 187.343 146.46 189.826 146.74 191.27ZM147.081 159.879C147.019 164.378 144.498 166.594 139.519 166.526C136.999 166.491 134.248 165.793 131.267 164.432C128.285 163.071 125.785 161.597 123.767 160.009C123.823 160.31 123.847 160.7 123.841 161.18C123.821 162.62 122.784 163.806 120.731 164.738L129.279 171.516C133.848 175.299 136.128 177.49 136.12 178.09C136.116 178.39 135.994 178.538 135.754 178.535C135.154 178.527 134.291 178.005 133.165 176.97C127.177 171.667 122.098 167.907 117.928 165.689C112.728 164.238 110.142 162.462 110.17 160.362C110.189 158.983 110.799 158.301 111.999 158.317C113.199 158.334 114.718 159.105 116.557 160.63L119.408 162.829C120.667 162.847 121.31 161.925 121.336 160.066C121.35 158.986 120.977 157.78 120.215 156.45L118.807 154.09C118.749 153.97 118.723 153.669 118.73 153.189C118.736 152.709 119.043 152.203 119.651 151.672C120.258 151.14 120.8 150.967 121.278 151.154L129.022 157.471C133.889 161.378 137.762 163.351 140.642 163.391C143.462 163.43 144.89 162.129 144.926 159.489C144.964 156.73 143.54 153.32 140.656 149.26C138.949 146.836 137.029 144.619 134.896 142.61C132.762 140.721 131.696 139.686 131.699 139.506C131.704 139.086 131.947 138.879 132.427 138.886C132.847 138.892 133.354 139.169 133.946 139.717L137.146 142.641C138.804 144.284 140.399 146.106 141.932 148.107C145.406 152.895 147.123 156.819 147.081 159.879ZM118.455 101.089L118.453 88.1275C118.575 87.9492 118.666 87.8604 118.726 87.8613C119.266 87.8687 119.965 91.6286 120.822 99.1411C121.679 106.594 122.194 110.621 122.366 111.223C123.37 112.377 126.401 114.519 131.459 117.649C136.456 120.778 140.125 122.358 142.465 122.39C144.684 122.421 145.815 120.906 145.857 117.846C145.877 116.407 145.453 114.511 144.585 112.158C143.717 109.806 142.902 107.995 142.14 106.724C140.086 103.336 137.046 99.6938 133.019 95.7981C132.19 94.9467 131.778 94.371 131.782 94.071C131.785 93.891 131.966 93.8035 132.326 93.8084C132.686 93.8134 133.4 94.2732 134.467 95.188C138.264 98.3604 141.306 101.912 143.592 105.844C146.407 110.563 147.786 115.053 147.727 119.312C147.702 121.172 147.291 122.697 146.494 123.886C145.639 125.014 143.981 125.561 141.521 125.528C139.062 125.494 135.717 124.368 131.487 122.15C127.197 119.931 124.01 118.237 121.926 117.068C122.094 117.91 122.174 118.631 122.166 119.231C122.142 120.971 121.44 121.832 120.06 121.813C119.041 121.799 118.33 121.069 117.93 119.623C117.933 119.443 117.906 119.173 117.851 118.812L117.923 113.593C116.558 112.494 114.985 111.242 113.204 109.838C111.067 108.128 110.003 106.973 110.011 106.373C110.02 105.773 110.27 105.027 110.762 104.133C111.254 103.24 111.831 102.798 112.491 102.807C113.15 102.816 115.081 104.283 118.281 107.207C118.362 105.648 118.42 103.609 118.455 101.089ZM128.72 74.5084C130.82 74.5372 134.302 76.5952 139.167 80.6823C144.921 85.5017 147.775 89.5913 147.729 92.951L147.709 94.3908C147.688 95.9507 146.861 97.1695 145.229 98.0472C144.079 98.7514 142.814 99.0941 141.434 99.0752C137.835 99.0258 132.831 96.3469 126.423 91.0384C119.956 85.6692 116.745 81.3647 116.79 78.125C116.832 75.0653 118.472 73.5577 121.712 73.6021C122.552 73.6137 123.63 73.7785 124.946 74.0966C125.126 74.039 125.224 73.4703 125.239 72.3904C125.254 71.3105 124.707 69.6529 123.597 67.4174C124.616 67.4914 126.054 69.8814 127.909 74.5873C128.15 74.5306 128.42 74.5043 128.72 74.5084ZM123.961 80.2936C123.933 82.3334 126.292 85.2761 131.04 89.1216C135.789 92.9071 139.303 94.8155 141.583 94.8468C143.862 94.8781 145.012 94.1738 145.032 92.7339C145.067 90.1542 142.772 86.8524 138.147 82.8285C133.522 78.8047 130.189 76.7788 128.15 76.7508C127.596 77.7033 126.2 78.8842 123.961 80.2936ZM111.375 52.9158C111.387 52.0159 111.699 51.1801 112.31 50.4084C112.861 49.5759 113.527 49.165 114.307 49.1757C115.087 49.1864 115.771 49.5859 116.36 50.374C116.89 51.1014 117.149 51.915 117.137 52.8149C117.125 53.7148 116.783 54.5502 116.113 55.3211C115.443 56.032 114.688 56.3816 113.848 56.3701C112.168 56.347 111.344 55.1956 111.375 52.9158ZM148.858 69.7218C148.816 72.7815 146.815 74.2842 142.856 74.2298C139.616 74.1854 135.171 72.3542 129.52 68.7363C123.809 65.1176 120.938 62.2279 120.908 60.0673C120.916 59.4674 121.165 58.8107 121.655 58.0974C122.146 57.3241 122.631 56.9407 123.111 56.9473C123.527 57.253 124.002 57.6196 124.536 58.0469C125.01 58.4735 125.544 58.9308 126.137 59.419C126.731 59.9072 127.591 60.5791 128.72 61.4347C129.788 62.2894 130.827 63.1137 131.836 63.9077C137.594 68.4871 141.583 70.7921 143.802 70.8225C145.962 70.8522 147.052 70.117 147.073 68.6172C147.09 67.3573 146.424 65.638 145.074 63.4593C142.023 58.3769 138.658 54.3404 134.979 51.3496C133.614 50.2508 132.934 49.5214 132.939 49.1614C132.944 48.7414 133.187 48.5347 133.667 48.5413C134.147 48.5479 135.098 49.251 136.519 50.6507C137.939 52.0503 139.064 53.1758 139.893 54.0273C140.722 54.8187 141.284 55.3665 141.58 55.6706C141.816 55.9739 142.318 56.5508 143.086 57.4014C143.796 58.1912 144.297 58.7982 144.592 59.2223C144.886 59.6463 145.328 60.2525 145.917 61.0406C146.506 61.8288 146.947 62.5249 147.238 63.1289C147.47 63.7322 147.761 64.4262 148.11 65.2111C148.632 66.4784 148.882 67.982 148.858 69.7218ZM137.99 22.1536C137.984 22.5736 137.412 22.6858 136.275 22.4901C132.145 21.7134 126.484 18.8454 119.291 13.8863C112.039 8.92627 108.424 5.57636 108.448 3.83652C108.458 3.11659 108.619 2.33872 108.93 1.50292C109.183 0.606296 109.549 0.161279 110.029 0.167866C110.209 0.170336 110.417 0.293206 110.654 0.536476C113.259 3.09247 117.767 6.87469 124.179 11.8832C130.532 16.8308 134.424 19.6445 135.855 20.3242C137.286 20.9439 137.998 21.5537 137.99 22.1536ZM142.551 24.2864C142.563 23.3865 142.875 22.5507 143.485 21.779C144.036 21.0065 144.701 20.6256 145.481 20.6363C146.261 20.647 146.946 21.0464 147.535 21.8346C148.065 22.5619 148.324 23.3756 148.312 24.2755C148.299 25.1754 147.958 26.0108 147.287 26.7817C146.617 27.4925 145.862 27.8422 145.022 27.8307C143.343 27.8076 142.519 26.6262 142.551 24.2864Z" fill="#525252"/>
</svg>
