<svg width="821" height="35" viewBox="0 0 821 35" fill="none" xmlns="http://www.w3.org/2000/svg">
<path d="M7.612 27.36C6.076 27.36 4.696 26.904 3.472 25.992C2.272 25.08 1.372 23.868 0.772 22.356C0.724 22.212 0.7 22.092 0.7 21.996C0.7 21.804 0.772 21.648 0.916 21.528C1.06 21.408 1.228 21.348 1.42 21.348C1.732 21.348 1.96 21.504 2.104 21.816C2.56 23.04 3.28 24.036 4.264 24.804C5.248 25.548 6.364 25.92 7.612 25.92C9.46 25.92 10.936 25.368 12.04 24.264C13.144 23.16 13.696 21.684 13.696 19.836V2.52C13.696 2.328 13.768 2.16 13.912 2.016C14.056 1.872 14.248 1.8 14.488 1.8C14.704 1.8 14.872 1.872 14.992 2.016C15.136 2.16 15.208 2.328 15.208 2.52V19.836C15.208 21.324 14.884 22.644 14.236 23.796C13.612 24.924 12.724 25.8 11.572 26.424C10.42 27.048 9.1 27.36 7.612 27.36ZM36.0205 22.68C36.1885 22.68 36.3325 22.752 36.4525 22.896C36.5725 23.016 36.6325 23.16 36.6325 23.328C36.6325 23.496 36.5845 23.64 36.4885 23.76C35.6965 24.816 34.7125 25.68 33.5365 26.352C32.3605 27.024 31.1005 27.36 29.7565 27.36C27.9565 27.36 26.3605 26.976 24.9685 26.208C23.5765 25.44 22.4845 24.348 21.6925 22.932C20.9245 21.516 20.5405 19.872 20.5405 18C20.5405 16.08 20.9125 14.4 21.6565 12.96C22.4245 11.496 23.4325 10.38 24.6805 9.612C25.9285 8.844 27.2605 8.46 28.6765 8.46C30.0925 8.46 31.4005 8.772 32.6005 9.396C33.8245 9.996 34.8205 10.908 35.5885 12.132C36.3565 13.356 36.7645 14.868 36.8125 16.668C36.8125 16.86 36.7405 17.04 36.5965 17.208C36.4525 17.352 36.2845 17.424 36.0925 17.424H21.9445V17.892C21.9445 19.38 22.2445 20.748 22.8445 21.996C23.4445 23.22 24.3325 24.192 25.5085 24.912C26.6845 25.632 28.1005 25.992 29.7565 25.992C30.9085 25.992 31.9885 25.716 32.9965 25.164C34.0285 24.588 34.8325 23.868 35.4085 23.004C35.5765 22.788 35.7805 22.68 36.0205 22.68ZM28.6765 9.9C27.7885 9.9 26.8765 10.14 25.9405 10.62C25.0285 11.076 24.2125 11.772 23.4925 12.708C22.7965 13.62 22.3285 14.736 22.0885 16.056H35.3365V15.732C35.2165 14.508 34.8205 13.464 34.1485 12.6C33.5005 11.712 32.6845 11.04 31.7005 10.584C30.7405 10.128 29.7325 9.9 28.6765 9.9ZM50.2183 24.12C50.0503 23.856 49.9663 23.628 49.9663 23.436C49.9663 23.268 50.0623 23.112 50.2543 22.968C50.3743 22.848 50.5183 22.788 50.6863 22.788C50.9263 22.788 51.1183 22.884 51.2623 23.076C52.6543 25.068 54.5983 26.064 57.0943 26.064C58.3663 26.064 59.4823 25.752 60.4423 25.128C61.4023 24.48 61.8823 23.616 61.8823 22.536C61.8823 21.432 61.4623 20.604 60.6223 20.052C59.7823 19.5 58.6303 19.044 57.1663 18.684C55.2223 18.204 53.6863 17.568 52.5583 16.776C51.4543 15.96 50.9023 14.82 50.9023 13.356C50.9023 11.94 51.4663 10.776 52.5943 9.864C53.7223 8.928 55.1743 8.46 56.9503 8.46C57.9343 8.46 58.9063 8.652 59.8663 9.036C60.8503 9.42 61.7383 10.032 62.5303 10.872C62.6983 11.016 62.7823 11.184 62.7823 11.376C62.7823 11.592 62.6983 11.784 62.5303 11.952C62.3383 12.048 62.1823 12.096 62.0623 12.096C61.8943 12.096 61.7503 12.024 61.6303 11.88C60.3823 10.512 58.7743 9.828 56.8063 9.828C55.5343 9.828 54.4543 10.14 53.5663 10.764C52.7023 11.388 52.2703 12.252 52.2703 13.356C52.3423 14.388 52.8103 15.192 53.6743 15.768C54.5623 16.32 55.8583 16.812 57.5623 17.244C58.7863 17.556 59.7943 17.904 60.5863 18.288C61.4023 18.648 62.0503 19.164 62.5303 19.836C63.0103 20.508 63.2503 21.384 63.2503 22.464C63.2503 23.976 62.6623 25.176 61.4863 26.064C60.3343 26.928 58.8223 27.36 56.9503 27.36C54.2143 27.36 51.9703 26.28 50.2183 24.12ZM81.5327 9.036C81.7487 9.036 81.9167 9.108 82.0367 9.252C82.1807 9.396 82.2527 9.564 82.2527 9.756V20.232C82.2527 22.512 81.6047 24.252 80.3087 25.452C79.0367 26.628 77.2967 27.216 75.0887 27.216C72.8807 27.216 71.1407 26.628 69.8687 25.452C68.5967 24.252 67.9607 22.512 67.9607 20.232V9.756C67.9607 9.564 68.0327 9.396 68.1767 9.252C68.3207 9.108 68.4887 9.036 68.6807 9.036C68.8967 9.036 69.0647 9.108 69.1847 9.252C69.3287 9.396 69.4007 9.564 69.4007 9.756V20.232C69.4007 22.032 69.9047 23.424 70.9127 24.408C71.9207 25.368 73.3127 25.848 75.0887 25.848C76.8887 25.848 78.2927 25.368 79.3007 24.408C80.3087 23.424 80.8127 22.032 80.8127 20.232V9.756C80.8127 9.564 80.8727 9.396 80.9927 9.252C81.1367 9.108 81.3167 9.036 81.5327 9.036ZM89.6858 26.28C89.6858 26.472 89.6138 26.64 89.4698 26.784C89.3258 26.928 89.1578 27 88.9658 27C88.7498 27 88.5698 26.928 88.4258 26.784C88.3058 26.64 88.2458 26.472 88.2458 26.28V9.18C88.2458 8.988 88.3178 8.82 88.4618 8.676C88.6058 8.532 88.7738 8.46 88.9658 8.46C89.1818 8.46 89.3498 8.532 89.4698 8.676C89.6138 8.82 89.6858 8.988 89.6858 9.18V26.28ZM88.9658 6.012C88.5818 6.012 88.2698 5.904 88.0298 5.688C87.8138 5.472 87.7058 5.196 87.7058 4.86V4.572C87.7058 4.236 87.8258 3.96 88.0658 3.744C88.3058 3.528 88.6178 3.42 89.0018 3.42C89.3378 3.42 89.6138 3.528 89.8298 3.744C90.0698 3.96 90.1898 4.236 90.1898 4.572V4.86C90.1898 5.196 90.0698 5.472 89.8298 5.688C89.6138 5.904 89.3258 6.012 88.9658 6.012ZM94.6558 24.12C94.4878 23.856 94.4038 23.628 94.4038 23.436C94.4038 23.268 94.4998 23.112 94.6918 22.968C94.8118 22.848 94.9558 22.788 95.1238 22.788C95.3638 22.788 95.5558 22.884 95.6998 23.076C97.0918 25.068 99.0358 26.064 101.532 26.064C102.804 26.064 103.92 25.752 104.88 25.128C105.84 24.48 106.32 23.616 106.32 22.536C106.32 21.432 105.9 20.604 105.06 20.052C104.22 19.5 103.068 19.044 101.604 18.684C99.6598 18.204 98.1238 17.568 96.9958 16.776C95.8918 15.96 95.3398 14.82 95.3398 13.356C95.3398 11.94 95.9038 10.776 97.0318 9.864C98.1598 8.928 99.6118 8.46 101.388 8.46C102.372 8.46 103.344 8.652 104.304 9.036C105.288 9.42 106.176 10.032 106.968 10.872C107.136 11.016 107.22 11.184 107.22 11.376C107.22 11.592 107.136 11.784 106.968 11.952C106.776 12.048 106.62 12.096 106.5 12.096C106.332 12.096 106.188 12.024 106.068 11.88C104.82 10.512 103.212 9.828 101.244 9.828C99.9718 9.828 98.8918 10.14 98.0038 10.764C97.1398 11.388 96.7078 12.252 96.7078 13.356C96.7798 14.388 97.2478 15.192 98.1118 15.768C98.9998 16.32 100.296 16.812 102 17.244C103.224 17.556 104.232 17.904 105.024 18.288C105.84 18.648 106.488 19.164 106.968 19.836C107.448 20.508 107.688 21.384 107.688 22.464C107.688 23.976 107.1 25.176 105.924 26.064C104.772 26.928 103.26 27.36 101.388 27.36C98.6518 27.36 96.4078 26.28 94.6558 24.12ZM141.361 3.888C141.577 4.056 141.685 4.248 141.685 4.464C141.685 4.656 141.637 4.812 141.541 4.932C141.397 5.124 141.217 5.22 141.001 5.22C140.905 5.22 140.761 5.172 140.569 5.076C138.337 3.564 135.973 2.808 133.477 2.808C131.461 2.808 129.601 3.312 127.897 4.32C126.217 5.304 124.885 6.684 123.901 8.46C122.917 10.212 122.425 12.192 122.425 14.4C122.425 16.608 122.917 18.6 123.901 20.376C124.885 22.128 126.217 23.508 127.897 24.516C129.601 25.5 131.461 25.992 133.477 25.992C135.997 25.992 138.349 25.248 140.533 23.76C140.653 23.664 140.797 23.616 140.965 23.616C141.205 23.616 141.397 23.712 141.541 23.904C141.637 24.024 141.685 24.168 141.685 24.336C141.685 24.576 141.589 24.768 141.397 24.912C140.461 25.584 139.249 26.16 137.761 26.64C136.297 27.12 134.869 27.36 133.477 27.36C131.197 27.36 129.097 26.796 127.177 25.668C125.257 24.54 123.733 22.992 122.605 21.024C121.477 19.032 120.913 16.824 120.913 14.4C120.913 11.976 121.477 9.78 122.605 7.812C123.733 5.82 125.257 4.26 127.177 3.132C129.097 2.004 131.197 1.44 133.477 1.44C134.917 1.44 136.309 1.656 137.653 2.088C139.021 2.52 140.257 3.12 141.361 3.888ZM153.785 8.82C155.849 8.82 157.433 9.48 158.537 10.8C159.641 12.096 160.193 13.752 160.193 15.768V26.28C160.193 26.472 160.121 26.64 159.977 26.784C159.833 26.928 159.665 27 159.473 27C159.257 27 159.077 26.928 158.933 26.784C158.813 26.64 158.753 26.472 158.753 26.28V15.768C158.753 14.112 158.345 12.768 157.529 11.736C156.713 10.704 155.465 10.188 153.785 10.188C152.753 10.188 151.733 10.44 150.725 10.944C149.741 11.448 148.937 12.132 148.313 12.996C147.689 13.86 147.377 14.784 147.377 15.768V26.28C147.377 26.472 147.305 26.64 147.161 26.784C147.017 26.928 146.849 27 146.657 27C146.441 27 146.261 26.928 146.117 26.784C145.997 26.64 145.937 26.472 145.937 26.28V1.08C145.937 0.887999 146.009 0.719999 146.153 0.575999C146.297 0.431999 146.465 0.36 146.657 0.36C146.873 0.36 147.041 0.431999 147.161 0.575999C147.305 0.719999 147.377 0.887999 147.377 1.08V12.456C148.049 11.4 148.973 10.536 150.149 9.864C151.349 9.168 152.561 8.82 153.785 8.82ZM167.772 26.28C167.772 26.472 167.7 26.64 167.556 26.784C167.412 26.928 167.244 27 167.052 27C166.836 27 166.656 26.928 166.512 26.784C166.392 26.64 166.332 26.472 166.332 26.28V1.08C166.332 0.887999 166.404 0.719999 166.548 0.575999C166.692 0.431999 166.86 0.36 167.052 0.36C167.268 0.36 167.436 0.431999 167.556 0.575999C167.7 0.719999 167.772 0.887999 167.772 1.08V26.28ZM190.058 17.928C190.058 19.704 189.674 21.312 188.906 22.752C188.138 24.168 187.07 25.296 185.702 26.136C184.358 26.952 182.858 27.36 181.202 27.36C179.546 27.36 178.034 26.952 176.666 26.136C175.322 25.296 174.254 24.156 173.462 22.716C172.694 21.276 172.31 19.68 172.31 17.928C172.31 16.152 172.694 14.544 173.462 13.104C174.254 11.664 175.322 10.536 176.666 9.72C178.01 8.88 179.522 8.46 181.202 8.46C182.858 8.46 184.358 8.88 185.702 9.72C187.07 10.536 188.138 11.664 188.906 13.104C189.674 14.544 190.058 16.152 190.058 17.928ZM188.618 17.928C188.618 16.392 188.294 15.012 187.646 13.788C187.022 12.564 186.146 11.604 185.018 10.908C183.89 10.188 182.618 9.828 181.202 9.828C179.81 9.828 178.538 10.188 177.386 10.908C176.258 11.604 175.37 12.564 174.722 13.788C174.074 15.012 173.75 16.392 173.75 17.928C173.75 19.44 174.074 20.808 174.722 22.032C175.37 23.256 176.258 24.228 177.386 24.948C178.538 25.644 179.81 25.992 181.202 25.992C182.618 25.992 183.89 25.644 185.018 24.948C186.146 24.252 187.022 23.292 187.646 22.068C188.294 20.82 188.618 19.44 188.618 17.928ZM208.989 22.68C209.157 22.68 209.301 22.752 209.421 22.896C209.541 23.016 209.601 23.16 209.601 23.328C209.601 23.496 209.553 23.64 209.457 23.76C208.665 24.816 207.681 25.68 206.505 26.352C205.329 27.024 204.069 27.36 202.725 27.36C200.925 27.36 199.329 26.976 197.937 26.208C196.545 25.44 195.453 24.348 194.661 22.932C193.893 21.516 193.509 19.872 193.509 18C193.509 16.08 193.881 14.4 194.625 12.96C195.393 11.496 196.401 10.38 197.649 9.612C198.897 8.844 200.229 8.46 201.645 8.46C203.061 8.46 204.369 8.772 205.569 9.396C206.793 9.996 207.789 10.908 208.557 12.132C209.325 13.356 209.733 14.868 209.781 16.668C209.781 16.86 209.709 17.04 209.565 17.208C209.421 17.352 209.253 17.424 209.061 17.424H194.913V17.892C194.913 19.38 195.213 20.748 195.813 21.996C196.413 23.22 197.301 24.192 198.477 24.912C199.653 25.632 201.069 25.992 202.725 25.992C203.877 25.992 204.957 25.716 205.965 25.164C206.997 24.588 207.801 23.868 208.377 23.004C208.545 22.788 208.749 22.68 208.989 22.68ZM201.645 9.9C200.757 9.9 199.845 10.14 198.909 10.62C197.997 11.076 197.181 11.772 196.461 12.708C195.765 13.62 195.297 14.736 195.057 16.056H208.305V15.732C208.185 14.508 207.789 13.464 207.117 12.6C206.469 11.712 205.653 11.04 204.669 10.584C203.709 10.128 202.701 9.9 201.645 9.9ZM201.249 7.344C201.129 7.344 201.033 7.308 200.961 7.236C200.889 7.14 200.853 7.032 200.853 6.912C200.853 6.792 200.913 6.636 201.033 6.444L203.265 3.096C203.481 2.712 203.793 2.52 204.201 2.52C204.465 2.52 204.681 2.604 204.849 2.772C205.041 2.916 205.137 3.132 205.137 3.42C205.137 3.612 205.053 3.816 204.885 4.032L202.185 6.804C201.825 7.164 201.513 7.344 201.249 7.344ZM216.364 26.964C216.364 27.684 216.196 28.356 215.86 28.98C215.548 29.628 215.14 30.132 214.636 30.492C214.156 30.876 213.7 31.068 213.268 31.068C213.1 31.068 212.944 31.02 212.8 30.924C212.68 30.828 212.62 30.684 212.62 30.492C212.62 30.276 212.668 30.132 212.764 30.06C212.86 29.988 213.028 29.916 213.268 29.844C213.532 29.772 213.736 29.7 213.88 29.628C214.216 29.46 214.468 29.196 214.636 28.836C214.828 28.476 214.924 28.104 214.924 27.72C214.924 27.144 214.72 26.856 214.312 26.856C213.952 26.856 213.64 26.964 213.376 27.18C213.184 26.94 213.088 26.7 213.088 26.46C213.088 26.148 213.244 25.872 213.556 25.632C213.892 25.392 214.264 25.272 214.672 25.272C215.176 25.272 215.584 25.428 215.896 25.74C216.208 26.052 216.364 26.46 216.364 26.964ZM238.559 8.46C240.143 8.46 241.571 8.868 242.843 9.684C244.115 10.476 245.111 11.592 245.831 13.032C246.551 14.448 246.911 16.044 246.911 17.82C246.911 19.596 246.539 21.216 245.795 22.68C245.075 24.12 244.079 25.26 242.807 26.1C241.535 26.94 240.119 27.36 238.559 27.36C237.143 27.36 235.835 26.988 234.635 26.244C233.435 25.476 232.439 24.42 231.647 23.076V26.28C231.647 26.472 231.575 26.64 231.431 26.784C231.311 26.928 231.143 27 230.927 27C230.735 27 230.567 26.928 230.423 26.784C230.279 26.64 230.207 26.472 230.207 26.28V1.116C230.207 0.923998 230.267 0.755998 230.387 0.611999C230.531 0.467999 230.711 0.395999 230.927 0.395999C231.143 0.395999 231.311 0.467999 231.431 0.611999C231.575 0.755998 231.647 0.923998 231.647 1.116V12.852C232.367 11.436 233.327 10.356 234.527 9.612C235.751 8.844 237.095 8.46 238.559 8.46ZM238.487 25.992C239.807 25.992 240.995 25.632 242.051 24.912C243.107 24.192 243.935 23.22 244.535 21.996C245.159 20.748 245.471 19.356 245.471 17.82C245.471 16.284 245.159 14.916 244.535 13.716C243.935 12.492 243.107 11.544 242.051 10.872C240.995 10.176 239.807 9.828 238.487 9.828C237.143 9.828 235.931 10.176 234.851 10.872C233.795 11.544 232.967 12.492 232.367 13.716C231.791 14.916 231.503 16.284 231.503 17.82C231.503 19.356 231.803 20.748 232.403 21.996C233.003 23.244 233.831 24.228 234.887 24.948C235.943 25.644 237.143 25.992 238.487 25.992ZM253.057 26.28C253.057 26.472 252.985 26.64 252.841 26.784C252.697 26.928 252.529 27 252.337 27C252.121 27 251.941 26.928 251.797 26.784C251.677 26.64 251.617 26.472 251.617 26.28V9.18C251.617 8.988 251.689 8.82 251.833 8.676C251.977 8.532 252.145 8.46 252.337 8.46C252.553 8.46 252.721 8.532 252.841 8.676C252.985 8.82 253.057 8.988 253.057 9.18V26.28ZM252.337 6.012C251.953 6.012 251.641 5.904 251.401 5.688C251.185 5.472 251.077 5.196 251.077 4.86V4.572C251.077 4.236 251.197 3.96 251.437 3.744C251.677 3.528 251.989 3.42 252.373 3.42C252.709 3.42 252.985 3.528 253.201 3.744C253.441 3.96 253.561 4.236 253.561 4.572V4.86C253.561 5.196 253.441 5.472 253.201 5.688C252.985 5.904 252.697 6.012 252.337 6.012ZM273.255 22.68C273.423 22.68 273.567 22.752 273.687 22.896C273.807 23.016 273.867 23.16 273.867 23.328C273.867 23.496 273.819 23.64 273.723 23.76C272.931 24.816 271.947 25.68 270.771 26.352C269.595 27.024 268.335 27.36 266.991 27.36C265.191 27.36 263.595 26.976 262.203 26.208C260.811 25.44 259.719 24.348 258.927 22.932C258.159 21.516 257.775 19.872 257.775 18C257.775 16.08 258.147 14.4 258.891 12.96C259.659 11.496 260.667 10.38 261.915 9.612C263.163 8.844 264.495 8.46 265.911 8.46C267.327 8.46 268.635 8.772 269.835 9.396C271.059 9.996 272.055 10.908 272.823 12.132C273.591 13.356 273.999 14.868 274.047 16.668C274.047 16.86 273.975 17.04 273.831 17.208C273.687 17.352 273.519 17.424 273.327 17.424H259.179V17.892C259.179 19.38 259.479 20.748 260.079 21.996C260.679 23.22 261.567 24.192 262.743 24.912C263.919 25.632 265.335 25.992 266.991 25.992C268.143 25.992 269.223 25.716 270.231 25.164C271.263 24.588 272.067 23.868 272.643 23.004C272.811 22.788 273.015 22.68 273.255 22.68ZM265.911 9.9C265.023 9.9 264.111 10.14 263.175 10.62C262.263 11.076 261.447 11.772 260.727 12.708C260.031 13.62 259.563 14.736 259.323 16.056H272.571V15.732C272.451 14.508 272.055 13.464 271.383 12.6C270.735 11.712 269.919 11.04 268.935 10.584C267.975 10.128 266.967 9.9 265.911 9.9ZM286.93 8.46C289.066 8.46 290.674 9.096 291.754 10.368C292.834 11.616 293.374 13.248 293.374 15.264V26.28C293.374 26.472 293.302 26.64 293.158 26.784C293.014 26.928 292.846 27 292.654 27C292.438 27 292.258 26.928 292.114 26.784C291.994 26.64 291.934 26.472 291.934 26.28V15.408C291.934 13.776 291.502 12.444 290.638 11.412C289.798 10.356 288.514 9.828 286.786 9.828C285.73 9.828 284.686 10.08 283.654 10.584C282.646 11.088 281.818 11.772 281.17 12.636C280.522 13.5 280.198 14.424 280.198 15.408V26.28C280.198 26.472 280.126 26.64 279.982 26.784C279.838 26.928 279.67 27 279.478 27C279.262 27 279.082 26.928 278.938 26.784C278.818 26.64 278.758 26.472 278.758 26.28V9.756C278.758 9.564 278.83 9.396 278.974 9.252C279.118 9.108 279.286 9.036 279.478 9.036C279.694 9.036 279.862 9.108 279.982 9.252C280.126 9.396 280.198 9.564 280.198 9.756V12.168C280.894 11.088 281.866 10.2 283.114 9.504C284.386 8.808 285.658 8.46 286.93 8.46ZM312.791 8.388C312.935 8.388 313.079 8.448 313.223 8.568C313.391 8.664 313.475 8.796 313.475 8.964C313.475 9.108 313.439 9.252 313.367 9.396L306.203 26.532C306.155 26.676 306.059 26.796 305.915 26.892C305.795 26.964 305.663 27 305.519 27C305.375 27 305.231 26.964 305.087 26.892C304.967 26.796 304.883 26.676 304.835 26.532L297.635 9.432C297.587 9.288 297.563 9.18 297.563 9.108C297.563 8.916 297.623 8.748 297.743 8.604C297.887 8.46 298.079 8.388 298.319 8.388C298.439 8.388 298.559 8.436 298.679 8.532C298.823 8.604 298.919 8.712 298.967 8.856L305.483 24.516L312.035 8.856C312.155 8.544 312.407 8.388 312.791 8.388ZM331.86 22.68C332.028 22.68 332.172 22.752 332.292 22.896C332.412 23.016 332.472 23.16 332.472 23.328C332.472 23.496 332.424 23.64 332.328 23.76C331.536 24.816 330.552 25.68 329.376 26.352C328.2 27.024 326.94 27.36 325.596 27.36C323.796 27.36 322.2 26.976 320.808 26.208C319.416 25.44 318.324 24.348 317.532 22.932C316.764 21.516 316.38 19.872 316.38 18C316.38 16.08 316.752 14.4 317.496 12.96C318.264 11.496 319.272 10.38 320.52 9.612C321.768 8.844 323.1 8.46 324.516 8.46C325.932 8.46 327.24 8.772 328.44 9.396C329.664 9.996 330.66 10.908 331.428 12.132C332.196 13.356 332.604 14.868 332.652 16.668C332.652 16.86 332.58 17.04 332.436 17.208C332.292 17.352 332.124 17.424 331.932 17.424H317.784V17.892C317.784 19.38 318.084 20.748 318.684 21.996C319.284 23.22 320.172 24.192 321.348 24.912C322.524 25.632 323.94 25.992 325.596 25.992C326.748 25.992 327.828 25.716 328.836 25.164C329.868 24.588 330.672 23.868 331.248 23.004C331.416 22.788 331.62 22.68 331.86 22.68ZM324.516 9.9C323.628 9.9 322.716 10.14 321.78 10.62C320.868 11.076 320.052 11.772 319.332 12.708C318.636 13.62 318.168 14.736 317.928 16.056H331.176V15.732C331.056 14.508 330.66 13.464 329.988 12.6C329.34 11.712 328.524 11.04 327.54 10.584C326.58 10.128 325.572 9.9 324.516 9.9ZM345.535 8.46C347.671 8.46 349.279 9.096 350.359 10.368C351.439 11.616 351.979 13.248 351.979 15.264V26.28C351.979 26.472 351.907 26.64 351.763 26.784C351.619 26.928 351.451 27 351.259 27C351.043 27 350.863 26.928 350.719 26.784C350.599 26.64 350.539 26.472 350.539 26.28V15.408C350.539 13.776 350.107 12.444 349.243 11.412C348.403 10.356 347.119 9.828 345.391 9.828C344.335 9.828 343.291 10.08 342.259 10.584C341.251 11.088 340.423 11.772 339.775 12.636C339.127 13.5 338.803 14.424 338.803 15.408V26.28C338.803 26.472 338.731 26.64 338.587 26.784C338.443 26.928 338.275 27 338.083 27C337.867 27 337.687 26.928 337.543 26.784C337.423 26.64 337.363 26.472 337.363 26.28V9.756C337.363 9.564 337.435 9.396 337.579 9.252C337.723 9.108 337.891 9.036 338.083 9.036C338.299 9.036 338.467 9.108 338.587 9.252C338.731 9.396 338.803 9.564 338.803 9.756V12.168C339.499 11.088 340.471 10.2 341.719 9.504C342.991 8.808 344.263 8.46 345.535 8.46ZM371.537 9.036C371.753 9.036 371.921 9.108 372.041 9.252C372.185 9.396 372.257 9.564 372.257 9.756V20.232C372.257 22.512 371.609 24.252 370.313 25.452C369.041 26.628 367.301 27.216 365.093 27.216C362.885 27.216 361.145 26.628 359.873 25.452C358.601 24.252 357.965 22.512 357.965 20.232V9.756C357.965 9.564 358.037 9.396 358.181 9.252C358.325 9.108 358.493 9.036 358.685 9.036C358.901 9.036 359.069 9.108 359.189 9.252C359.333 9.396 359.405 9.564 359.405 9.756V20.232C359.405 22.032 359.909 23.424 360.917 24.408C361.925 25.368 363.317 25.848 365.093 25.848C366.893 25.848 368.297 25.368 369.305 24.408C370.313 23.424 370.817 22.032 370.817 20.232V9.756C370.817 9.564 370.877 9.396 370.997 9.252C371.141 9.108 371.321 9.036 371.537 9.036ZM392.47 22.68C392.638 22.68 392.782 22.752 392.902 22.896C393.022 23.016 393.082 23.16 393.082 23.328C393.082 23.496 393.034 23.64 392.938 23.76C392.146 24.816 391.162 25.68 389.986 26.352C388.81 27.024 387.55 27.36 386.206 27.36C384.406 27.36 382.81 26.976 381.418 26.208C380.026 25.44 378.934 24.348 378.142 22.932C377.374 21.516 376.99 19.872 376.99 18C376.99 16.08 377.362 14.4 378.106 12.96C378.874 11.496 379.882 10.38 381.13 9.612C382.378 8.844 383.71 8.46 385.126 8.46C386.542 8.46 387.85 8.772 389.05 9.396C390.274 9.996 391.27 10.908 392.038 12.132C392.806 13.356 393.214 14.868 393.262 16.668C393.262 16.86 393.19 17.04 393.046 17.208C392.902 17.352 392.734 17.424 392.542 17.424H378.394V17.892C378.394 19.38 378.694 20.748 379.294 21.996C379.894 23.22 380.782 24.192 381.958 24.912C383.134 25.632 384.55 25.992 386.206 25.992C387.358 25.992 388.438 25.716 389.446 25.164C390.478 24.588 391.282 23.868 391.858 23.004C392.026 22.788 392.23 22.68 392.47 22.68ZM385.126 9.9C384.238 9.9 383.326 10.14 382.39 10.62C381.478 11.076 380.662 11.772 379.942 12.708C379.246 13.62 378.778 14.736 378.538 16.056H391.786V15.732C391.666 14.508 391.27 13.464 390.598 12.6C389.95 11.712 389.134 11.04 388.15 10.584C387.19 10.128 386.182 9.9 385.126 9.9ZM406.668 24.12C406.5 23.856 406.416 23.628 406.416 23.436C406.416 23.268 406.512 23.112 406.704 22.968C406.824 22.848 406.968 22.788 407.136 22.788C407.376 22.788 407.568 22.884 407.712 23.076C409.104 25.068 411.048 26.064 413.544 26.064C414.816 26.064 415.932 25.752 416.892 25.128C417.852 24.48 418.332 23.616 418.332 22.536C418.332 21.432 417.912 20.604 417.072 20.052C416.232 19.5 415.08 19.044 413.616 18.684C411.672 18.204 410.136 17.568 409.008 16.776C407.904 15.96 407.352 14.82 407.352 13.356C407.352 11.94 407.916 10.776 409.044 9.864C410.172 8.928 411.624 8.46 413.4 8.46C414.384 8.46 415.356 8.652 416.316 9.036C417.3 9.42 418.188 10.032 418.98 10.872C419.148 11.016 419.232 11.184 419.232 11.376C419.232 11.592 419.148 11.784 418.98 11.952C418.788 12.048 418.632 12.096 418.512 12.096C418.344 12.096 418.2 12.024 418.08 11.88C416.832 10.512 415.224 9.828 413.256 9.828C411.984 9.828 410.904 10.14 410.016 10.764C409.152 11.388 408.72 12.252 408.72 13.356C408.792 14.388 409.26 15.192 410.124 15.768C411.012 16.32 412.308 16.812 414.012 17.244C415.236 17.556 416.244 17.904 417.036 18.288C417.852 18.648 418.5 19.164 418.98 19.836C419.46 20.508 419.7 21.384 419.7 22.464C419.7 23.976 419.112 25.176 417.936 26.064C416.784 26.928 415.272 27.36 413.4 27.36C410.664 27.36 408.42 26.28 406.668 24.12ZM437.982 9.036C438.198 9.036 438.366 9.108 438.486 9.252C438.63 9.396 438.702 9.564 438.702 9.756V20.232C438.702 22.512 438.054 24.252 436.758 25.452C435.486 26.628 433.746 27.216 431.538 27.216C429.33 27.216 427.59 26.628 426.318 25.452C425.046 24.252 424.41 22.512 424.41 20.232V9.756C424.41 9.564 424.482 9.396 424.626 9.252C424.77 9.108 424.938 9.036 425.13 9.036C425.346 9.036 425.514 9.108 425.634 9.252C425.778 9.396 425.85 9.564 425.85 9.756V20.232C425.85 22.032 426.354 23.424 427.362 24.408C428.37 25.368 429.762 25.848 431.538 25.848C433.338 25.848 434.742 25.368 435.75 24.408C436.758 23.424 437.262 22.032 437.262 20.232V9.756C437.262 9.564 437.322 9.396 437.442 9.252C437.586 9.108 437.766 9.036 437.982 9.036ZM452.831 8.46C453.935 8.46 454.487 8.736 454.487 9.288C454.487 9.504 454.427 9.684 454.307 9.828C454.187 9.972 454.031 10.044 453.839 10.044C453.767 10.044 453.587 9.996 453.299 9.9C453.035 9.78 452.747 9.72 452.435 9.72C451.451 9.72 450.467 10.116 449.483 10.908C448.499 11.676 447.695 12.66 447.071 13.86C446.447 15.036 446.135 16.176 446.135 17.28V26.28C446.135 26.472 446.063 26.64 445.919 26.784C445.775 26.928 445.607 27 445.415 27C445.199 27 445.019 26.928 444.875 26.784C444.755 26.64 444.695 26.472 444.695 26.28V9.756C444.695 9.564 444.767 9.396 444.911 9.252C445.055 9.108 445.223 9.036 445.415 9.036C445.631 9.036 445.799 9.108 445.919 9.252C446.063 9.396 446.135 9.564 446.135 9.756V13.572C446.687 12.108 447.539 10.896 448.691 9.936C449.867 8.976 451.247 8.484 452.831 8.46ZM488.1 8.82C490.164 8.82 491.724 9.468 492.78 10.764C493.86 12.06 494.4 13.74 494.4 15.804V26.28C494.4 26.472 494.328 26.64 494.184 26.784C494.064 26.928 493.896 27 493.68 27C493.464 27 493.284 26.928 493.14 26.784C493.02 26.64 492.96 26.472 492.96 26.28V15.948C492.96 14.244 492.54 12.864 491.7 11.808C490.884 10.728 489.636 10.188 487.956 10.188C486.924 10.188 485.904 10.452 484.896 10.98C483.912 11.508 483.108 12.216 482.484 13.104C481.86 13.968 481.548 14.916 481.548 15.948V26.28C481.548 26.472 481.476 26.64 481.332 26.784C481.212 26.928 481.044 27 480.828 27C480.612 27 480.432 26.928 480.288 26.784C480.168 26.64 480.108 26.472 480.108 26.28V15.768C480.108 14.112 479.712 12.768 478.92 11.736C478.128 10.704 476.928 10.188 475.32 10.188C474.312 10.188 473.328 10.44 472.368 10.944C471.408 11.448 470.616 12.132 469.992 12.996C469.392 13.86 469.092 14.784 469.092 15.768V26.28C469.092 26.472 469.02 26.64 468.876 26.784C468.732 26.928 468.564 27 468.372 27C468.156 27 467.976 26.928 467.832 26.784C467.712 26.64 467.652 26.472 467.652 26.28V9.756C467.652 9.564 467.724 9.396 467.868 9.252C468.012 9.108 468.18 9.036 468.372 9.036C468.588 9.036 468.756 9.108 468.876 9.252C469.02 9.396 469.092 9.564 469.092 9.756V12.276C469.788 11.268 470.688 10.44 471.792 9.792C472.92 9.144 474.096 8.82 475.32 8.82C476.64 8.82 477.816 9.156 478.848 9.828C479.88 10.5 480.636 11.484 481.116 12.78C481.62 11.676 482.568 10.74 483.96 9.972C485.376 9.204 486.756 8.82 488.1 8.82ZM516.871 17.928C516.871 19.704 516.487 21.312 515.719 22.752C514.951 24.168 513.883 25.296 512.515 26.136C511.171 26.952 509.671 27.36 508.015 27.36C506.359 27.36 504.847 26.952 503.479 26.136C502.135 25.296 501.067 24.156 500.275 22.716C499.507 21.276 499.123 19.68 499.123 17.928C499.123 16.152 499.507 14.544 500.275 13.104C501.067 11.664 502.135 10.536 503.479 9.72C504.823 8.88 506.335 8.46 508.015 8.46C509.671 8.46 511.171 8.88 512.515 9.72C513.883 10.536 514.951 11.664 515.719 13.104C516.487 14.544 516.871 16.152 516.871 17.928ZM515.431 17.928C515.431 16.392 515.107 15.012 514.459 13.788C513.835 12.564 512.959 11.604 511.831 10.908C510.703 10.188 509.431 9.828 508.015 9.828C506.623 9.828 505.351 10.188 504.199 10.908C503.071 11.604 502.183 12.564 501.535 13.788C500.887 15.012 500.563 16.392 500.563 17.928C500.563 19.44 500.887 20.808 501.535 22.032C502.183 23.256 503.071 24.228 504.199 24.948C505.351 25.644 506.623 25.992 508.015 25.992C509.431 25.992 510.703 25.644 511.831 24.948C512.959 24.252 513.835 23.292 514.459 22.068C515.107 20.82 515.431 19.44 515.431 17.928ZM529.754 8.46C531.89 8.46 533.498 9.096 534.578 10.368C535.658 11.616 536.198 13.248 536.198 15.264V26.28C536.198 26.472 536.126 26.64 535.982 26.784C535.838 26.928 535.67 27 535.478 27C535.262 27 535.082 26.928 534.938 26.784C534.818 26.64 534.758 26.472 534.758 26.28V15.408C534.758 13.776 534.326 12.444 533.462 11.412C532.622 10.356 531.338 9.828 529.61 9.828C528.554 9.828 527.51 10.08 526.478 10.584C525.47 11.088 524.642 11.772 523.994 12.636C523.346 13.5 523.022 14.424 523.022 15.408V26.28C523.022 26.472 522.95 26.64 522.806 26.784C522.662 26.928 522.494 27 522.302 27C522.086 27 521.906 26.928 521.762 26.784C521.642 26.64 521.582 26.472 521.582 26.28V9.756C521.582 9.564 521.654 9.396 521.798 9.252C521.942 9.108 522.11 9.036 522.302 9.036C522.518 9.036 522.686 9.108 522.806 9.252C522.95 9.396 523.022 9.564 523.022 9.756V12.168C523.718 11.088 524.69 10.2 525.938 9.504C527.21 8.808 528.482 8.46 529.754 8.46ZM560.238 8.82C561.822 8.82 563.25 9.216 564.522 10.008C565.794 10.8 566.79 11.892 567.51 13.284C568.23 14.676 568.59 16.248 568.59 18C568.59 19.728 568.218 21.3 567.474 22.716C566.754 24.108 565.758 25.212 564.486 26.028C563.214 26.82 561.798 27.216 560.238 27.216C558.798 27.216 557.478 26.856 556.278 26.136C555.078 25.416 554.094 24.396 553.326 23.076V33.48C553.326 33.672 553.254 33.84 553.11 33.984C552.99 34.128 552.822 34.2 552.606 34.2C552.414 34.2 552.246 34.128 552.102 33.984C551.958 33.84 551.886 33.672 551.886 33.48V9.54C551.886 9.348 551.946 9.18 552.066 9.036C552.21 8.892 552.39 8.82 552.606 8.82C552.822 8.82 552.99 8.892 553.11 9.036C553.254 9.18 553.326 9.348 553.326 9.54V12.852C554.046 11.484 555.006 10.476 556.206 9.828C557.406 9.156 558.75 8.82 560.238 8.82ZM560.166 25.848C561.486 25.848 562.674 25.512 563.73 24.84C564.786 24.168 565.614 23.232 566.214 22.032C566.838 20.832 567.15 19.488 567.15 18C567.15 16.512 566.838 15.18 566.214 14.004C565.614 12.804 564.786 11.868 563.73 11.196C562.674 10.524 561.486 10.188 560.166 10.188C558.822 10.188 557.61 10.524 556.53 11.196C555.474 11.844 554.646 12.768 554.046 13.968C553.47 15.144 553.182 16.488 553.182 18C553.182 19.512 553.47 20.868 554.046 22.068C554.646 23.244 555.474 24.168 556.53 24.84C557.61 25.512 558.822 25.848 560.166 25.848ZM589.785 17.928C589.785 19.704 589.401 21.312 588.633 22.752C587.865 24.168 586.797 25.296 585.429 26.136C584.085 26.952 582.585 27.36 580.929 27.36C579.273 27.36 577.761 26.952 576.393 26.136C575.049 25.296 573.981 24.156 573.189 22.716C572.421 21.276 572.037 19.68 572.037 17.928C572.037 16.152 572.421 14.544 573.189 13.104C573.981 11.664 575.049 10.536 576.393 9.72C577.737 8.88 579.249 8.46 580.929 8.46C582.585 8.46 584.085 8.88 585.429 9.72C586.797 10.536 587.865 11.664 588.633 13.104C589.401 14.544 589.785 16.152 589.785 17.928ZM588.345 17.928C588.345 16.392 588.021 15.012 587.373 13.788C586.749 12.564 585.873 11.604 584.745 10.908C583.617 10.188 582.345 9.828 580.929 9.828C579.537 9.828 578.265 10.188 577.113 10.908C575.985 11.604 575.097 12.564 574.449 13.788C573.801 15.012 573.477 16.392 573.477 17.928C573.477 19.44 573.801 20.808 574.449 22.032C575.097 23.256 575.985 24.228 577.113 24.948C578.265 25.644 579.537 25.992 580.929 25.992C582.345 25.992 583.617 25.644 584.745 24.948C585.873 24.252 586.749 23.292 587.373 22.068C588.021 20.82 588.345 19.44 588.345 17.928ZM602.632 8.46C603.736 8.46 604.288 8.736 604.288 9.288C604.288 9.504 604.228 9.684 604.108 9.828C603.988 9.972 603.832 10.044 603.64 10.044C603.568 10.044 603.388 9.996 603.1 9.9C602.836 9.78 602.548 9.72 602.236 9.72C601.252 9.72 600.268 10.116 599.284 10.908C598.3 11.676 597.496 12.66 596.872 13.86C596.248 15.036 595.936 16.176 595.936 17.28V26.28C595.936 26.472 595.864 26.64 595.72 26.784C595.576 26.928 595.408 27 595.216 27C595 27 594.82 26.928 594.676 26.784C594.556 26.64 594.496 26.472 594.496 26.28V9.756C594.496 9.564 594.568 9.396 594.712 9.252C594.856 9.108 595.024 9.036 595.216 9.036C595.432 9.036 595.6 9.108 595.72 9.252C595.864 9.396 595.936 9.564 595.936 9.756V13.572C596.488 12.108 597.34 10.896 598.492 9.936C599.668 8.976 601.048 8.484 602.632 8.46ZM614.446 8.892C614.614 8.892 614.77 8.964 614.914 9.108C615.058 9.252 615.13 9.408 615.13 9.576C615.13 9.768 615.058 9.936 614.914 10.08C614.794 10.2 614.638 10.26 614.446 10.26H610.486V23.076C610.486 24.132 610.666 24.84 611.026 25.2C611.41 25.536 611.89 25.704 612.466 25.704C612.562 25.704 612.694 25.68 612.862 25.632C613.054 25.584 613.21 25.56 613.33 25.56C613.498 25.56 613.642 25.632 613.762 25.776C613.882 25.896 613.942 26.04 613.942 26.208C613.942 26.424 613.798 26.616 613.51 26.784C613.222 26.928 612.886 27 612.502 27C611.902 27 611.398 26.964 610.99 26.892C610.582 26.796 610.15 26.472 609.694 25.92C609.262 25.344 609.046 24.42 609.046 23.148V10.26H606.094C605.926 10.26 605.77 10.188 605.626 10.044C605.482 9.9 605.41 9.744 605.41 9.576C605.41 9.384 605.47 9.228 605.59 9.108C605.734 8.964 605.902 8.892 606.094 8.892H609.046V4.32C609.046 4.128 609.118 3.96 609.262 3.816C609.406 3.672 609.574 3.6 609.766 3.6C609.982 3.6 610.15 3.672 610.27 3.816C610.414 3.96 610.486 4.128 610.486 4.32V8.892H614.446ZM625.498 9.252C625.69 9.252 625.846 9.324 625.966 9.468C626.11 9.588 626.182 9.744 626.182 9.936C626.182 10.128 626.11 10.296 625.966 10.44C625.846 10.56 625.69 10.62 625.498 10.62H621.25V26.28C621.25 26.472 621.178 26.64 621.034 26.784C620.89 26.928 620.722 27 620.53 27C620.314 27 620.134 26.928 619.99 26.784C619.87 26.64 619.81 26.472 619.81 26.28V10.62H616.93C616.762 10.62 616.606 10.548 616.462 10.404C616.318 10.26 616.246 10.104 616.246 9.936C616.246 9.72 616.306 9.552 616.426 9.432C616.57 9.312 616.738 9.252 616.93 9.252H619.81V4.86C619.81 3.444 620.182 2.376 620.926 1.656C621.694 0.911999 622.666 0.539999 623.842 0.539999C624.442 0.539999 625.006 0.623999 625.534 0.791998C626.086 0.935998 626.362 1.188 626.362 1.548C626.362 1.74 626.29 1.908 626.146 2.052C626.002 2.196 625.846 2.268 625.678 2.268C625.486 2.268 625.234 2.208 624.922 2.088C624.37 1.92 623.962 1.836 623.698 1.836C622.954 1.836 622.354 2.088 621.898 2.592C621.466 3.096 621.25 3.852 621.25 4.86V9.252H625.498ZM646.667 17.928C646.667 19.704 646.283 21.312 645.515 22.752C644.747 24.168 643.679 25.296 642.311 26.136C640.967 26.952 639.467 27.36 637.811 27.36C636.155 27.36 634.643 26.952 633.275 26.136C631.931 25.296 630.863 24.156 630.071 22.716C629.303 21.276 628.919 19.68 628.919 17.928C628.919 16.152 629.303 14.544 630.071 13.104C630.863 11.664 631.931 10.536 633.275 9.72C634.619 8.88 636.131 8.46 637.811 8.46C639.467 8.46 640.967 8.88 642.311 9.72C643.679 10.536 644.747 11.664 645.515 13.104C646.283 14.544 646.667 16.152 646.667 17.928ZM645.227 17.928C645.227 16.392 644.903 15.012 644.255 13.788C643.631 12.564 642.755 11.604 641.627 10.908C640.499 10.188 639.227 9.828 637.811 9.828C636.419 9.828 635.147 10.188 633.995 10.908C632.867 11.604 631.979 12.564 631.331 13.788C630.683 15.012 630.359 16.392 630.359 17.928C630.359 19.44 630.683 20.808 631.331 22.032C631.979 23.256 632.867 24.228 633.995 24.948C635.147 25.644 636.419 25.992 637.811 25.992C639.227 25.992 640.499 25.644 641.627 24.948C642.755 24.252 643.631 23.292 644.255 22.068C644.903 20.82 645.227 19.44 645.227 17.928ZM652.999 26.28C652.999 26.472 652.927 26.64 652.783 26.784C652.639 26.928 652.471 27 652.279 27C652.063 27 651.883 26.928 651.739 26.784C651.619 26.64 651.559 26.472 651.559 26.28V1.08C651.559 0.887999 651.631 0.719999 651.775 0.575999C651.919 0.431999 652.087 0.36 652.279 0.36C652.495 0.36 652.663 0.431999 652.783 0.575999C652.927 0.719999 652.999 0.887999 652.999 1.08V26.28ZM660.588 26.28C660.588 26.472 660.516 26.64 660.372 26.784C660.228 26.928 660.06 27 659.868 27C659.652 27 659.472 26.928 659.328 26.784C659.208 26.64 659.148 26.472 659.148 26.28V9.18C659.148 8.988 659.22 8.82 659.364 8.676C659.508 8.532 659.676 8.46 659.868 8.46C660.084 8.46 660.252 8.532 660.372 8.676C660.516 8.82 660.588 8.988 660.588 9.18V26.28ZM659.868 6.012C659.484 6.012 659.172 5.904 658.932 5.688C658.716 5.472 658.608 5.196 658.608 4.86V4.572C658.608 4.236 658.728 3.96 658.968 3.744C659.208 3.528 659.52 3.42 659.904 3.42C660.24 3.42 660.516 3.528 660.732 3.744C660.972 3.96 661.092 4.236 661.092 4.572V4.86C661.092 5.196 660.972 5.472 660.732 5.688C660.516 5.904 660.228 6.012 659.868 6.012ZM683.054 17.928C683.054 19.704 682.67 21.312 681.902 22.752C681.134 24.168 680.066 25.296 678.698 26.136C677.354 26.952 675.854 27.36 674.198 27.36C672.542 27.36 671.03 26.952 669.662 26.136C668.318 25.296 667.25 24.156 666.458 22.716C665.69 21.276 665.306 19.68 665.306 17.928C665.306 16.152 665.69 14.544 666.458 13.104C667.25 11.664 668.318 10.536 669.662 9.72C671.006 8.88 672.518 8.46 674.198 8.46C675.854 8.46 677.354 8.88 678.698 9.72C680.066 10.536 681.134 11.664 681.902 13.104C682.67 14.544 683.054 16.152 683.054 17.928ZM681.614 17.928C681.614 16.392 681.29 15.012 680.642 13.788C680.018 12.564 679.142 11.604 678.014 10.908C676.886 10.188 675.614 9.828 674.198 9.828C672.806 9.828 671.534 10.188 670.382 10.908C669.254 11.604 668.366 12.564 667.718 13.788C667.07 15.012 666.746 16.392 666.746 17.928C666.746 19.44 667.07 20.808 667.718 22.032C668.366 23.256 669.254 24.228 670.382 24.948C671.534 25.644 672.806 25.992 674.198 25.992C675.614 25.992 676.886 25.644 678.014 24.948C679.142 24.252 680.018 23.292 680.642 22.068C681.29 20.82 681.614 19.44 681.614 17.928ZM711.688 22.68C711.856 22.68 712 22.752 712.12 22.896C712.24 23.016 712.3 23.16 712.3 23.328C712.3 23.496 712.252 23.64 712.156 23.76C711.364 24.816 710.38 25.68 709.204 26.352C708.028 27.024 706.768 27.36 705.424 27.36C703.624 27.36 702.028 26.976 700.636 26.208C699.244 25.44 698.152 24.348 697.36 22.932C696.592 21.516 696.208 19.872 696.208 18C696.208 16.08 696.58 14.4 697.324 12.96C698.092 11.496 699.1 10.38 700.348 9.612C701.596 8.844 702.928 8.46 704.344 8.46C705.76 8.46 707.068 8.772 708.268 9.396C709.492 9.996 710.488 10.908 711.256 12.132C712.024 13.356 712.432 14.868 712.48 16.668C712.48 16.86 712.408 17.04 712.264 17.208C712.12 17.352 711.952 17.424 711.76 17.424H697.612V17.892C697.612 19.38 697.912 20.748 698.512 21.996C699.112 23.22 700 24.192 701.176 24.912C702.352 25.632 703.768 25.992 705.424 25.992C706.576 25.992 707.656 25.716 708.664 25.164C709.696 24.588 710.5 23.868 711.076 23.004C711.244 22.788 711.448 22.68 711.688 22.68ZM704.344 9.9C703.456 9.9 702.544 10.14 701.608 10.62C700.696 11.076 699.88 11.772 699.16 12.708C698.464 13.62 697.996 14.736 697.756 16.056H711.004V15.732C710.884 14.508 710.488 13.464 709.816 12.6C709.168 11.712 708.352 11.04 707.368 10.584C706.408 10.128 705.4 9.9 704.344 9.9ZM725.363 8.46C727.499 8.46 729.107 9.096 730.187 10.368C731.267 11.616 731.807 13.248 731.807 15.264V26.28C731.807 26.472 731.735 26.64 731.591 26.784C731.447 26.928 731.279 27 731.087 27C730.871 27 730.691 26.928 730.547 26.784C730.427 26.64 730.367 26.472 730.367 26.28V15.408C730.367 13.776 729.935 12.444 729.071 11.412C728.231 10.356 726.947 9.828 725.219 9.828C724.163 9.828 723.119 10.08 722.087 10.584C721.079 11.088 720.251 11.772 719.603 12.636C718.955 13.5 718.631 14.424 718.631 15.408V26.28C718.631 26.472 718.559 26.64 718.415 26.784C718.271 26.928 718.103 27 717.911 27C717.695 27 717.515 26.928 717.371 26.784C717.251 26.64 717.191 26.472 717.191 26.28V9.756C717.191 9.564 717.263 9.396 717.407 9.252C717.551 9.108 717.719 9.036 717.911 9.036C718.127 9.036 718.295 9.108 718.415 9.252C718.559 9.396 718.631 9.564 718.631 9.756V12.168C719.327 11.088 720.299 10.2 721.547 9.504C722.819 8.808 724.091 8.46 725.363 8.46ZM749.116 26.28C749.116 26.472 749.044 26.64 748.9 26.784C748.756 26.928 748.588 27 748.396 27C748.18 27 748 26.928 747.856 26.784C747.736 26.64 747.676 26.472 747.676 26.28V1.08C747.676 0.887999 747.748 0.719999 747.892 0.575999C748.036 0.431999 748.204 0.36 748.396 0.36C748.612 0.36 748.78 0.431999 748.9 0.575999C749.044 0.719999 749.116 0.887999 749.116 1.08V26.28ZM756.705 26.28C756.705 26.472 756.633 26.64 756.489 26.784C756.345 26.928 756.177 27 755.985 27C755.769 27 755.589 26.928 755.445 26.784C755.325 26.64 755.265 26.472 755.265 26.28V9.18C755.265 8.988 755.337 8.82 755.481 8.676C755.625 8.532 755.793 8.46 755.985 8.46C756.201 8.46 756.369 8.532 756.489 8.676C756.633 8.82 756.705 8.988 756.705 9.18V26.28ZM755.985 6.012C755.601 6.012 755.289 5.904 755.049 5.688C754.833 5.472 754.725 5.196 754.725 4.86V4.572C754.725 4.236 754.845 3.96 755.085 3.744C755.325 3.528 755.637 3.42 756.021 3.42C756.357 3.42 756.633 3.528 756.849 3.744C757.089 3.96 757.209 4.236 757.209 4.572V4.86C757.209 5.196 757.089 5.472 756.849 5.688C756.633 5.904 756.345 6.012 755.985 6.012ZM778.127 9.036C778.343 9.036 778.511 9.108 778.631 9.252C778.775 9.396 778.847 9.564 778.847 9.756V25.236C778.847 27.06 778.475 28.644 777.731 29.988C776.987 31.332 775.943 32.364 774.599 33.084C773.255 33.828 771.719 34.2 769.991 34.2C769.031 34.2 768.059 34.068 767.075 33.804C766.091 33.564 765.275 33.24 764.627 32.832C764.003 32.448 763.691 32.052 763.691 31.644C763.691 31.452 763.739 31.296 763.835 31.176C763.955 31.056 764.111 30.996 764.303 30.996C764.447 30.996 764.663 31.116 764.951 31.356C765.287 31.692 765.659 31.944 766.067 32.112C767.243 32.592 768.575 32.832 770.063 32.832C772.319 32.832 774.107 32.136 775.427 30.744C776.747 29.352 777.407 27.516 777.407 25.236V22.752C776.759 24.288 775.751 25.44 774.383 26.208C773.039 26.976 771.623 27.36 770.135 27.36C768.503 27.36 767.015 26.952 765.671 26.136C764.351 25.296 763.307 24.156 762.539 22.716C761.795 21.276 761.423 19.668 761.423 17.892C761.423 16.116 761.795 14.508 762.539 13.068C763.307 11.628 764.351 10.5 765.671 9.684C767.015 8.868 768.503 8.46 770.135 8.46C771.743 8.46 773.207 8.892 774.527 9.756C775.871 10.596 776.831 11.616 777.407 12.816V9.756C777.407 9.564 777.467 9.396 777.587 9.252C777.731 9.108 777.911 9.036 778.127 9.036ZM770.207 25.992C771.599 25.992 772.847 25.656 773.951 24.984C775.079 24.288 775.955 23.328 776.579 22.104C777.227 20.88 777.551 19.476 777.551 17.892C777.551 16.308 777.227 14.904 776.579 13.68C775.955 12.456 775.079 11.508 773.951 10.836C772.847 10.164 771.599 9.828 770.207 9.828C768.815 9.828 767.555 10.176 766.427 10.872C765.323 11.568 764.447 12.528 763.799 13.752C763.175 14.976 762.863 16.356 762.863 17.892C762.863 19.428 763.175 20.808 763.799 22.032C764.447 23.256 765.323 24.228 766.427 24.948C767.555 25.644 768.815 25.992 770.207 25.992ZM793.004 8.46C795.14 8.46 796.748 9.096 797.828 10.368C798.908 11.616 799.448 13.248 799.448 15.264V26.28C799.448 26.472 799.376 26.64 799.232 26.784C799.088 26.928 798.92 27 798.728 27C798.512 27 798.332 26.928 798.188 26.784C798.068 26.64 798.008 26.472 798.008 26.28V15.408C798.008 13.776 797.576 12.444 796.712 11.412C795.872 10.356 794.588 9.828 792.86 9.828C791.804 9.828 790.76 10.08 789.728 10.584C788.72 11.088 787.892 11.772 787.244 12.636C786.596 13.5 786.272 14.424 786.272 15.408V26.28C786.272 26.472 786.2 26.64 786.056 26.784C785.912 26.928 785.744 27 785.552 27C785.336 27 785.156 26.928 785.012 26.784C784.892 26.64 784.832 26.472 784.832 26.28V9.756C784.832 9.564 784.904 9.396 785.048 9.252C785.192 9.108 785.36 9.036 785.552 9.036C785.768 9.036 785.936 9.108 786.056 9.252C786.2 9.396 786.272 9.564 786.272 9.756V12.168C786.968 11.088 787.94 10.2 789.188 9.504C790.46 8.808 791.732 8.46 793.004 8.46ZM819.653 22.68C819.821 22.68 819.965 22.752 820.085 22.896C820.205 23.016 820.265 23.16 820.265 23.328C820.265 23.496 820.217 23.64 820.121 23.76C819.329 24.816 818.345 25.68 817.169 26.352C815.993 27.024 814.733 27.36 813.389 27.36C811.589 27.36 809.993 26.976 808.601 26.208C807.209 25.44 806.117 24.348 805.325 22.932C804.557 21.516 804.173 19.872 804.173 18C804.173 16.08 804.545 14.4 805.289 12.96C806.057 11.496 807.065 10.38 808.313 9.612C809.561 8.844 810.893 8.46 812.309 8.46C813.725 8.46 815.033 8.772 816.233 9.396C817.457 9.996 818.453 10.908 819.221 12.132C819.989 13.356 820.397 14.868 820.445 16.668C820.445 16.86 820.373 17.04 820.229 17.208C820.085 17.352 819.917 17.424 819.725 17.424H805.577V17.892C805.577 19.38 805.877 20.748 806.477 21.996C807.077 23.22 807.965 24.192 809.141 24.912C810.317 25.632 811.733 25.992 813.389 25.992C814.541 25.992 815.621 25.716 816.629 25.164C817.661 24.588 818.465 23.868 819.041 23.004C819.209 22.788 819.413 22.68 819.653 22.68ZM812.309 9.9C811.421 9.9 810.509 10.14 809.573 10.62C808.661 11.076 807.845 11.772 807.125 12.708C806.429 13.62 805.961 14.736 805.721 16.056H818.969V15.732C818.849 14.508 818.453 13.464 817.781 12.6C817.133 11.712 816.317 11.04 815.333 10.584C814.373 10.128 813.365 9.9 812.309 9.9Z" fill="black"/>
</svg>
